<svg xmlns="http://www.w3.org/2000/svg" viewBox="0 0 158.59 158.59"><defs><style>.cls-1{isolation:isolate;}.cls-2{fill:#c8d0d7;}.cls-3{fill:#b7c0c8;}.cls-4{fill:#848c90;}.cls-5{fill:#e5e5e5;mix-blend-mode:multiply;}</style></defs><title>newAsset 31</title><g class="cls-1"><g id="Layer_2" data-name="Layer 2"><g id="Layer_1-2" data-name="Layer 1"><circle class="cls-2" cx="79.3" cy="79.3" r="79.3" transform="translate(-32.85 79.3) rotate(-45)"/><path class="cls-3" d="M79.64,128.28a3.74,3.74,0,0,1,1.86,3.23,3.75,3.75,0,0,0,2.58,3.56,3.86,3.86,0,0,0,4.37-1.46,5,5,0,0,0-.24-6l-.76-.93a4.93,4.93,0,0,0-3.33-1.76,3.18,3.18,0,0,1,.3-6.34,3.78,3.78,0,0,1,3.42,2.15l1.35,2.78a3.78,3.78,0,0,0,7.17-1.3l.1-1.14a1.45,1.45,0,0,1,1.74-1.3,5.92,5.92,0,0,0,6-2.48,6.09,6.09,0,0,0-3.36-9.28l-2.58-.74a4,4,0,0,1-2.76-2.81,5,5,0,0,0-4.86-3.74h-.6a1.78,1.78,0,0,1-1.76-1.52A5.05,5.05,0,0,0,85,95.11a4.41,4.41,0,0,0-5.41,6.1l.09.19a5.23,5.23,0,0,0,2.53,2.47,3.3,3.3,0,0,1-1.39,6.29,3.75,3.75,0,0,1-3.69-3.1l-.09-.5a7.51,7.51,0,0,0-2.4-4.33,3.71,3.71,0,0,0-5.93,4.14L69,107a5.24,5.24,0,0,1,.38,2.25,5.77,5.77,0,0,1-3.5,5l-.35.15a4.33,4.33,0,0,1-4.45-.62,4,4,0,0,1-.8-5.3,8.47,8.47,0,0,0,1.16-2.67l.51-2.14a4.37,4.37,0,0,0-5.41-5.23l-1.57.43A3.23,3.23,0,0,1,52,98.27a3.2,3.2,0,0,1-.68-4h0a5.21,5.21,0,0,0,.24-4.72l-.22-.48A6.58,6.58,0,0,1,54,80.72a4.86,4.86,0,0,1,4.72-.12h0a4.86,4.86,0,0,1,2.62,4.31,9.69,9.69,0,0,0,2.84,6.86l2.4,2.4a6.93,6.93,0,0,0,11.19-2l.38-.82a2.47,2.47,0,0,0-1.73-3.45,2.26,2.26,0,1,1,1-4.39l1.5.4a5.26,5.26,0,0,0,6.46-6.26A6.42,6.42,0,0,0,80,72.71a7,7,0,0,0-4.66,1l-3.42,2.18a2.1,2.1,0,0,1-2.84-3l.4-.56a4.15,4.15,0,0,0,.64-3.56A3.79,3.79,0,0,0,66.76,66a3.85,3.85,0,0,0-3.23,1.29l-.78.9A2.17,2.17,0,0,1,59.33,68,2.2,2.2,0,0,1,59,66.13l.61-1.91a3.28,3.28,0,0,0-5.15-3.58l-.52.41a3.66,3.66,0,0,1-4-.32,3.07,3.07,0,0,1,2.28-5.48l1.81.26a12.39,12.39,0,0,0,7.19-1.13,3.56,3.56,0,0,0,.55-6.05l-1.19-.88a5.44,5.44,0,0,1-2.18-4.82,5.42,5.42,0,0,0-1.32-4L56.65,38a10.55,10.55,0,0,0-15.39-.54L40,38.75a6,6,0,0,1-3.82,1.74l-.3,0a5.62,5.62,0,0,0-5.13,4.56,4.51,4.51,0,0,1-3.47,3.55,5.7,5.7,0,0,0-2.73,9.71,7.26,7.26,0,0,1,2.14,4l.53,3a7.16,7.16,0,0,1-9.48,8,8.93,8.93,0,0,1-5.58-6L11.8,66a4.9,4.9,0,0,1,2.93-5.9,4.89,4.89,0,0,0,2.75-2.73l4.77-11.74a2.86,2.86,0,0,0-4.38-3.35l-5.12,3.9a6.49,6.49,0,0,0-2.42,6.47h0A3.6,3.6,0,0,1,4.3,56l-.36-.34a78.32,78.32,0,0,0,2.64,56A32.81,32.81,0,0,0,18,116.64a7.17,7.17,0,0,1,5.08,4.29l2.21,5.36a6.07,6.07,0,0,0,5,3.73,9,9,0,0,1,7.1,4.87,2.71,2.71,0,0,0,3.1,1.4h0a2.73,2.73,0,0,0,2-2.69l-.1-4.48a1.79,1.79,0,0,1,3.29-1l2.1,3.26a2.5,2.5,0,0,0,4.58-1l.65-4.32a5.1,5.1,0,0,1,.3-1.08A6.19,6.19,0,0,1,60,121.24a4.4,4.4,0,0,1,3.73,4.31,4.57,4.57,0,0,1-.26,1.51L62,131.24a7.71,7.71,0,0,0,2.18,8.4,6.61,6.61,0,0,0,11-4.81l0-1.77a7.19,7.19,0,0,1,1.45-4.18A2.27,2.27,0,0,1,79.64,128.28Z"/><path class="cls-3" d="M133.89,66.41l-1.35-2.53A8.77,8.77,0,0,0,130,60.94a8.14,8.14,0,0,0-7.1-1.29,5.26,5.26,0,0,1-4.11-.41l-.41-.24a6.1,6.1,0,0,1-3-4.6l0-.27a6.58,6.58,0,0,1,.84-4.2,5.72,5.72,0,0,1,5.9-2.75,11,11,0,0,1,7.39,5.14,3.73,3.73,0,0,0,3.05,1.82l2.7.11A2.69,2.69,0,0,0,137.62,53a2.47,2.47,0,0,1,3.4-.75,2.87,2.87,0,0,1,1.22,2.62,5.8,5.8,0,0,1-1.75,3.86l-.12.12A4.21,4.21,0,0,0,139,61.45a4.08,4.08,0,0,0,2.54,4.35h0a4.38,4.38,0,0,0,4.52-.91A4.84,4.84,0,0,0,147.6,62a1.73,1.73,0,0,1,2.18-1.54l5.28,1.7a84.35,84.35,0,0,0-7.93-21.06,21.28,21.28,0,0,1-4.86,3.25,2.64,2.64,0,0,1-2.94-.37,2.86,2.86,0,0,1-.07-4.12l4.54-4.4a81.17,81.17,0,0,0-13-15.47,19.21,19.21,0,0,0,.39,7.08l.21.83a3.09,3.09,0,0,1-.84,2.95,2.27,2.27,0,0,1-3.13-.24,2.13,2.13,0,0,0-3,0,4.14,4.14,0,0,0-.9,4.49l.87,2.1a2.74,2.74,0,0,1-.61,3.07,2.39,2.39,0,0,1-3.51-.28,12.08,12.08,0,0,1-2.58-8.3V31.6a2.72,2.72,0,0,0-1-2.29,2.44,2.44,0,0,0-2.27-.47,7.76,7.76,0,0,1-7.91-2.23l-1.19-1.28a1.71,1.71,0,0,0-2-.38,1.9,1.9,0,0,0-.9,2.38l1.93,5.1a4.29,4.29,0,0,1,.1,2.72,3.93,3.93,0,0,1-3.85,2.91L98.53,38A3.93,3.93,0,0,1,95,35.4a5.85,5.85,0,0,0-1.87-2.56l-2.84-2.22a4.37,4.37,0,0,1-1.5-2.25,4.31,4.31,0,0,0-2.66-2.88l-.59-.21a4.19,4.19,0,0,1-2.23-5.82,2.78,2.78,0,0,0-.47-3.14l0,0a2.62,2.62,0,0,0-3.31-.43l-.1.06A3,3,0,0,0,78,18.29a2.13,2.13,0,0,1-2.61,2l-.22-.05a10.63,10.63,0,0,1-7.69-8.35c0-.07,0-.15,0-.23a4.6,4.6,0,0,0-4.05-3.77l-.62,0a3.28,3.28,0,0,0-2.59.92L60,9a47.33,47.33,0,0,1-10.66,7.73l-.2.1A74.3,74.3,0,0,0,32.65,28.73l-3.78,3.6a2.9,2.9,0,0,0-.65,3.22,2.75,2.75,0,0,0,2.56,1.66h.15a2.61,2.61,0,0,0,1.87-.79l5.39-5.5,1.68-1.69a6.74,6.74,0,0,1,6.36-1.86l.2,0a19.21,19.21,0,0,0,8,.18l.09,0a2.64,2.64,0,0,0,2.09-2.63V26.6a2.38,2.38,0,0,0-1-1.87,2.26,2.26,0,0,1-.37-3.23l2.72-3.26a3.69,3.69,0,0,1,1.79-1.19l.05,0a3.44,3.44,0,0,1,4.29,2.25l0,.09A6.72,6.72,0,0,0,69.29,24l1,.18a2.53,2.53,0,0,1,2.07,1.94A2.44,2.44,0,0,1,70,29l-1.42,0a5.43,5.43,0,0,0-5.05,3.7l0,.07a3.35,3.35,0,0,0,.82,3.46h0a3.38,3.38,0,0,1,1,2.26,14,14,0,0,0,3.22,8.92l1.81,2.06a10.33,10.33,0,0,1,2.52,5.61,4.7,4.7,0,0,1-.31,2.29l-.12.3a5.59,5.59,0,0,0,1.78,6.45l.06,0a5.76,5.76,0,0,0,4.2,1.22L82.38,65a4.91,4.91,0,0,0,3.86-2.68l0-.07a5,5,0,0,0-.64-5.5,1.83,1.83,0,0,1-.13-.16A6.31,6.31,0,0,1,84.21,51l.13-.48A3.31,3.31,0,0,1,87.41,48h.07a4,4,0,0,1,3.29,1.49l.23.29a5.12,5.12,0,0,1,1.12,4v.07A5,5,0,0,0,93.45,58l1.84,1.94a8.81,8.81,0,0,0,5.81,2.73h.12A8.56,8.56,0,0,0,106.94,61l.73-.54a3,3,0,0,1,3.65,0l.05,0a3.08,3.08,0,0,1,1.2,3l-.25,1.42a3.81,3.81,0,0,0,1.06,3.42,3.71,3.71,0,0,0,5.11,0l.18-.17a3.66,3.66,0,0,1,3.23-1,3.53,3.53,0,0,1,2.7,2.67,5.3,5.3,0,0,0,5.13,4.24h-.32a5,5,0,0,0,3.07-1A5.31,5.31,0,0,0,133.89,66.41Z"/><path class="cls-3" d="M123.13,15.86A77.78,77.78,0,0,0,108.89,8L107.38,10a7.86,7.86,0,0,0,4.36,12.27l.15,0a14.63,14.63,0,0,1,5.67,2.93,4.75,4.75,0,0,0,4.59.85,3.81,3.81,0,0,0,.63-6.94,1.71,1.71,0,0,1-.23-2.83Z"/><path class="cls-3" d="M24.2,82.6a14.15,14.15,0,1,1-4.09,19.58A14.15,14.15,0,0,1,24.2,82.6Z"/><path class="cls-4" d="M25.68,101.58a14.1,14.1,0,0,1,7.58-21.22,14.14,14.14,0,1,0,3,27.55A14.13,14.13,0,0,1,25.68,101.58Z"/><path class="cls-2" d="M32,109.22a14.79,14.79,0,1,1,8.09-2.42A14.74,14.74,0,0,1,32,109.22Zm0-28.29A13.51,13.51,0,1,0,43.24,87,13.41,13.41,0,0,0,31.93,80.93Z"/><path class="cls-3" d="M76.44,136.24a5.31,5.31,0,1,1,7.33-1.62A5.31,5.31,0,0,1,76.44,136.24Z"/><path class="cls-4" d="M83.78,134.62a5.31,5.31,0,0,0,.39-5,5.25,5.25,0,0,1-.69,1.69,5.32,5.32,0,0,1-9.35-.74,5.3,5.3,0,0,0,9.65,4Z"/><path class="cls-2" d="M79.29,137.72a6,6,0,0,1,0-11.91,6,6,0,0,1,5.81,4.67,5.95,5.95,0,0,1-5.82,7.24Zm0-10.62a4.67,4.67,0,1,0,3.93,7.17,4.67,4.67,0,0,0-1.42-6.44A4.67,4.67,0,0,0,79.3,127.1Z"/><path class="cls-3" d="M146.06,87.16a6.86,6.86,0,1,1,.58-9.68A6.85,6.85,0,0,1,146.06,87.16Z"/><path class="cls-4" d="M146.64,77.48a6.83,6.83,0,0,0-6.86-2.06,6.84,6.84,0,0,1,1.49,11.26,6.92,6.92,0,0,1-2.82,1.48,6.85,6.85,0,0,0,8.19-10.68Z"/><path class="cls-2" d="M141.51,89.53a7.5,7.5,0,1,1,5-1.89A7.49,7.49,0,0,1,141.51,89.53Zm0-13.72a6.2,6.2,0,0,0-6.2,5.84,6.21,6.21,0,1,0,6.2-5.84Z"/><path class="cls-3" d="M103.9,142.17a7.29,7.29,0,1,1-7.29-7.29A7.29,7.29,0,0,1,103.9,142.17Z"/><path class="cls-4" d="M96.91,146a7.28,7.28,0,0,1-7.18-6.16,7.27,7.27,0,1,0,14.17,2.3,8.32,8.32,0,0,0-.11-1.13A7.27,7.27,0,0,1,96.91,146Z"/><path class="cls-2" d="M96.61,150.1a7.93,7.93,0,1,1,7.93-7.93A7.94,7.94,0,0,1,96.61,150.1Zm0-14.57a6.64,6.64,0,1,0,6.65,6.64A6.65,6.65,0,0,0,96.61,135.53Z"/><path class="cls-3" d="M65.62,21a5.57,5.57,0,1,1-5.57-5.57A5.57,5.57,0,0,1,65.62,21Z"/><path class="cls-4" d="M60.69,18.9a5.53,5.53,0,0,1,4.85,2.89,4.65,4.65,0,0,0,.08-.75,5.57,5.57,0,1,0-10.43,2.69A5.57,5.57,0,0,1,60.69,18.9Z"/><path class="cls-2" d="M60.05,27.26A6.22,6.22,0,1,1,66.26,21,6.23,6.23,0,0,1,60.05,27.26Zm0-11.14A4.93,4.93,0,1,0,65,21,4.93,4.93,0,0,0,60.05,16.12Z"/><path class="cls-3" d="M27.69,64.32A8.28,8.28,0,1,1,19.41,56,8.28,8.28,0,0,1,27.69,64.32Z"/><path class="cls-4" d="M15.06,64.45a8.27,8.27,0,0,1,6.54-8.08A8,8,0,0,0,19.41,56a8.28,8.28,0,0,0,0,16.56,8.46,8.46,0,0,0,1.75-.2A8.25,8.25,0,0,1,15.06,64.45Z"/><path class="cls-2" d="M19.41,73.24a8.93,8.93,0,1,1,8.92-8.92A8.93,8.93,0,0,1,19.41,73.24Zm0-16.56A7.64,7.64,0,1,0,27,64.32,7.65,7.65,0,0,0,19.41,56.68Z"/><path class="cls-3" d="M118.33,129.83a5.58,5.58,0,1,1-5.57-5.58A5.58,5.58,0,0,1,118.33,129.83Z"/><path class="cls-4" d="M116,125.28a5.91,5.91,0,0,1,.11,1.12,5.56,5.56,0,0,1-8.78,4.54,5.57,5.57,0,1,0,8.67-5.66Z"/><path class="cls-2" d="M112.76,136a6.22,6.22,0,1,1,6.21-6.22A6.23,6.23,0,0,1,112.76,136Zm0-11.14a4.93,4.93,0,1,0,4.92,4.92A4.93,4.93,0,0,0,112.76,124.9Z"/><path class="cls-3" d="M145.79,52.6a5.14,5.14,0,1,1-7.13-1.43A5.13,5.13,0,0,1,145.79,52.6Z"/><path class="cls-4" d="M138.66,51.17a5.55,5.55,0,0,0-.75.61,5.14,5.14,0,0,1,5.59,8.41,4.74,4.74,0,0,0,.86-.46,5.14,5.14,0,1,0-5.7-8.56Z"/><path class="cls-2" d="M141.52,61.24a5.79,5.79,0,1,1,4.81-9,5.73,5.73,0,0,1,.86,4.34,5.79,5.79,0,0,1-5.67,4.65Zm0-10.29A4.5,4.5,0,1,0,144,59.2,4.51,4.51,0,0,0,145.26,53,4.5,4.5,0,0,0,141.51,51Z"/><path class="cls-3" d="M54.73,89.24a5.15,5.15,0,1,1,6.39-3.48A5.16,5.16,0,0,1,54.73,89.24Z"/><path class="cls-4" d="M60.05,87.68a5.07,5.07,0,0,1-1.68-.18,5.14,5.14,0,0,1-3.47-6.39A5,5,0,0,1,56,79.19a5.13,5.13,0,1,0,4.08,8.49Z"/><path class="cls-2" d="M56.19,90.09A5.78,5.78,0,1,1,61.73,86,5.78,5.78,0,0,1,56.19,90.09Zm0-10.29a4.52,4.52,0,1,0,1.27.19A4.25,4.25,0,0,0,56.19,79.8Z"/><path class="cls-3" d="M130.05,54.22a7.94,7.94,0,1,1-4.9-10.11A8,8,0,0,1,130.05,54.22Z"/><path class="cls-4" d="M125.15,44.11a7.93,7.93,0,0,0-7.37,1.15,7.65,7.65,0,0,1,2.7.41,7.94,7.94,0,0,1,2.16,13.86,7.93,7.93,0,0,0,2.51-15.42Z"/><path class="cls-2" d="M122.55,60.2a8.48,8.48,0,0,1-2.82-.48,8.57,8.57,0,1,1,2.82.48Zm0-15.89a7.31,7.31,0,1,0,2.39.41A7.3,7.3,0,0,0,122.55,44.31Z"/><path class="cls-5" d="M108.18,7.86A79.26,79.26,0,0,1,44.61,148.1,77.05,77.05,0,1,0,108.18,7.86Z"/></g></g></g></svg>