<svg xmlns="http://www.w3.org/2000/svg" viewBox="0 0 161.74 158.59"><defs><style>.cls-1{isolation:isolate;}.cls-2{fill:#c8d0d7;}.cls-3{fill:#b7c0c8;}.cls-4{fill:#848c90;}.cls-5{fill:#e5e5e5;mix-blend-mode:multiply;}.cls-6{fill:#222;}</style></defs><title>newAsset 33</title><g class="cls-1"><g id="Layer_2" data-name="Layer 2"><g id="Layer_1-2" data-name="Layer 1"><circle class="cls-2" cx="79.3" cy="79.3" r="79.3" transform="translate(-32.85 79.3) rotate(-45)"/><path class="cls-3" d="M78.08,128.17a1.67,1.67,0,0,1,1.63-.45,3.81,3.81,0,0,1,2.81,3.67,3.8,3.8,0,0,0,2.61,3.6,3.91,3.91,0,0,0,4.43-1.48,5,5,0,0,0-.24-6.1l-1.06-1.3a3.57,3.57,0,0,0-2.72-1.41,3.22,3.22,0,1,1-.06-6.44A3.85,3.85,0,0,1,89,120.44l1.36,2.82a3.83,3.83,0,0,0,7.26-1.32l.1-1.16a1.48,1.48,0,0,1,1.77-1.31,6,6,0,0,0,6.12-2.51,6.17,6.17,0,0,0-3.4-9.4l-3.24-.93a2.83,2.83,0,0,1-2.06-2.16,5.09,5.09,0,0,0-5-4.29h-.61a1.81,1.81,0,0,1-1.78-1.54,5.11,5.11,0,0,0-3.39-4.11,4.46,4.46,0,0,0-5.47,6.17l.09.19a5.29,5.29,0,0,0,2.56,2.51,3.34,3.34,0,0,1,1.93,3.17c-.11,2.66-3.3,4.49-6,2.08a3.07,3.07,0,0,1-1-1.76l-.13-.77a7.68,7.68,0,0,0-3.15-5,2.44,2.44,0,0,0-1.3-.44,3.85,3.85,0,0,0-4,5.21l.26.65a5.35,5.35,0,0,1,.38,2.27A5.85,5.85,0,0,1,66.66,114l-.35.16a4.49,4.49,0,0,1-6.14-3.34,2.68,2.68,0,0,1,.47-2.19,8.39,8.39,0,0,0,1.52-3.17l.52-2.17A4.42,4.42,0,0,0,57.2,98l-1.59.44A3.23,3.23,0,0,1,52,93.69h0a5.27,5.27,0,0,0,.23-4.78L52,88.43A6.67,6.67,0,0,1,54.67,80a4.93,4.93,0,0,1,4.78-.12h0a4.93,4.93,0,0,1,2.64,4.71,7.24,7.24,0,0,0,2,5.7l3.59,3.6a5.1,5.1,0,0,0,1.24.93,7.09,7.09,0,0,0,9.82-3.23l.81-1.75a1.8,1.8,0,0,0-1.72-2.52,2.28,2.28,0,1,1,.6-4.49l1.52.39a5.33,5.33,0,0,0,6.55-6.33,6.53,6.53,0,0,0-5.52-5,7.13,7.13,0,0,0-4.72,1.06l-3.47,2.21a2.13,2.13,0,0,1-2.87-3l.4-.56A4.19,4.19,0,0,0,71,67.9a3.86,3.86,0,0,0-3.36-2.82,3.9,3.9,0,0,0-3.27,1.31l-.79.91a2.2,2.2,0,0,1-3.76-2.11l.62-1.94a3.32,3.32,0,0,0-5.21-3.62l-.53.41a3.71,3.71,0,0,1-4-.32,3.11,3.11,0,0,1,2.31-5.55l1.83.26A12.54,12.54,0,0,0,62,53.29a3.6,3.6,0,0,0,.56-6.13l-2-1.49a3.9,3.9,0,0,1-1.45-3.84,5.49,5.49,0,0,0-1.28-4.53l-.85-1a6.87,6.87,0,0,0-1.21-1.14,10.82,10.82,0,0,0-14,1L40,38a4.18,4.18,0,0,1-2.66,1.21l-2.61.19a3.85,3.85,0,0,0-3.52,3.8,4.53,4.53,0,0,1-3.59,4.29,5.9,5.9,0,0,0-4.06,8.24,4.27,4.27,0,0,0,1.18,1.49A7.31,7.31,0,0,1,27,61.32l.64,3.61a4.8,4.8,0,0,1,0,2.1A7.39,7.39,0,0,1,18,72.44a9.1,9.1,0,0,1-5.66-6.08l-.75-2.67A3.46,3.46,0,0,1,14,59.32a5,5,0,0,0,3.66-3l4.83-11.9A2.9,2.9,0,0,0,18.09,41l-5.18,4a6.56,6.56,0,0,0-2.45,6.55h0a3.64,3.64,0,0,1-6.11,3.35L4,54.53a79.33,79.33,0,0,0,2.67,56.66,33,33,0,0,0,12.65,5.35,5,5,0,0,1,3.64,3l3.13,7.63A4.28,4.28,0,0,0,30,129.83a9.12,9.12,0,0,1,7.92,5A2.74,2.74,0,0,0,41,136.22h0a2.74,2.74,0,0,0,2.06-2.72L43,129a1.78,1.78,0,0,1,.82-1.55,1.81,1.81,0,0,1,2.51.54l2.12,3.3a2.54,2.54,0,0,0,4.64-1l.66-4.37a4.1,4.1,0,0,1,.3-1.09,6.25,6.25,0,0,1,6.74-3.8,4.45,4.45,0,0,1,3.77,4.36,4.79,4.79,0,0,1-.26,1.54l-1.51,4.22A7.8,7.8,0,0,0,65,139.62a6.81,6.81,0,0,0,10.32-1.72,5,5,0,0,0,.77-2.58l.06-2.36A7.43,7.43,0,0,1,78.08,128.17Z"/><path class="cls-3" d="M135.82,65.47l-1.36-2.56a8.81,8.81,0,0,0-2.57-3,8.24,8.24,0,0,0-7.18-1.3,5.33,5.33,0,0,1-4.17-.43l-.41-.23a6.23,6.23,0,0,1-3-4.67l0-.27a6.66,6.66,0,0,1,.85-4.25,5.8,5.8,0,0,1,6-2.78,11.05,11.05,0,0,1,7.47,5.2,3.81,3.81,0,0,0,3.1,1.84l2.73.12a2.74,2.74,0,0,0,2.39-1.24,2.5,2.5,0,0,1,3.44-.76,2.9,2.9,0,0,1,1.24,2.66,5.9,5.9,0,0,1-1.77,3.9l-.13.12a4.39,4.39,0,0,0-1.35,2.6,4.16,4.16,0,0,0,2.58,4.42h0a4.43,4.43,0,0,0,4.57-.92A4.84,4.84,0,0,0,149.7,61a1.75,1.75,0,0,1,2.21-1.56l5.35,1.71a85.14,85.14,0,0,0-8-21.32,21.2,21.2,0,0,1-4.91,3.29,2.69,2.69,0,0,1-3-.37,2.9,2.9,0,0,1-.07-4.18l4.6-4.46a82.73,82.73,0,0,0-13.13-15.65,19.44,19.44,0,0,0,.39,7.16l.21.85a3.1,3.1,0,0,1-.85,3,2.3,2.3,0,0,1-3.17-.24,2.15,2.15,0,0,0-3,0,4.18,4.18,0,0,0-.9,4.55l.87,2.12a2.79,2.79,0,0,1-.61,3.11,2.42,2.42,0,0,1-3.56-.29,12.2,12.2,0,0,1-2.61-8.4v-.12a2.8,2.8,0,0,0-1-2.33,2.53,2.53,0,0,0-2.3-.48,7.85,7.85,0,0,1-8-2.25L107,23.88a1.73,1.73,0,0,0-2.06-.39A1.92,1.92,0,0,0,104,25.9L106,31.06a4.42,4.42,0,0,1,.11,2.76,4,4,0,0,1-3.9,2.94L100,36.7a4,4,0,0,1-3.59-2.63,5.92,5.92,0,0,0-1.89-2.59l-2.87-2.25A4.5,4.5,0,0,1,90.14,27,4.35,4.35,0,0,0,87.45,24l-.6-.21a4.26,4.26,0,0,1-2.26-5.89,2.83,2.83,0,0,0-.47-3.19l0,0a2.64,2.64,0,0,0-3.35-.44l-.1.07a3,3,0,0,0-1.37,2.4,2.16,2.16,0,0,1-2.64,2.06l-.23-.05a10.74,10.74,0,0,1-7.78-8.46c0-.07,0-.15,0-.22a4.65,4.65,0,0,0-4.1-3.82l-.63-.06a3.37,3.37,0,0,0-2.62.93c-.08.09-.17.17-.26.26a48.05,48.05,0,0,1-10.79,7.83l-.2.1a75.22,75.22,0,0,0-16.67,12L29.48,31a3,3,0,0,0-.66,3.26,2.79,2.79,0,0,0,2.59,1.68h.16a2.67,2.67,0,0,0,1.89-.8l5.46-5.57,1.7-1.71a6.85,6.85,0,0,1,6.44-1.89l.2.05a19.7,19.7,0,0,0,8.09.18l.09,0a2.66,2.66,0,0,0,2.12-2.66v1.67a2.38,2.38,0,0,0-1-1.88A2.27,2.27,0,0,1,56.16,20l2.75-3.31a3.76,3.76,0,0,1,1.81-1.2l.05,0a3.49,3.49,0,0,1,4.35,2.27l0,.09a6.78,6.78,0,0,0,5.26,4.64l1,.18a2.59,2.59,0,0,1,2.1,2,2.48,2.48,0,0,1-2.39,3l-1.42,0a5.5,5.5,0,0,0-5.12,3.75l0,.07a3.4,3.4,0,0,0,.82,3.5h0a3.38,3.38,0,0,1,1,2.29,14.17,14.17,0,0,0,3.26,9l1.84,2.08A10.58,10.58,0,0,1,74,54a4.86,4.86,0,0,1-.32,2.32l-.12.3a5.67,5.67,0,0,0,1.8,6.53l.06.05a5.86,5.86,0,0,0,4.26,1.24l4-.42a5,5,0,0,0,3.91-2.71l0-.07A5.11,5.11,0,0,0,87,55.71c0-.06-.09-.11-.13-.16a6.37,6.37,0,0,1-1.3-5.72l.13-.49a3.36,3.36,0,0,1,3.11-2.52h.07a4,4,0,0,1,3.33,1.51l.23.29a5.2,5.2,0,0,1,1.14,4v.07a5.1,5.1,0,0,0,1.35,4.21l1.87,2a8.94,8.94,0,0,0,5.88,2.76h.13a8.68,8.68,0,0,0,5.78-1.71l.74-.55a3.11,3.11,0,0,1,3.7,0l0,0a3.14,3.14,0,0,1,1.21,3L114,63.92a3.86,3.86,0,0,0,1.08,3.46,3.76,3.76,0,0,0,5.17,0l.18-.18a3.73,3.73,0,0,1,3.27-1,3.55,3.55,0,0,1,2.73,2.7,5.37,5.37,0,0,0,5.2,4.29h-.33a5,5,0,0,0,3.11-1A5.36,5.36,0,0,0,135.82,65.47Z"/><path class="cls-3" d="M124.68,14.29a78.56,78.56,0,0,0-14.42-8l-1.53,2.09a8,8,0,0,0,4.42,12.42l.15,0a14.71,14.71,0,0,1,5.74,3,4.81,4.81,0,0,0,4.65.87,3.87,3.87,0,0,0,.64-7,1.73,1.73,0,0,1-.24-2.87Z"/><circle class="cls-3" cx="31.95" cy="94.43" r="14.14" transform="translate(-67.53 100.92) rotate(-75.04)"/><path class="cls-4" d="M25.68,101.58a14.1,14.1,0,0,1,7.58-21.22,14.14,14.14,0,1,0,3,27.55A14.13,14.13,0,0,1,25.68,101.58Z"/><path class="cls-2" d="M32,109.22a14.79,14.79,0,1,1,8.09-2.42A14.74,14.74,0,0,1,32,109.22Zm0-28.29A13.51,13.51,0,1,0,43.24,87,13.41,13.41,0,0,0,31.93,80.93Z"/><path class="cls-3" d="M76.44,136.24a5.31,5.31,0,1,1,7.33-1.62A5.31,5.31,0,0,1,76.44,136.24Z"/><path class="cls-4" d="M83.77,134.62a5.28,5.28,0,0,0,.4-5,5.25,5.25,0,0,1-.69,1.69,5.32,5.32,0,0,1-9.35-.74,5.3,5.3,0,0,0,9.64,4Z"/><path class="cls-2" d="M79.29,137.72a6,6,0,0,1,0-11.91,6,6,0,0,1,5.81,4.67,5.95,5.95,0,0,1-5.82,7.24Zm0-10.62a4.67,4.67,0,1,0,3.93,7.17,4.67,4.67,0,0,0-1.42-6.44A4.67,4.67,0,0,0,79.3,127.1Z"/><path class="cls-3" d="M146.06,87.16a6.86,6.86,0,1,1,.58-9.68A6.85,6.85,0,0,1,146.06,87.16Z"/><path class="cls-4" d="M146.64,77.48a6.83,6.83,0,0,0-6.86-2.06,6.84,6.84,0,0,1,1.49,11.26,6.92,6.92,0,0,1-2.82,1.48,6.85,6.85,0,0,0,8.19-10.68Z"/><path class="cls-2" d="M141.51,89.53a7.5,7.5,0,1,1,5-1.89A7.49,7.49,0,0,1,141.51,89.53Zm0-13.72a6.2,6.2,0,0,0-6.2,5.84,6.21,6.21,0,1,0,6.2-5.84Z"/><circle class="cls-3" cx="96.61" cy="142.17" r="7.29"/><path class="cls-4" d="M96.91,146a7.28,7.28,0,0,1-7.18-6.16,7.27,7.27,0,1,0,14.17,2.3,8.32,8.32,0,0,0-.11-1.13A7.27,7.27,0,0,1,96.91,146Z"/><path class="cls-2" d="M96.61,150.1a7.93,7.93,0,1,1,7.93-7.93A7.94,7.94,0,0,1,96.61,150.1Zm0-14.57a6.64,6.64,0,1,0,6.65,6.64A6.65,6.65,0,0,0,96.61,135.53Z"/><circle class="cls-3" cx="60.05" cy="21.04" r="5.57"/><path class="cls-4" d="M60.69,18.9a5.53,5.53,0,0,1,4.85,2.89,4.65,4.65,0,0,0,.08-.75,5.57,5.57,0,1,0-10.43,2.69A5.57,5.57,0,0,1,60.69,18.9Z"/><path class="cls-2" d="M60.05,27.26A6.22,6.22,0,1,1,66.26,21,6.23,6.23,0,0,1,60.05,27.26Zm0-11.14A4.93,4.93,0,1,0,65,21,4.93,4.93,0,0,0,60.05,16.12Z"/><path class="cls-3" d="M27.69,64.32A8.28,8.28,0,1,1,19.41,56,8.28,8.28,0,0,1,27.69,64.32Z"/><path class="cls-4" d="M15.06,64.45a8.27,8.27,0,0,1,6.54-8.08A8,8,0,0,0,19.41,56a8.28,8.28,0,0,0,0,16.56,8.46,8.46,0,0,0,1.75-.2A8.25,8.25,0,0,1,15.06,64.45Z"/><path class="cls-2" d="M19.41,73.24a8.93,8.93,0,1,1,8.92-8.92A8.93,8.93,0,0,1,19.41,73.24Zm0-16.56A7.64,7.64,0,1,0,27,64.32,7.65,7.65,0,0,0,19.41,56.68Z"/><circle class="cls-3" cx="112.76" cy="129.83" r="5.57"/><path class="cls-4" d="M116,125.28a5.91,5.91,0,0,1,.11,1.12,5.56,5.56,0,0,1-8.78,4.54,5.57,5.57,0,1,0,8.67-5.66Z"/><path class="cls-2" d="M112.76,136a6.22,6.22,0,1,1,6.21-6.22A6.23,6.23,0,0,1,112.76,136Zm0-11.14a4.93,4.93,0,1,0,4.92,4.92A4.93,4.93,0,0,0,112.76,124.9Z"/><path class="cls-3" d="M145.79,52.6a5.14,5.14,0,1,1-7.13-1.43A5.13,5.13,0,0,1,145.79,52.6Z"/><path class="cls-4" d="M138.66,51.17a5.55,5.55,0,0,0-.75.61,5.14,5.14,0,0,1,5.59,8.41,4.74,4.74,0,0,0,.86-.46,5.14,5.14,0,1,0-5.7-8.56Z"/><path class="cls-2" d="M141.52,61.24a5.79,5.79,0,1,1,4.81-9,5.73,5.73,0,0,1,.86,4.34,5.79,5.79,0,0,1-5.67,4.65Zm0-10.29A4.5,4.5,0,1,0,144,59.2,4.51,4.51,0,0,0,145.26,53,4.5,4.5,0,0,0,141.51,51Z"/><path class="cls-3" d="M54.73,89.24a5.15,5.15,0,1,1,6.39-3.48A5.16,5.16,0,0,1,54.73,89.24Z"/><path class="cls-4" d="M60.05,87.68a5.07,5.07,0,0,1-1.68-.18,5.14,5.14,0,0,1-3.47-6.39A5,5,0,0,1,56,79.19a5.13,5.13,0,1,0,4.08,8.49Z"/><path class="cls-2" d="M56.19,90.09A5.78,5.78,0,1,1,61.73,86,5.78,5.78,0,0,1,56.19,90.09Zm0-10.29a4.52,4.52,0,1,0,1.27.19A4.25,4.25,0,0,0,56.19,79.8Z"/><path class="cls-3" d="M130.05,54.22a7.94,7.94,0,1,1-4.9-10.11A8,8,0,0,1,130.05,54.22Z"/><path class="cls-4" d="M125.15,44.11a7.93,7.93,0,0,0-7.37,1.15,7.65,7.65,0,0,1,2.7.41,7.94,7.94,0,0,1,2.16,13.86,7.93,7.93,0,0,0,2.51-15.42Z"/><path class="cls-2" d="M122.55,60.2a8.48,8.48,0,0,1-2.82-.48,8.57,8.57,0,1,1,2.82.48Zm0-15.89a7.31,7.31,0,1,0,2.39.41A7.3,7.3,0,0,0,122.55,44.31Z"/><path class="cls-5" d="M108.18,7.86A79.26,79.26,0,0,1,44.61,148.1,77.05,77.05,0,1,0,108.18,7.86Z"/><path class="cls-6" d="M82.44,0a79.3,79.3,0,1,1,0,158.59Z"/></g></g></g></svg>