<svg xmlns="http://www.w3.org/2000/svg" viewBox="0 0 123.93 269.83"><defs><style>.cls-1{fill:#e6bfd9;}.cls-1,.cls-10,.cls-100,.cls-101,.cls-102,.cls-103,.cls-104,.cls-11,.cls-12,.cls-13,.cls-14,.cls-15,.cls-16,.cls-17,.cls-18,.cls-19,.cls-2,.cls-20,.cls-21,.cls-22,.cls-23,.cls-24,.cls-25,.cls-26,.cls-27,.cls-28,.cls-29,.cls-3,.cls-30,.cls-31,.cls-32,.cls-33,.cls-34,.cls-35,.cls-36,.cls-37,.cls-38,.cls-39,.cls-4,.cls-40,.cls-41,.cls-42,.cls-43,.cls-44,.cls-45,.cls-46,.cls-47,.cls-48,.cls-49,.cls-5,.cls-50,.cls-51,.cls-52,.cls-53,.cls-54,.cls-55,.cls-56,.cls-57,.cls-58,.cls-59,.cls-6,.cls-60,.cls-61,.cls-62,.cls-63,.cls-64,.cls-65,.cls-66,.cls-67,.cls-68,.cls-69,.cls-7,.cls-70,.cls-71,.cls-72,.cls-73,.cls-74,.cls-75,.cls-76,.cls-77,.cls-78,.cls-79,.cls-8,.cls-80,.cls-81,.cls-82,.cls-83,.cls-84,.cls-85,.cls-86,.cls-87,.cls-88,.cls-89,.cls-9,.cls-90,.cls-91,.cls-92,.cls-93,.cls-94,.cls-95,.cls-96,.cls-97,.cls-98,.cls-99{fill-rule:evenodd;}.cls-2{fill:#e7bebd;}.cls-3{fill:#fdfbfc;}.cls-4{fill:#e9d6e9;}.cls-5{fill:#f8ebeb;}.cls-6{fill:#fdfbfd;}.cls-7{fill:#f5e3e2;}.cls-8{fill:#ebd8dd;}.cls-9{fill:#fbf7f8;}.cls-10{fill:#f9f3f5;}.cls-11{fill:#f2e0ed;}.cls-12{fill:#efd4d3;}.cls-13{fill:#ecdae0;}.cls-14{fill:#fbf9fc;}.cls-15{fill:#ecdfe3;}.cls-16{fill:#f4e6f1;}.cls-17{fill:#fbf1f0;}.cls-18{fill:#fbf5f9;}.cls-19{fill:#f9f3f8;}.cls-20{fill:#f8f2f3;}.cls-21{fill:#ebc8c6;}.cls-22{fill:#eccaca;}.cls-23{fill:#fbf6f6;}.cls-24{fill:#ecd2e6;}.cls-25{fill:#f7ebef;}.cls-26{fill:#f2e0ee;}.cls-27{fill:#ddbedb;}.cls-28{fill:#e9c9e0;}.cls-29{fill:#e8c7df;}.cls-30{fill:#f0daea;}.cls-31{fill:#ebd1e4;}.cls-32{fill:#f3e1ed;}.cls-33{fill:#f5e6f1;}.cls-34{fill:#dabbc4;}.cls-35{fill:#eac7c5;}.cls-36{fill:#edcccc;}.cls-37{fill:#f5eff1;}.cls-38{fill:#f3eaf4;}.cls-39{fill:#ecdfee;}.cls-40{fill:#e2cce2;}.cls-41{fill:#f2dcdb;}.cls-42{fill:#f4e2e4;}.cls-43{fill:#f2dfe0;}.cls-44{fill:#f2e7e9;}.cls-45{fill:#efdde4;}.cls-46{fill:#efd2d2;}.cls-47{fill:#dfc1c8;}.cls-48{fill:#f0e2e6;}.cls-49{fill:#f8f3f5;}.cls-50{fill:#f4e5ef;}.cls-51{fill:#f4e4ef;}.cls-52{fill:#efd6e8;}.cls-53{fill:#f1ddea;}.cls-54{fill:#eaddeb;}.cls-55{fill:#efdbeb;}.cls-56{fill:#dfbdc7;}.cls-57{fill:#dfc7e0;}.cls-58{fill:#e7c7d0;}.cls-59{fill:#e6c7d1;}.cls-60{fill:#e5cce2;}.cls-61{fill:#e9d2e2;}.cls-62{fill:#ebd5e0;}.cls-63{fill:#e9daea;}.cls-64{fill:#e3cee3;}.cls-65{fill:#edd4e7;}.cls-66{fill:#e0c6ce;}.cls-67{fill:#e1bdc0;}.cls-68{fill:#ead1d4;}.cls-69{fill:#f1e6e9;}.cls-70{fill:#fbf6f8;}.cls-71{fill:#f4ecf3;}.cls-72{fill:#efe2e7;}.cls-73{fill:#e7d2d8;}.cls-74{fill:#ebd1d3;}.cls-75{fill:#eedbdd;}.cls-76{fill:#f6eaed;}.cls-77{fill:#e4cdd5;}.cls-78{fill:#f8f2f4;}.cls-79{fill:#f0e5e9;}.cls-80{fill:#eee1e6;}.cls-81{fill:#f5eeef;}.cls-82{fill:#e5d1d8;}.cls-83{fill:#dabcc7;}.cls-84{fill:#e9d6dc;}.cls-85{fill:#eddde1;}.cls-86{fill:#ecdde2;}.cls-87{fill:#e9d8de;}.cls-88{fill:#eddde2;}.cls-89{fill:#e6d2d9;}.cls-90{fill:#e4d1e6;}.cls-91{fill:#f5e9ec;}.cls-92{fill:#e6c9cb;}.cls-93{fill:#f6ebed;}.cls-94{fill:#f4e7eb;}.cls-95{fill:#e7d3da;}.cls-96{fill:#e1c9d0;}.cls-97{fill:#f2e2e4;}.cls-98{fill:#eddfe4;}.cls-99{fill:#ddc4cd;}.cls-100{fill:#e7d5dc;}.cls-101{fill:#e7d3d9;}.cls-102{fill:#e4cfd6;}.cls-103{fill:#e2cbd3;}.cls-104{fill:#f3eaec;}</style></defs><title>Asset 7</title><g id="Layer_2" data-name="Layer 2"><g id="Objects"><path class="cls-1" d="M96.15,265.15c-3.85-1.34-7.66-2.79-11.55-4a51.92,51.92,0,0,1-9.44-4.07,13.17,13.17,0,0,0-1-1h0a4.94,4.94,0,0,0-4-2h0c-1.56-1.54-1.16-4-2.63-5.57-2.39-3.16-4.55-6.53-8-8.72-1.84-1.17-2.36-2.86-2.8-4.93-.67-3.15-.1-6.61-2.56-9.42-1.26-1.45-.29-2.84,1.64-3.09,1.16-.16,2.38,0,2.45-1.71.8-2.65,3.14-4.42,4-7.06,1-1.1.43-3.69,2.85-3.36,1.34.18,3,7.06,2.17,8.58-2.51,4.87-2.19,6.62,2,10.62,2.4,2.27,1.46,4.52-.06,6.66s-2.9,1.9-4.19-.88c1.16,3.81,1.3,4,3.91,2.18,2.8-2,4.4-1.79,4.12,1.88-.36,4.59,3.28,1.74,4.77,2.82a77.27,77.27,0,0,1,9.74,4.92,4.14,4.14,0,0,1,.91,1,2.44,2.44,0,0,1,.15,1.31c-.29.94-1.3,1.08-1.84,1.72a12,12,0,0,0-.08,1.69c0,.42.12.49.42.14a1.81,1.81,0,0,1,1.08,0c1.34.66,2,2,3,3,2.12,2.63,5.53,2.51,8.24,3.87,1.4,1.13,1.44,2.82,1.76,4.36.62,3-1,2.85-3,2h0C97.63,265.51,96.69,265.74,96.15,265.15Z"/><path class="cls-2" d="M93.14,7c2-1.69,4.62-1.51,6.87-2.4A22.21,22.21,0,0,1,109.16,3a1.76,1.76,0,0,1,2.81.73c.67,1.15-.31,1.7-1,2.33-2.1,1.86-4.23,3.61-7.33,2.47-3.66-.36-6.36.46-7.46,4.61-.56,2.07-1.67,4.56-4.85,3.59a1.93,1.93,0,0,0-2.48,1.07c-1.72,3.68-5.53,4.48-8.51,6.41a9.69,9.69,0,0,1-1.23.56c-1,.36-2.11.61-3.1,1.06-2.27,3.72-5.8,6.4-8.27,9.95-4.92-1.84-5.65,3.27-8.39,5-2,1.3-2.49,3.35-3.09,5.4a2.6,2.6,0,0,1-2.09.29c-2.74-1.44-6.26-1.38-8.28-4.25-1.18-3.84.19-6.47,3.36-8.9,6.15-4.72,12-9.78,18.41-14.22a35.61,35.61,0,0,0,11.32-6.57C84.57,13,88.8,9.83,93.14,7Z"/><path class="cls-3" d="M72.15,123.08c.53,1,.83,2.4,2,2.77,1.79.57,1.88,1.46,1.28,3-.52,1.31,0,2.51.7,3.75,1.47,2.55,1.17,3.31-1.36,4.66a13.41,13.41,0,0,1-1.83.78c-.45.16-.92.28-1,.94.33.86,1.19.89,2,1.13,2.14.65,3.2,3.22,1.53,4.41-2.45,1.73-2.06,4.86-4.09,6.62-.43,3-.64,6,1.18,8.66a7,7,0,0,0,1.66,1.85c1.78,1.23,1.15,2.87.92,4.46-3-1.16-6.61-1.16-8.59-4.36-.7-1.54-.76-3.24-1.23-4.84-.31-3.9.46-7.74.52-11.62,0-1.17,0-2.33-.14-3.49-.71-7,2.53-12.82,5.52-18.72C71.34,122.84,71.82,122.93,72.15,123.08Z"/><path class="cls-4" d="M63.11,250.17c-3.94-1.86-7.18-4.76-10.68-7.29-7.06-5.1-12.92-11.53-18.74-17.9a94,94,0,0,1-13.42-18.5,14.56,14.56,0,0,0-1-1.7,51.22,51.22,0,0,1-7.09-13.67,1.87,1.87,0,0,1,2-.44c4,5.07,6.8,10.83,9.83,16.46.25.39.48.79.72,1.18.13.19.24.39.37.58,3.52,6.12,8.41,11.2,12.8,16.65,1.44,1.5,2.57,3.37,4.9,4.23,1.53-1.87-.36-3.69-.06-5.46a7,7,0,0,1,2.3-3.42,1.7,1.7,0,0,1,1.32.16c1,1.67.55,4,2.6,5.18a3.76,3.76,0,0,1,.71,1.14c.25,2.86,2.3,3.9,4.67,4.61a1.87,1.87,0,0,1-.72,2.79c-.3.29-.72.48-.77,1a2,2,0,0,1,.95-1c.7-.16,1.64-.08,1.8.45,1.58,4.85,5.78,7.87,8.32,12a2,2,0,0,1-.18,2.69Z"/><path class="cls-5" d="M94.18,32.06c-.6.76-1.16,1.56-1.81,2.27a3.85,3.85,0,0,0-1.19,3.09c.37,3.27-1.57,5.1-4,6.63-.65,2.08-.85,4.31-4.23,3.64-1.7-.33-.32,1.33-.4,2.07a3.12,3.12,0,0,1,0,1.36,9.61,9.61,0,0,1-1.79,2.08c-.33.36-.9.68-1,1.07-.47,4-3.09,6.87-5.32,9.93,0,.68-.11,1.36-.19,2-.39,5.79-2.46,11.05-5.16,16.1a2.38,2.38,0,0,1-2.13.1c-2.07-1.58-2.35-3.76-2.07-6.13.68-1.39,2-2.1,3.21-2.91s2.39-2.41,1.64-3.17c-2.63-2.68-.12-6.37-2.2-9,.58-4.37,4.35-7.18,5.5-11.27.66-4.12,4.28-5.75,6.9-8.22.21-.37.45-.72.68-1.08.77-1,.77-2.38,1.83-3.19,1.4-.82,3.08-1,4.43-1.93A1.72,1.72,0,0,0,87.19,34a2.74,2.74,0,0,1-.06-1.83C89.48,31.68,91.82,30.93,94.18,32.06Z"/><path class="cls-6" d="M76.15,172.09c-.3.92-1.14,1.74-.55,2.8a4.43,4.43,0,0,0,1.14,1.58c.63.42,1.15-.24,1.71-.57,1.07-.63,1.34.18,1.68,1,.91,2.21,1.08,2.23,2.31.55.1-.13.16-.29.26-.42.35-.5.48-1.25,1.35-1.15.54.05,1.2,1.37,1,2.08a4.94,4.94,0,0,1-1,2.21c-1.59,1.29-1.45,2.73-.89,4.39a1.57,1.57,0,0,1-.48,1.79c-2-.69-3.44-1.73-3.62-4.13a2.71,2.71,0,0,0-2.38-2.41,23.44,23.44,0,0,1-2.52,6.47c2.42,1.14,4.55,2.06,6.08,3.84-1,1-.41,2-.05,3a2.54,2.54,0,0,1-1.22,3.52,4,4,0,0,1-5.08-2.08c-1.46-3.25-4.18-5.87-4.54-9.71-.22-2.34-.42-4.7-3.43-6-2.46-1.09-.88-3,.65-4.25,2.08-1.5,1.29-3.54,1-5.49a4.22,4.22,0,0,1,.11-1.37c2-2.33,4.12-4.19,5,.7C73,170.61,74.91,170.93,76.15,172.09Z"/><path class="cls-7" d="M94.18,32.06c-.63,0-1.44-.16-1.85.16-1.22,1-2.26,1.46-3.63.22-.49-.44-1.17,0-1.54.6l-.6.29-.65-.16c-.2-.12-.38-.25-.58-.36a7.57,7.57,0,0,0-4.22-1.15c-5.22-.45-5.22-.41-3-5.57.13-.3.2-.62.3-.93a4,4,0,0,1,.79-1.11h0c6.81-2.65,13.29-5.85,18.5-11.15a3.48,3.48,0,0,1,2.13-1.12,1.81,1.81,0,0,1,1,1,3.19,3.19,0,0,1-.1,2.11c-.72,1.17-1.5,2.31-2.23,3.48-2.13,2.93-4.62,5.8-1.67,9.6a3.26,3.26,0,0,1,.69,1.14c-.07,1.54-1.93,1.65-2.35,2.93Z"/><path class="cls-8" d="M5.08,101a90,90,0,0,1,3.76-13.3,128.55,128.55,0,0,1,12.21-24.3,139.22,139.22,0,0,1,9.72-13.69c2.87-3.45,5.91-6.68,9-9.87A26,26,0,0,1,42.09,38a2.35,2.35,0,0,1,1.66,2.16,11.19,11.19,0,0,1-6.94,8.43c-5.87,3.93-9.26,9.74-12.11,16-.49,2.2-.62,4.6-3,5.79-1.4-.66-1.49.58-1.91,1.33a105.09,105.09,0,0,0-7.52,16.48,13.06,13.06,0,0,1-.48,1.32c-.23.67-.46,1.35-.67,2C9,95.64,9.58,100.88,5.75,104.3,4.1,103.5,4.54,102.26,5.08,101Z"/><path class="cls-9" d="M80.15,61.05a18.75,18.75,0,0,1,2,.05c1.46.2,1.78.54,1,1.84s-.12,1.7.37,2.59a1.76,1.76,0,0,1-1.1,2.64c-1.94.14-2.54.5-2.59,1.75a16.64,16.64,0,0,0,.23,2.42c.14,1.26,0,2.34-1.48,2.74-1.18.33-1.32,1.34-1.61,2.29-.21.69-.26,1.29.54,1.63a3.38,3.38,0,0,1,.91.39c3,2.45,2.75,3.88-1,5.28-.86.32-1,.55-.71,1.29a2.7,2.7,0,0,0,.29.4c.64.91,2.29,1.67,1.67,2.78-.87,1.56-2.3-.38-3.52-.07-1.26,1.51.8,3.53-.76,5A1.42,1.42,0,0,1,73,94c-.1-.12-.28-.24-.3-.38-.74-8-1.6-16,1.73-23.62a13.25,13.25,0,0,0,.7-4.84c.12-2.49,1.2-4,3.69-4.48A1.56,1.56,0,0,1,80.15,61.05Z"/><path class="cls-10" d="M72.15,123.08c-1.05.68-1.9,1.91-1.64,2.86.52,1.89-.62,3-1.18,4.41s-3.55,2.69-1.15,5c.31.3-.5.58-.83.86-1.84,1.54-2,1.72-1,3.58s.63,3.52.76,5.3a.94.94,0,0,1-1.19.14c-1.33-2.85-3.28-.42-4.93-.56-1.45-.41-2.83-1.6-1.89-2.78,3.65-4.59,2.07-10.14,3.24-15.15,0-1.21,2.69-.65,1.61-2.73s-.45-3.87,1.26-5.32c2.17-1.85,4-.15,5.89.64a3.91,3.91,0,0,1,1.21.6.81.81,0,0,1-.19,1.15Z"/><path class="cls-9" d="M116.15,1c1.95-1.22,4.11-1.11,6.27-.93.89.07,1.55.51,1.51,1.55,0,.82-.62,1.12-1.28,1.26a9.17,9.17,0,0,1-1.49.11c-.42.47-.8-.07-1.21-.06.26.51.83.66,1.2,1-.22.23-.43.49-.67.7-1,.83-2.62-.85-3.11.47-.91,2.4-4,2.9-4.38,5.76a3.26,3.26,0,0,1-3.23,3.18,1.65,1.65,0,0,0-1.47,1.14c-1,2.38-3.21,3.13-5.31,4.17-.34,1.45.67,2.38,1.42,3.41a1.54,1.54,0,0,1,0,2.21c-.54.57-1.15.44-1.81.23a11.4,11.4,0,0,0-1.46-.24c-3-2.27-4.82-4.66-.94-7.79,1.29-1,.36-2.45.48-3.68a1.19,1.19,0,0,1,.75-.91,2.53,2.53,0,0,1,1.16.15c.16.07.34.15.51.21a1.39,1.39,0,0,0,1.77-.7c1-1.93,2.11-3.53,4.39-4.38C112.49,6.73,114.05,3.55,116.15,1Z"/><path class="cls-11" d="M98.16,266.14a14.33,14.33,0,0,0,1.47-.07c.5-.08,1.18-.47.73-.89-1.58-1.46-.17-3.53-1.2-5.05-.94-.93-2-1.75-2.29-3.18a1.47,1.47,0,0,1,.48-1.2,3.08,3.08,0,0,1,2-.34,4.63,4.63,0,0,1,1.85.87,5.81,5.81,0,0,1,1,1c.69,1.45,2,1.3,3.28,1.3,2,0,3.75.64,4.72,2.6.21,1.11-1,2.19-.1,3.31s1.24,2.41,2.92,2.23c1.4,1.61,4,1.19,5.55,3.14-3.63-.18-6.9-.24-10.2-1.38-2.82-1-5.8-2.28-9-1.48C99,267.05,98.54,266.43,98.16,266.14Z"/><path class="cls-12" d="M43.15,40.1,42.09,38a66.05,66.05,0,0,1,8.45-8.27c4.26-3.71,9.27-6.3,13.54-9.95a6.94,6.94,0,0,1,4-1.75,1.37,1.37,0,0,1,0,2Q58,28,47.92,35.87c-1.07.84-2,1.8-1.21,3.37.54,1.06-.25,1.9-.55,2.81.26,1.89-1.2,2.38-2.36,2.05C41.18,43.35,44.1,41.34,43.15,40.1Z"/><path class="cls-13" d="M14.12,191.11h-2a36,36,0,0,1-3-7.86c-1.12-4-2.56-7.85-3.74-11.81-1.37-4.6-2.69-9.22-3.88-13.86-.79-3.09-.25-6.29-.39-9.43-.36-2.48-1.51-5,.71-7.26,2.26,1.7,2.38,4.4,2.39,6.7,0,7.2,2.39,13.88,3.94,20.74a49.1,49.1,0,0,0,1.93,7.52C11.43,180.93,14.67,185.52,14.12,191.11Z"/><path class="cls-14" d="M96.16,229.12a2.09,2.09,0,0,1-1,2c-1.93-.38-3.3,3.47-5.55.74-1-2.9.39-6-.65-8.85-.59-.45.69-2.37-1.35-1.63-2.9.3-3.84-.49-3.84-3.29,0-1.93,1.23-3.73.64-5.74a4.36,4.36,0,0,1,.24-2.74l.5-.51c1.36,0,2.59.07,3.09,1.78a20.1,20.1,0,0,1,1,4.82c.1,2.23.6,2.69,3.13,2.71,1.41,0,2.56.25,2.15,1.76s2,2.21,1,3.49c-.85,1-.68,2.16-1,3.21C93.88,228.35,94.76,229,96.16,229.12Z"/><path class="cls-15" d="M2.11,141.09a2.57,2.57,0,0,0-1,2.14c0,1.64,0,3.28,0,4.92-1.16-1-1-2.4-1-3.7,0-5.14-.32-10.3.06-15.41.7-9.19,1.73-18.36,4.28-27.27.08-.29.4-.51.61-.76.09,1.1-.16,2.31,1,3.06A2.89,2.89,0,0,1,7,106.81C4.59,117.4,4.3,128.22,3.28,139A3.27,3.27,0,0,1,2.11,141.09Z"/><path class="cls-16" d="M95.16,243.12h1c1.78-.51,1.54,2,3,2h1c.51,3.1.43,6.21,3.11,8.77,1.61,1.54.69,2.71-2.11,3.23h0a4.48,4.48,0,0,0-4.35-2.62c-1.65-1.8-2.11-4.77-5.48-4.85-1.75,0-1.52-1.88-1.65-3.17-.72-3.74-4.45-4.79-6.53-7.32a18.81,18.81,0,0,1-1.35-1.47,5.64,5.64,0,0,1-1-1.72c-.21-1,0-1.81,1.07-2.17a3,3,0,0,1,1.3.41,52,52,0,0,0,10,7.14,4,4,0,0,1,1.07.76h0C94.47,242.48,94.84,242.78,95.16,243.12Z"/><path class="cls-17" d="M101.17,13a4.82,4.82,0,0,0,.8,2.3c1.07,1.79,1,1.81-.71,2.78a14.91,14.91,0,0,0-1.66,1c-1,.77-1.12,1.46-.27,2.49s1.88,1.9,1.83,3.39c-.09,1.25.75,2.09,1.32,3.06.27.47,0,1.24-.37,1.19-2.85-.36-4.62,1.91-7,2.74-.16-1.56,1.43-1.94,2-3a6.88,6.88,0,0,0,.54-.54,6.88,6.88,0,0,0-.54.54l-1.77-.82C93,27.15,92.71,26.84,94,24.8a8.17,8.17,0,0,0,1.18-4.12c.14-1.75,1.27-2.53,2.94-2.65.69-1,.66-2.45,2-3,0-.67,0-1.33,0-2A.6.6,0,0,1,101.17,13Z"/><path class="cls-14" d="M79.15,196.1a2.66,2.66,0,0,0,0-3c1-.38,2.26-.42,2-2,2.33-.59,2.48-.51,2.34,1.31s-.12,1.68,1.73,1.34a1.43,1.43,0,0,1,1.7,1.26c0,2.71-1.45,4.92-2.61,7.21-.19.36-1.2.26-1.8.45s-.9.93-.58,1.09c2.25,1.12,2.21,3.54,3.24,5.34h0c-1.36,1.29-1.06,3.84-3.34,4.43-1.45.2-2.49-.57-2.33-1.88.58-5-1.64-9.86-.47-14.85Z"/><path class="cls-18" d="M101.15,257.13c.64-.11,1.33-.15,1.67-.8a2.05,2.05,0,0,0-.34-2.25,6.5,6.5,0,0,0-3.15-2.15,1.48,1.48,0,0,1-.75-2.36c.86-1.38,1.83-2.68,1.57-4.44,1.59,2,2.91,4.36,4.84,6s2.45,2.88,1.49,5c-.1.24.36.92.72,1.13.58.35.81-.21,1-.67a1.82,1.82,0,0,1,.2-.45c.46-.64,1.13-.9,1.49-.08.71,1.62,1.58,3.32.27,5.08a16.6,16.6,0,0,0-5.94-1.7c-2-.11-2,0-2.63-1.41C101.45,257.73,101.3,257.43,101.15,257.13Z"/><path class="cls-7" d="M101.17,13h-1c0-.33,0-.66,0-1,.75-1.83-.07-4.6,3-5,.8.22,1.61.41,2.4.66,1.06.33,2.08.33,2.44-.89A2.45,2.45,0,0,1,110.62,5c.51,0,.92-.38.7-1a1.3,1.3,0,0,0-.72-.64A9.76,9.76,0,0,0,109.16,3c1.86-2.32,4.48-1.95,7-2,.28.76.95,1.69.12,2.27-1.73,1.21-2.72,3.11-4.43,4.35-.94.68-1.13,2.45-3,1.54a1.14,1.14,0,0,0-1.5,1c-.27,1.58-1.58,2.52-2.19,3.88a1.4,1.4,0,0,1-2,0h0c-.3-.36-.67-.66-1-1Z"/><path class="cls-3" d="M74.15,94.07c.24-1.69-.65-3.6,1-5-.05,1.48.93,2.4,1.84,3.37.63.68.85,1.45,0,2.11s-1.92,1.16-1.23,2.74,1.89,1.47,3.22,1.17c.13,0,.29.09.43.14.45.48.2.88-.1,1.3-2.71,3.75-2.94,6-.91,10.38a2.36,2.36,0,0,1,.2,1.86c-.66,2-1,4.14-3.15,5.41a11.65,11.65,0,0,0-2.29,2.53l-.48-.63a3.39,3.39,0,0,1,.08-3.37c3.46-5,1.78-10.17.88-15.37C73.25,98.47,72.25,96.15,74.15,94.07Z"/><path class="cls-19" d="M90.16,232.12a13.76,13.76,0,0,0,1.44-.05c.82-.09,1.14-.48.66-1.27-.23-.38-.66-.86-.24-1.2a1.48,1.48,0,0,1,1.26.13,18.46,18.46,0,0,1,1.89,1.4,3.68,3.68,0,0,0,1.22,2.57c2.25,2.23,2.21,2.26-.13,4.41-.72.66-1.4,1.35-2.09,2l-.5-.27a5.58,5.58,0,0,0-2.24-.5c-1.69-.74-2.11-4.07-5.11-2.27-.68.4-1.55-1-2-1.93C85,230.43,85.41,230.23,90.16,232.12Z"/><path class="cls-20" d="M76.15,172.09c-2.42.18-4.13-.8-4.86-3.14-.8-2.58-.74-2.59-3.17-.82-2.12,1.07-2.58-.27-2.6-1.91,0-1.3.75-2.43,1.22-3.62.14-.18.29-.35.43-.52,1.59.14,2.64,1.63,4.52,1.44,1.47-.15,2.34,1.63,3.46,2.58v1c-.38.29-.64.69-1,1a2.47,2.47,0,0,0,1,2A2.49,2.49,0,0,1,76.15,172.09Z"/><path class="cls-21" d="M93.14,7c-.62.75-1.53,1.41-1.82,2.27-.6,1.84-1.38,2.83-3.56,2.41a3.74,3.74,0,0,0-2.66,1.09c-2,1.75-3.91,1.45-5.95.3-.34-.23-.45-.45-.34-.67S79,12,79.15,12c3.69-1.6,7.25-3.52,11.15-4.58C91.22,7.21,92.19,7.13,93.14,7Z"/><path class="cls-22" d="M79.15,12v1a15.05,15.05,0,0,1-8.72,6.05,22.42,22.42,0,0,0-2.28.95c0-.68,0-1.36,0-2h0c.35-.3.69-.61,1-.93C72.57,15.57,75.57,13.22,79.15,12Z"/><path class="cls-23" d="M82.15,50.05c-1.24-.63-2.11-1.48-1.81-3a1.69,1.69,0,0,1,2.49-1.26c2.33,1.21,2.33,1.2,3.66-1a3.54,3.54,0,0,1,.67-.67c0,2.05.22,4.15-1,6C84.82,51.15,83.48,50,82.15,50.05Z"/><path class="cls-24" d="M68.15,248.12a3.15,3.15,0,0,1,2,3.09c0,1,0,1.95,0,2.93a11.57,11.57,0,0,1-6-3c.12-.19.24-.37.36-.57C65.76,249.83,66.17,247.8,68.15,248.12Z"/><path class="cls-14" d="M94.33,211.84c.11,0-.33.06-.48-.13a40.9,40.9,0,0,1-2.48-3.54,1.83,1.83,0,0,1,.3-1.83c.33-.57,1.38-.84,1.63-.35.86,1.69,1.7,3.39,2.42,5.15C95.86,211.49,95.35,212,94.33,211.84Z"/><path class="cls-23" d="M80.15,52.05l2-1a1.34,1.34,0,0,1,0,2v3c-1,.78,0,2.24-1,3a1.09,1.09,0,0,1-1.32.14C75.89,56.63,79.17,54.39,80.15,52.05Z"/><path class="cls-19" d="M99.17,245.12c-1.15.58-2,.57-2.18-1,0-.37-.55-.67-.83-1l1.54-3.42c2.65,1.3,2.77,1.38,1.55,3.25A2.14,2.14,0,0,0,99.17,245.12Z"/><path class="cls-18" d="M112,252a3.45,3.45,0,0,1-.84.88,1.31,1.31,0,0,1-1.72-.5c-.51-.77-1.3-1.56-.65-2.62a1.08,1.08,0,0,1,.82-.4A2.3,2.3,0,0,1,112,252Z"/><path class="cls-9" d="M82.15,53.05v-3c.55-1,1-2.11,2.33-.66.37.4,1.11.45,1.67.66C85.43,51.86,83.61,52.22,82.15,53.05Z"/><path class="cls-25" d="M81.14,191.11c.28.6.6,1.18.83,1.8.17.47.25,1-.27,1.32-.14.08-.49-.29-.77-.4-.58-.25-1.18-.48-1.78-.71-1.34-2-1.25-2.23,1-3Z"/><path class="cls-14" d="M94,215.57c0,.65-.33,1.05-.86,1.12-.93.12-1.69-.7-1.85-1.89-.1-.68.54-1.44,1.1-1.3A2,2,0,0,1,94,215.57Z"/><path class="cls-24" d="M70.14,254.14c3-1.12,3.12-1,4,2A5.56,5.56,0,0,1,70.14,254.14Z"/><path class="cls-26" d="M119,264.62c-.11.71-.38,1.09-.94,1a.92.92,0,0,1-.78-1c0-.69.74-1.4,1.15-1A2.85,2.85,0,0,1,119,264.62Z"/><path class="cls-7" d="M121.15,4a4.71,4.71,0,0,1-1.67-.73,3.41,3.41,0,0,1-.58-1.69c0-.11.45-.42.72-.46,1.32-.18.79,1.05,1.18,1.6a1.79,1.79,0,0,0,.36.3C121.16,3.36,121.16,3.68,121.15,4Z"/><path class="cls-14" d="M96.47,226.67a1,1,0,0,1,1.1.73c.19.77-.39,1.18-1,1.51-.88.51-.66-.45-.8-.72C95.43,227.49,95.79,227,96.47,226.67Z"/><path class="cls-14" d="M86.77,204.84c-.12.28-.18.71-.38.79s-.54-.2-.82-.32c.13-.28.19-.71.39-.79S86.5,204.72,86.77,204.84Z"/><path class="cls-9" d="M81.15,59.05c0-1.1-.18-2.28,1-3a5.6,5.6,0,0,0,.2,1.32C82.84,58.6,82.25,59,81.15,59.05Z"/><path class="cls-11" d="M96.15,265.15a2,2,0,0,1,2,1A2,2,0,0,1,96.15,265.15Z"/><path class="cls-19" d="M94.16,242.13h-1a1.57,1.57,0,0,1-.27-2,.94.94,0,0,1,1.27,0h0C94.16,240.8,94.16,241.46,94.16,242.13Z"/><path class="cls-3" d="M74.16,168.1l1-1Z"/><path class="cls-3" d="M72.15,121.08v-1a.6.6,0,0,1,1,0h0Z"/><path class="cls-24" d="M74.13,256.15c.34.32.68.64,1,1C74.81,256.79,74.47,256.47,74.13,256.15Z"/><path class="cls-12" d="M69.15,17.08l-1,.93Z"/><path class="cls-4" d="M64.13,251.14l-1-1,.06,0c.89-.25,1.17.15,1,1Z"/><path class="cls-19" d="M95.16,243.12l-1-1Z"/><path class="cls-9" d="M80.15,59.05h1l-1,1-.26-.5C80,59.39,80.07,59.22,80.15,59.05Z"/><path class="cls-23" d="M80.15,61.05h-1c-.23-.89.07-1.26,1-1h0Z"/><path class="cls-27" d="M63.15,214.12c-.94,2.22-1.73,4.53-3.78,6.07-.2.14-.16.61-.23.93-2.48,1-6.41,0-6.5,4.49-.88,1.18-1.59,2.72-3.5,1.51h0c-.39-2.74-.39-5.63-2.93-7.53-.28-.31-.55-.64-.81-1s-.59-.59-.9-.87a15.3,15.3,0,0,0-2.21-1.31c-2-1.09-3.35-2.55-3-5a3.38,3.38,0,0,1,2.85-2.9,3.2,3.2,0,0,1,1.39.34,4.19,4.19,0,0,1,1.3,1.62c.45.79.79,1.64,1.21,2.45-.59-2-2.13-3.64-1.77-5.88.41-1.72.53-3.36-1.22-4.49-1.17-1.27-1.9-2.94-3.52-3.8a3.51,3.51,0,0,1-1.17-1.64c-.08-.93-.31-1-1.44-1-2-.07-2.74-1.71-3.27-3.24-.86-2.46,1.06-3.11,2.8-3.79,1.21-.91,3.44-.82,3.08-3.23a1.88,1.88,0,0,1,2.18-1.16c.75.1,1.11,1.61,1.72,1s-.51-1.59-.65-2.48a2.68,2.68,0,0,1,.16-1.4,5.62,5.62,0,0,1,4.46-2.38c2.51.44,5,.85,5.43,4.09-1.69,3.34.81,6.18,1.08,9.23-.17-.17-.17-.36-.25-.55,0-2.66-.69-6,3.82-3.2a27.37,27.37,0,0,1,6.73,11.38,3.11,3.11,0,0,1,.42,1.22,8,8,0,0,1-.42,1.8c-.24,1.16.53,2.35-.09,3.5a5.54,5.54,0,0,0-.43,2.28,3.36,3.36,0,0,1-.25,1.21A5.75,5.75,0,0,0,63.15,214.12Z"/><path class="cls-28" d="M63.15,214.12c-1.93-.77-2-.82-1.43-2.08.43-1,1-1.95,1.43-2.93,1.83-1.36,3-.54,3.83,1.21a6.67,6.67,0,0,0,5.42,3.87c2.49.4,2.76,2.31,2.34,4.41-3,2.75-4.87,5.64-1.38,9.4,1.16,1.25.94,3.07,1.49,4.57.83,1.27,2.11,2.14,3,3.38,1.3,1.77-.34,2.66-1.13,3.81-.51.43-1,.86.14,1.11.72.59,1.87.93,1.33,2.26H70.86c.47-2.13,2-3.82,1-6.11a14.41,14.41,0,0,0-3,2.08c-.59.5-.82,1.61-1.88,1.25a7.32,7.32,0,0,1-2.16-1.18c-1.72-1.42-1.94-2.6-.81-4.27a14.29,14.29,0,0,1,1.92-2.2.47.47,0,0,1,.78.33c0,1-.23,1.92-.27,2.89,0,.22.35.58.59.65a1,1,0,0,0,.86-.27,15.75,15.75,0,0,0,1.27-2.13c1.42-2.91.26-4.57-3.11-4.52-1.59,0-2.34-.93-1.59-2.52.5-1.08,1.12-1.73,0-2.82s-1.2-2.7-1.65-4.11a1,1,0,0,1,.44-1.27c1.05-.41.8.7,1.16,1.12.09.11.28.15.48.26.38-.49.74-1,1.15-1.49,1.1-1.28,1.61-2.56,0-3.85-1.22-1-.57-2.51-1.17-4C63.73,211.84,64.4,213.58,63.15,214.12Z"/><path class="cls-29" d="M52.15,225.12c-.31-2.39,1.23-3.88,2.68-5.55,1.52.22,2.52,2.07,4.31,1.55a5.54,5.54,0,0,1,.39.91c.35,1.34-.11,2.15-1.14,1.95-.8-.15-1.56-.56-2.37-.67a1.52,1.52,0,0,0-1.29.43,1.43,1.43,0,0,0,.13,1.32c.46.65,1.48,1.09,1.6,1.74.27,1.54,1.77,2.82.81,4.67-.44.85.15,1.86.56,2.81,1.31,3.09,2.29,4.91,4.08,6,1.49.89,3.18,1.37,3.24,3.64,0,.54,1.19,1,1.81,1.58a3.51,3.51,0,0,1,1.19,2.64c-.3.35-.8.66-.86,1-.3,1.9-1.61,2-3.11,1.94l-1-1c.24-.76.8-1.54.1-2.3-.89-1-1.86-1.89-2.78-2.84s-2.31-1.94-1.74-3.79c.14-.46-.69-.86-1-.52-1.15,1.22-2,.78-2.79-.32-.6-.79-.4-1.38.09-2.19,1-1.72.89-1.95-.93-2.88a3.28,3.28,0,0,0-1-.16h0a6.52,6.52,0,0,0,1-3C51.1,230.46,52.18,227.63,52.15,225.12Z"/><path class="cls-30" d="M76.16,240.12a10,10,0,0,1-.61-1.28c-.25-.75,0-1.16.84-1,2,.26.88-1,.76-1.67a2,2,0,0,1,1.47-.78,4.08,4.08,0,0,1,1.1.12l.5.22.72.74.35.34.65.68.28.33.1.4h.42l.42-.06,5,3.67c1.5,1.09,2.17,2.76,2.94,4.35-.77,1-1.47,2.13-3,2-3.46-1.41-7-2.74-10-5l-2-2a.62.62,0,0,1-.26-.68C76,240.24,76.07,240.12,76.16,240.12Z"/><path class="cls-31" d="M88.14,248.14c.7-1.13,2-1.42,3-2a14.56,14.56,0,0,1-.23,1.45c-.16.68-.27,1.3.75,1.27.47,0,1.18-.27,1.38-.05,1,1.15,2.66.21,3.58,1,1.31,1.06-.54,2.39-.1,3.64.1.28.4.49.6.74a1.48,1.48,0,0,1,.57,1,1.37,1.37,0,0,1-.55,1h0c-2.56,3.37-3.3,3.35-5.51-.1,0-.24.25-.39.34-.58s0-.31-.13,0a2.37,2.37,0,0,1-1.69.67c-1.27-.73-1.43-2.58-3-3-.82-.89-1.15-2.09-2-3,.4-.85,1-.93,1.85-.63a.87.87,0,0,0,1.13-.4c.27-.22.35-.45.26-.67s-.18-.33-.27-.33Z"/><path class="cls-32" d="M90.16,256.13a2,2,0,0,1,2-1,2.91,2.91,0,0,0,.15.95c1,2,1.55,2.18,3.24,1.12.55-.34,1.07-.71,1.6-1.07.55,1.39,2.19,2.24,2,4C95.59,260.09,92.18,259.67,90.16,256.13Z"/><path class="cls-33" d="M85.17,250.16a2.94,2.94,0,0,1,2,3h0c-.33.44-.66.46-1,0A5.64,5.64,0,0,1,85.17,250.16Z"/><path class="cls-31" d="M86.16,253.13h1a9.45,9.45,0,0,1-.06,1.41,2.88,2.88,0,0,1-.43.78,2.77,2.77,0,0,1-.44-.78A11,11,0,0,1,86.16,253.13Z"/><path class="cls-29" d="M59.52,232.66c-.13.07-.27.21-.4.2s-.23-.18-.35-.27C59.06,232.28,59.31,232.3,59.52,232.66Z"/><path class="cls-30" d="M88.14,248.13c.7.33.71.66,0,1C88.15,248.8,88.14,248.47,88.14,248.13Z"/><path class="cls-34" d="M43.15,40.1a3.82,3.82,0,0,1,.7,1.14c.14.71-1.08,1.58-.06,2.1.66.33,1.5-.31,2.09-.9a2.76,2.76,0,0,0,.28-.39c1.89.91,3.68,2,5.89,2.15a2.68,2.68,0,0,1,2.09,1.85l.18.66c.67,4-3.88,10-8.2,10.87a32.7,32.7,0,0,1-5.44.42c1.44,2.71,3.24,4.9,2.46,8.11-.69,2.88-.37,6-3.85,7.34a9.88,9.88,0,0,0-7.36,1.21c-1.21.71-2.54,1.5-4,.55a4,4,0,0,1-.82-1.89c.1-2.4-1.6-4.95.59-7.18l.82-1c.95-1.73-1.51-1.5-1.53-2.65a5.52,5.52,0,0,1,1.34-2.84,9.17,9.17,0,0,0,1-2.79,3.38,3.38,0,0,1,.5-1,1.48,1.48,0,0,1,.83-.45,1.42,1.42,0,0,1,.79,0l.26.26s0-.38,0-.39a3.19,3.19,0,0,1,.16-.85s.15-.44.14-.46a9.32,9.32,0,0,1,.8-2,22.86,22.86,0,0,1,3.36-4A16.57,16.57,0,0,0,43.15,40.1Z"/><path class="cls-35" d="M56.14,46.05c-1.22-3.33-1.27-3.41,1-4.95a15.21,15.21,0,0,0,4.14-4.17,30.73,30.73,0,0,1,3.26-3.7c.44-.48,1-1.07,1.69-.79,1.1.46.47,1.34.26,2.08-.11.4,0,.75.39.76a1.18,1.18,0,0,0,.76-.44,28.34,28.34,0,0,0,1.6-3c1.28-2,2.63-3.68,5.54-4a14.29,14.29,0,0,1-1.63-1c-.67-.61-.62-1.36.09-1.48,1-.16,2-.17,2.94-.25l.54.55c.9,2.57-.2,5-.46,7.5a3.63,3.63,0,0,1-2.17,1.78c-1.44.35-3,.39-4.13,1.59-.31.32-.63.62-1,.92-4,3.23-6,8.18-9.57,11.77-1.76.55-2.68-.55-3.53-1.79A1.26,1.26,0,0,1,56.14,46.05Z"/><path class="cls-36" d="M103.17,7a11.8,11.8,0,0,1-1,1,1.19,1.19,0,0,0-.46,1.59c.67,1.7.6,1.72-1.57,2.41-1.75,1.25-2.5,3.42-4.07,4.7s-3.71,1.41-5.25,2.55C89,20.64,86.55,21,85.3,23.15a2.42,2.42,0,0,1-2.2.86l-3.93,0a10.76,10.76,0,0,1,4.46-3c1.63-.51,3.27-.91,2.88-3.2a5.67,5.67,0,0,0,2.69-3.1c.18-.59,1.15-.67,1.74-.19a20.56,20.56,0,0,1,1.71,1.77c.79-.9,1.58-1.74,2.29-2.65.26-.34.58-1,.43-1.26-1.35-2.23.12-2.77,1.79-3.59C99.1,7.88,100.87,6.65,103.17,7Z"/><path class="cls-35" d="M79.16,24.05c0,.32,0,.65,0,1a2.09,2.09,0,0,1-3,0h0C76.88,23.86,78.06,24.07,79.16,24.05Z"/><path class="cls-34" d="M56.14,46.05v1c-1.07.47-2.12.91-2-1h2Z"/><path class="cls-37" d="M63.15,126.08c0,2.81-.11,5.62,0,8.42.12,2.61-.39,4.77-2.48,6.63-1.77,1.58-1.46,2,1.45,3,1.66-.81,3.22-1.38,3.26,1.46l.45-.09c-.45-.49.92-.17.29-.37h1c-.12,4-.56,8-1,12l-.63.27a1.91,1.91,0,0,1-1.06-.81c-1.59-3.1-5.36-4.21-6.8-7.44a2.53,2.53,0,0,1,.15-2c1.47-.67,1.63-1.45.2-2.36-.72-.82-1.46-1.62-2.13-2.48a2.94,2.94,0,0,1-.32-1.3c.57-.94.37-1.36-.62-1.49s-1.31-.77-1.61-1.53c-.86-2.64,2.41-5.7-.89-8.18-.51-.39-.14-2.12.44-2.22,4.87-.87,3.36-4.12,2.78-7-.27-1.34-.65-2.88.75-3.59,1.83-.93,2.58.83,3.46,2C61.5,121.05,61.22,124.07,63.15,126.08Z"/><path class="cls-37" d="M65.14,157.1h1c1.66,1.4.76,3.31,1,5l0,0C64.12,161.38,64.7,159.21,65.14,157.1Z"/><path class="cls-6" d="M14.12,191.11q-2.49-7.52-5-15c1-4.95,2.75-5.94,6.5-3.69a4.24,4.24,0,0,1,.87,2c-1.35,5.39,1,10,3,14.77.38.18.76.38,1.13.58a4.72,4.72,0,0,1,2,1.53,3.24,3.24,0,0,1,.16,1.87,11,11,0,0,0-.59,3c.68,2.68,3,4.42,3.94,7,.1,2.24,1.38,4.86-1.94,6h0l-1-1a114.22,114.22,0,0,0-5.84-10.34A58.18,58.18,0,0,1,14.12,191.11Z"/><path class="cls-38" d="M24.14,209.1a2.51,2.51,0,0,0,1-2.11c0-1.62,0-3.25,0-4.87-.79-.91-1.54-1.82-1.12-3.16a2,2,0,0,1,2-.22c.75.17.31,2.17,1.82,1.17.44.25,1.05.72.93,1.07-1.79,5.11,2.42,7.72,4.63,11.11,1.27,1.94,3.42,3.1,2,6.3-.86,1.93,2.62,3.08,3.37,5.12.06,1.23.45,2.67-1.6,2.6-2.69-3.47-6.11-6.3-8.56-10C27.05,213.8,25.27,211.66,24.14,209.1Z"/><path class="cls-39" d="M37.14,226.11c1.18-.71,1-1.89,1-3a4.53,4.53,0,0,1,1.11-3.73,2.39,2.39,0,0,1,1.18-.58A2.17,2.17,0,0,1,41.93,220c.47,1.36,1.87,2.45,1.22,4.14,1,2,2.2,3.94,1.5,6.38-.37,1.28-1.59,1.85-2.57.94C40.31,229.78,38.35,228.29,37.14,226.11Z"/><path class="cls-40" d="M46.14,218.12a7.17,7.17,0,0,0,1.37,1.38c3.33,2,3.14,4.64,1.63,7.62-.15-.07-.3-.12-.45-.2-1-.49-2.33-.75-3-1.54-.78-.94.6-2.11.42-3.27a6.55,6.55,0,0,1,0-1A2.11,2.11,0,0,1,46.14,218.12Z"/><path class="cls-40" d="M52.15,225.12a2.59,2.59,0,0,1,1,2.49,7.85,7.85,0,0,0,1,4.5c-1.22-.1-2.5,1.14-3.68-.2s-2.4-2.78-1.32-4.79C50.71,227.31,51.08,225.69,52.15,225.12Z"/><path class="cls-40" d="M43.15,224.11c-.56-1.39-2.2-2.23-2-4a2.19,2.19,0,0,1,2.09-1.51,2.35,2.35,0,0,1,1.91,2.51A3,3,0,0,1,43.15,224.11Z"/><path class="cls-39" d="M45.14,221.12l-2-2a2.1,2.1,0,0,1,0-3,2.18,2.18,0,0,1,2,1c.31.35.63.69,1,1h0v3Z"/><path class="cls-29" d="M53.14,235.12a7.16,7.16,0,0,1-.11.93c0,.14-.18.36-.26.36-.4,0-.54-.34-.31-.68a3.61,3.61,0,0,1,.68-.6Z"/><path class="cls-38" d="M23.17,208.1l1,1Z"/><path class="cls-20" d="M80.15,60.05l-1,1a4.3,4.3,0,0,1-1.14.89c-.8.3-1.75.56-1.52,1.58.36,1.54-.63,2.92-.32,4.41.35,1.69.41,3.16-1.79,3.69a1.27,1.27,0,0,0-.88,1.59c.76,1.71-.2,3.23-.3,4.83-.07,1-.16,2,.8,2.71.61.44,1.86.4,1.52,1.54-.14.48-1,.77-1.49,1.12a2.3,2.3,0,0,0-.86,2.19c0,2.82,0,5.64,0,8.46l-.66.16c-1.9-1.22-2.06-3.44-3-5.22-.54-1.64,1.37-3.67-.83-5a1.8,1.8,0,0,1,.48-1.9c-.3-1-1.73-2.51-.57-3.07,1.64-.8,1.55-2.38,2.51-3.39a3.88,3.88,0,0,0,1-3.22c-.25-2.21.64-4.23,1-6.33a1.17,1.17,0,0,0,0-2c0-1.37.07-2.66,1.61-3.27.91-.36,1.79-.78,2.75-1.2.8-1.44-1-2.89-.17-4.21a27.53,27.53,0,0,1,2.81-3.33,14.86,14.86,0,0,0-.07,1.49c.07,1.22-2,1.6-1.27,3,.44.85,1.36,1.45,1.34,2.55Z"/><path class="cls-41" d="M82.16,38.05c.63,1.88.63,1.88-1,3h0c0,1.34,0,2.57-1.73,3.08-2.93.87-4.36,3.2-5.28,5.93-3.28,2.48-3.11-.71-3-2.15.45-4.57,1.85-8.83,5.71-11.82a6.55,6.55,0,0,1,4.36-1.66,2.45,2.45,0,0,1,1.2.58,2.7,2.7,0,0,1,.41,1.94A2.78,2.78,0,0,1,82.16,38.05Z"/><path class="cls-7" d="M77.15,36.05c.16.6.71,1.25.12,1.81S75.68,39,74.9,39.65c-.38.3-1.07.78-1,1,1,3.16-2.58,5.28-1.82,8.46.39,1.62,1.1,1.26,2.07,1a7.21,7.21,0,0,1-1.37,3.63c-1.51,2.48-3.08,4.92-4.63,7.38l-.54-.52a14.23,14.23,0,0,1,1.12-12.92c1.09-1.79,1.06-3.84,1.73-5.7,1.07-3,2-6.13,6.07-6.3Z"/><path class="cls-42" d="M68.15,61.06c.06,1.48.94,2,2.3,2,.49,0,1,.18.94.81s-.62.69-1.17.68a2.13,2.13,0,0,0-1,.14c-1,.52-1.25,2.16-.29,2.39,2.85.71,2.16,2.79,2.14,4.66a2.13,2.13,0,0,1-1.5,2.29,8.77,8.77,0,0,0-2.16,1.19,4.46,4.46,0,0,1-2.32.82c-.11-.15-.23-.29-.35-.44a5.16,5.16,0,0,1-.18-1.1,5.79,5.79,0,0,0-.84-2.1,4.43,4.43,0,0,1-.38-1.13,3.85,3.85,0,0,1,.13-1.72,2,2,0,0,1,.6-.78,2,2,0,0,0,.43,0s.29-.33.29-.33l-.36-.28A4.27,4.27,0,0,1,64.27,66a15.48,15.48,0,0,1,1-3.26c.67-1,1.28-2.16,2.83-1.65Z"/><path class="cls-43" d="M65.14,76.06l2,6c1.75,1.13,1.88,2.61.92,4.32a2.9,2.9,0,0,1-1,.91c-1.7-.73-3.1-2.35-5.37-1.2-1.45.74-2.41-.54-3.19-1.66-2.82-5.05,2.73-5.2,4.45-7.6a4.79,4.79,0,0,1,1-1,1.07,1.07,0,0,1,1.24.21Z"/><path class="cls-7" d="M82.16,38.05c0-.33,0-.67,0-1a1.29,1.29,0,0,0,0-2h0c.42-2.49,2.1-2.45,4-2h0c.74.71,1,1.73,1.72,2.48.1.17.2.35.29.53A9.05,9.05,0,0,1,82.16,38.05Z"/><path class="cls-44" d="M67.15,86.07a3.29,3.29,0,0,0,0-4h2v2Q70.35,87.26,67.15,86.07Z"/><path class="cls-9" d="M73.15,64.06c.73.14,1.71.12,1.52,1.22-.11.65-.9.71-1.51.77C73.16,65.39,73.15,64.72,73.15,64.06Z"/><path class="cls-7" d="M88.16,34c1,.68,1,1.35,0,2h0a1.32,1.32,0,0,1-.4-1.58Z"/><path class="cls-7" d="M87.16,33l1,1v0c-.9.23-1.35,0-1-1Z"/><path class="cls-10" d="M67.15,175.1c-.47.46-.94.9-1.39,1.37a1,1,0,0,0-.14,1.34c.26.42.73.88,1.15.53,1.08-.92,1.72-.56,2.26.53,1.49,3,1.49,6.32,2.18,9.5.27,1.25.36,1.29,2,.62.14-.06.26-.27.4-.27.29,0,.69-.05.87.11a1,1,0,0,1,.19.85,5.15,5.15,0,0,1-.8,1.24,1.84,1.84,0,0,0,.24,2.63c1.33,1.52,2.73,2.9,5,2.55h0c.12,4-3.69,4.31-5.76,6.27-1.34-1.36-2.4-3.76-4.7-1-.46.57-1.5.13-2-.59-.67-5.28-4.07-10.21-2-15.84-.42-2.26-1.68-4.26-2.07-6.52-.53-3.17.52-4.82,4-3.91Z"/><path class="cls-45" d="M65.14,157.1a27.52,27.52,0,0,1,1,3,2.73,2.73,0,0,0,1,2c.94,1.34.09,2.29-.59,3.42s-.39,1.68,1.56,2.61l0,1a4.48,4.48,0,0,1-.39,4.9c-2.76.31-5.41,1.27-8.2,1.47a1.64,1.64,0,0,1-1-.95,4,4,0,0,1,0-2c1.17-4.18.75-7.2-3.73-9.77-3.47-2,.66-3.56,1.82-5.18,4.43-5,4.93-5,8.45-.49Z"/><path class="cls-10" d="M67.14,174.09a8.18,8.18,0,0,0,1-5c1.49,1.54,1.15,3.34.65,5.1-.2.73-1,.75-1.65.9h0c-.34-.22-.46-.44-.35-.66S67,174.09,67.14,174.09Z"/><path class="cls-46" d="M86.15,33c-1.19,1-3,.62-4,2-1.72.09-3.21,1.31-5,1h0c-1-.75-1.23-2.07-2-3,1.52-2.52.83-5.31,1-8l3,0c.27.76.8,1.49.16,2.32s-1.8,1.53-2,2.78a3.1,3.1,0,0,0,.17.93c.25-.07.62-.07.73-.24.76-1.22,1.6-1.59,2.81-.54a3.09,3.09,0,0,0,2.81.46C85.77,30.38,85.78,30.48,86.15,33Z"/><path class="cls-46" d="M87.15,33.05c.33.33.66.67,1,1v2c-.33,0-.67,0-1,0-1-.05-1.64-.3-1.23-1.5A8,8,0,0,0,86.15,33Z"/><path class="cls-7" d="M100.16,15c-.6,1-.87,2.3-2,3C98.29,15.62,98.29,15.62,100.16,15Z"/><path class="cls-6" d="M2.11,141.09c0-3.13-.33-6.31.12-9.38C3.51,123,3.06,114,6,105.54a5.12,5.12,0,0,0,.06-1.47l4.08-14,.95-1h0c3.5.18,3.79,2.58,3.65,5.27-.19,1-1.47,1.24-1.52,2.31.22.27.41.55.61.83l1,1.35a4.49,4.49,0,0,1,.8,1.57,4.53,4.53,0,0,1,0,1.22,15.08,15.08,0,0,0-.29,3.67c-.14,1.53.2,2.81,1.78,3.47a1.62,1.62,0,0,1,.46,1.2,4.17,4.17,0,0,1-.55,1.24,12.41,12.41,0,0,1-.82,1.09c-2.18,1.92-.15,6.85-5,6.92-.42,0-.32.25.19.43,5.7,2,1.7,6.19,1.64,9.18-.09,3.59-2,3.82-5.07,1,0-.41.48-.66.35-1.11a1,1,0,0,1-.32.79,39.2,39.2,0,0,0,5,15.86,4.39,4.39,0,0,1-.64,2.34,5.58,5.58,0,0,0-.6,1.4,2.25,2.25,0,0,0,.21.92c.19.27.36.54.55.82a5.53,5.53,0,0,1,.53.91,4.52,4.52,0,0,1,.6,2.16,9.57,9.57,0,0,1-.3,1.2c-.32,2.62-.82,5.23-.36,7.89.08,1-.28,1.95-.18,2.93.16,1.63,2,3.5-.39,4.74-2.06,1.05-3.79,0-5.23-1.54q-1.92-6.63-3.83-13.26a1.38,1.38,0,0,1-.06-.49C3.53,150.54,2.35,145.85,2.11,141.09Z"/><path class="cls-10" d="M14.11,95.06c.05-2.53-.72-4.64-3-6-.29-2.63,1.33-4.72,2.23-7,1.84-4.55,3.81-9.11,6.92-13,.67-.83.69.5.89.95a1.43,1.43,0,0,1,.29,1.29c-1.24,2.88-3.08,5.59-2.68,9a26.7,26.7,0,0,0-.4,5.57A12,12,0,0,1,18,88.71c-.69,2-.81,4.15-2.05,5.94a2.19,2.19,0,0,1-1.18.71Z"/><path class="cls-47" d="M21.09,71c0-.32,0-.64.06-1,2-1.51,1.77-4.11,3-6l.08-.47a2.64,2.64,0,0,1,.54-.79s.34-.33.33-.34a3.4,3.4,0,0,1,.75-.61s.45-.16.45-.17l.49,0,.36.33c.74,1.2,1.68.49,2.62.33s1.22.49,1,1.23a3.9,3.9,0,0,1-1.62,2.43h0c-.78,1.09-2.33,1.78-1.32,3.68.48.91.23,2.21.31,3.34-.83.63-1.05,1.78-2,2.32a4.31,4.31,0,0,1-1.23.28c-2.11-.52-2.63,4.12-5.34,1.67C18.93,75,19.9,73,21.09,71Z"/><path class="cls-48" d="M36.16,48.08c-.12,2.19-1.59,3.58-3,5-.65.5-.41,1.47-1,2l0,0a1.08,1.08,0,0,1-1,.49,1.87,1.87,0,0,0-1,.47l0,.05c-.71.73-.47,1.67-.54,2.52a3.62,3.62,0,0,1-1,1.45c-.37.39-.77.77-1.18,1.14s-.93.51-1.33.88h0c-.33.33-.67.66-1,1h0a8.58,8.58,0,0,0-1,1h0c-.24-.39-.79-1-.68-1.14,3.72-5.1,6.71-10.78,11.48-15.09C35.36,47.46,35.83,47.62,36.16,48.08Z"/><path class="cls-10" d="M11.12,89.06c-.32.33-.63.67-.95,1C10.49,89.73,10.8,89.39,11.12,89.06Z"/><path class="cls-20" d="M73.14,120.08h-2c-1-1.88-.69-3.8-.29-5.78.64-3.16.64-6.26-1.84-8.8a4.43,4.43,0,0,1-.55-1.26c-1.33-2.64-2.38-5.12-1.34-8.37.92-2.89,1.36-4.62,4.23-1.66.51.52,1.22.31,1.79-.14h1c-.44,3,.56,6,1.27,8.76.75,3,.37,5.93,1,8.83A1.23,1.23,0,0,1,76,113C73.75,114.82,73.41,117.43,73.14,120.08Z"/><path class="cls-44" d="M73.15,94.07a7.32,7.32,0,0,1-.58,1.84,1,1,0,0,1-1.64.22,3.73,3.73,0,0,1-.72-1.26c-.25-.57-.28-1.49-1.16-1.25-1.08.3-.8,1.24-.57,2,.18.62.61,1.39.1,1.85-2.35,2.06-1,3.24.83,4.55.79.58.55,1.44-.26,2-3.52.75-5.5,4.71-9.61,4.48-1.17-.06-1.75,2.35-.92,2.72,2.48,1.08,5,3,7.76,2.46,2.47-.54,2.16-3,1.69-5a3.88,3.88,0,0,1,1.08-3.65,3,3,0,0,1,2.23,1c1.5,1.84.21,4.27,1.31,6.23a2,2,0,0,1-.52,2.28,2.27,2.27,0,0,0-.44,2.74c.55,1.07-.27,1.89-.58,2.81-.91,1-1.44,0-1.93-.46-.91-.93-1.83-1.37-3-.5s-2.08,2.06-1.65,3.71c.17.62.53,1.19.76,1.8.41,1.16-.3,1.4-1.23,1.43l-1,0c-.75.2-1.6.79-2.12-.3a4.88,4.88,0,0,1-.79-2.3c.31-2.48-1.71-3.8-2.58-5.68-.07-.15-.64-.25-.84-.13a1.26,1.26,0,0,0-.48.79,1.38,1.38,0,0,0,.07,1c2.38,3.22.22,6.54.76,9.68-1.31.33-1.68-.33-2.2-.68s-1.06-1.12-1.57-.22a2.09,2.09,0,0,0,0,1.86,27.8,27.8,0,0,0,2.48,2.36c.47.47.85,1.29,0,1.55-2.33.71-1.58,2.57-1.74,4.11-.26,1.95,1.29,3.31,1.65,5,.42,1.23.58,2.52.93,3.77a3.24,3.24,0,0,1-.17,2,1.81,1.81,0,0,1-1.14.7c-2.79-.59-2.9-3.28-4-5.16a8.34,8.34,0,0,1-.31-2,16,16,0,0,0-.35-3.78c0-.21-.06-.42-.1-.63v-.64c0-.21.06-.42.09-.63a15.38,15.38,0,0,0,.32-1.9c-.5-7.12-2.73-14.37,1.66-21.19-1.15-1.45-3.53-.71-4.5-2.45-.33-3.3,1-6,2.92-8.55,1.79-2.42,5.58-4.06,3.33-8.23-.33-.6.36-1.57,1-2.1,1.71-1.32,2.92-2.53,1-4.77-1.29-1.51.45-2.22,1.44-3a5.25,5.25,0,0,1,1.27-.53c.92.68,1.55,2.17,3.1.67.58-.56,1.79-.32,2.52-1.11.35-.38.93-.06,1.14.44.41,1,0,2.31,1.23,3,2-.79,2.11,1.19,3,2a5.8,5.8,0,0,1,2,3.38A2.63,2.63,0,0,0,73.15,94.07Z"/><path class="cls-37" d="M66.15,145.09c0,.48,0,1-.09,1.45a.79.79,0,0,1-.17.41c-.33.38-.63.31-.64-.2,0-2.09-1.15-2.85-3.1-2.66.63-1.12,1.32-2.62,2.72-2.31S66.1,143.82,66.15,145.09Z"/><path class="cls-17" d="M103.16,14h2C104.5,15.06,103.83,15.06,103.16,14Z"/><path class="cls-17" d="M102.16,13.05l1,1Z"/><path class="cls-18" d="M97.16,255.13c0-.33,0-.65,0-1,1.94-1.1,2.27-1.08,3.1.25a5.06,5.06,0,0,1,.93,2.74l-2-1C98.66,255.49,97.68,255.78,97.16,255.13Z"/><path class="cls-32" d="M97.16,255.13a2.14,2.14,0,0,1,2,1h-2C97.15,255.79,97.16,255.46,97.16,255.13Z"/><path class="cls-49" d="M7.11,169.1c.94.27,1.86.57,2.8.8a2.41,2.41,0,0,0,2.32-.23c.88-.85-.07-1.38-.52-2a3.15,3.15,0,0,1-.39-2.79c.23-1,.53-1.87.8-2.8.44-1,1.07-1.5,2.19-1,.56.53.48,2.84,2,.7a3.42,3.42,0,0,1,3.16,1.37,2.52,2.52,0,0,1-.08,2.13c-2.63,2-1.89,5.76-4.29,7.84-.93-.6-1.46-2.12-3.09-.64a10.43,10.43,0,0,0-2.91,3.64A15.4,15.4,0,0,1,7.11,169.1Z"/><path class="cls-50" d="M90.16,232.12c-.54.85-1.18.81-2,.41-2.29-1.07-2.44-1-2.93,1.63a6.21,6.21,0,0,0,0,1c-1.32.61-2-.55-3-1h0c.32-3.11-3.55-.88-4-3.09-.93-2.2-1.81-4.41-1.29-6.88,1.33-1.18,2.29-.07,3.33.58a6.71,6.71,0,0,0-2.15-6.27c-1.07-1-2.2-2.56-1-3.9s2.63.05,3.83.74c2.18,1.81,1.34-1.45,2.43-1.47a5.7,5.7,0,0,1,1.85-1.74,1.85,1.85,0,0,1,.81,2.12c-.31,1.1-.63,2.2-1,3.26-.56,1.43.06,2.54.87,3.6a1.28,1.28,0,0,0,.78.29,10,10,0,0,0,.56-1.24c1.79-.53,1.79,1.67,3,2a4.55,4.55,0,0,0,0,1c.65,2.19,1.06,4.35.06,6.6A6.92,6.92,0,0,0,90.16,232.12Z"/><path class="cls-51" d="M85.16,212.1a2.09,2.09,0,0,1-1,2,1.33,1.33,0,0,1-1.73-.39c-.08-.21-.17-.41-.25-.61a14.36,14.36,0,0,0,.93-2.28,2,2,0,0,1,2-1.72C85.15,210.12,85.16,211.11,85.16,212.1Z"/><path class="cls-52" d="M90.16,222.12c-1.15.58-2,.56-2.18-1,0-.35-.55-.65-.84-1-.56-.39-.92-.89-.38-1.5.36-.4.88-.22,1.28.06A4.06,4.06,0,0,1,90.16,222.12Z"/><path class="cls-53" d="M82.15,234.12a6.7,6.7,0,0,1,3,1,3.78,3.78,0,0,0,.49.83c.45.44,1.1,1,1.23-.16.1-.8-.21-1.78,1.13-1.17,2,.92,3,2.76,4.16,4.5a1.18,1.18,0,0,1,1,1v2a.78.78,0,0,1-1.25.19,14.1,14.1,0,0,0-3.59-2.62A14.32,14.32,0,0,1,82.15,234.12Z"/><path class="cls-53" d="M79.14,231.12c.27.15.54.45.8.44,2.63-.18,2.63-.19,2.21,2.57a2,2,0,0,0-1,2l-.51.38-.5-.38h0a.62.62,0,0,0-1,0h-2a6.33,6.33,0,0,1-3-3C74.83,230,77,230.68,79.14,231.12Z"/><path class="cls-53" d="M82.16,237.12c.33.34.66.67,1,1l0,0a.72.72,0,0,1-1,0h0l-.39-.5Z"/><path class="cls-53" d="M81.16,236.12l1,1,0,0a.66.66,0,0,1-1,0h0a.62.62,0,0,1-.23-.66q.1-.33.21-.33Z"/><path class="cls-7" d="M98.16,28c.08-.14.18-.4.23-.39.33.07.25.22-.23.39Z"/><path class="cls-7" d="M98.16,28c-.34.33-.67.67-1,1h0c.33-.33.67-.66,1-1Z"/><path class="cls-25" d="M73.15,202.11c1-.59.89-1.64,1.11-2.57s.86-1.31,1.75-.59c.45.36,1,.31,1.06-.23.18-1.34,1.59-1.59,2.08-2.61.29.38.85.78.83,1.15a24.84,24.84,0,0,0,1,9.7c.51,1.56-.41,2.9-.63,4.34-.19,1.28.75,1.69,1.84,1.82h0a1.34,1.34,0,0,1-.55,2.31c-2.75-2.58-7.11-1.76-9.76-4.78-1.22-1.39-2.61-2.32-.28-3.67C73.62,205.78,72.39,203.65,73.15,202.11Z"/><path class="cls-25" d="M83.85,199.93c-.28.17-.53.46-.74.44a1.86,1.86,0,0,1-1.29-3.18c.31-.39.9-.57,1.15,0A24.26,24.26,0,0,1,83.85,199.93Z"/><path class="cls-16" d="M93.16,240.13l-1-1a2.8,2.8,0,0,1,.47-.79c1-.85,1.3-.76,1.49.39a10.71,10.71,0,0,1,0,1.39Z"/><path class="cls-54" d="M40.14,219.12c-1,1.2-.63,3-2,4-1.74,0-2.51-1.53-3.5-2.54-1.72-1.75-1.52-2.58.6-4.88-1.89-1.18-1.88-1.19-3.27-3.74-1.29-2.38-3.55-3.85-5.4-5.53-.22-1.29.83-1.86,1.19-2.75.52-1.31.68-2.58-.61-3.58-.46-.22-.37-1-1-1h-2c-1-3.77,2.55-3.08,4.17-4.24.23-.18.5-.36.77-.53-.65-.49-.94.51-1.53.37-2.16,0-3.79-.74-4.11-3.15a2.15,2.15,0,0,1,1.78-2.05,4.91,4.91,0,0,1,1.38,0c3.22,1.31,5.2-.59,7.09-2.75,2.13.09,4.62-.18,3.47,3.33a4.07,4.07,0,0,1-1.17.75c-1.7.34-2.13.8-1.47,1.83s1.33,1.82,2.27,3.1c.22-1.12.32-1.73.45-2.33a1.31,1.31,0,0,1,1.35-1.16c1,0,.87.67.8,1.36-.12,1.14-.17,2.29-.26,3.44-.58,2.28-1.64,3.29-3.83,1.69.25,2.33,3.13,2.63,4.1,4.56a2,2,0,0,1-.27,1.33c-2.06,2-4.31,3.92-1.42,7.15,1,1.14.75,3.07.07,4.6.13.35-.87.22-.38.71s-.33-.07.34-.25A3.92,3.92,0,0,1,40.14,219.12Z"/><path class="cls-55" d="M73.15,202.11c.07.15.13.31.2.46,2.22,4.31,2.3,3.81-2.62,6.1a8.6,8.6,0,0,1,4.09,2.75c1.26,1.62,1.36,1.54,3.1-.72a12.62,12.62,0,0,0,3.24,4.42c.25.23.33.45.25.67s-.17.33-.26.33c-1.38.26-2.21-1.21-3.6-1.22,0,2,1.3,2.89,2.62,3.87s2.27,2,1.32,3.77c-.83,1.53.76,2.83.46,4.3a1.06,1.06,0,0,1-.55.71.93.93,0,0,1-.86-.17,28.41,28.41,0,0,0-1.66-2.45,5,5,0,0,0-1.72-.8c-2.15-1-2.54-3-3-5a6.6,6.6,0,0,0-.68-3.31c-.52-1-.56-1-1.68.44-.08.11-.27.14-.43.21-1.4-.6-1.35-3-3-3-2.26.13-2.24-1.09-2.33-2.64-.12-1.88-1.64-1.69-2.92-1.76h0a1.36,1.36,0,0,1,0-2c.23-.73.78-1.44-.14-2.13s-.8-1.31.11-1.89c.35-.33.7-.65,1-1,0-.33,0-.66,0-1,1-.75,2.07,2.42,3-.06,2.14-.4,3.21-1.94,4.06-3.75.1-.21.6-.46.72-.39a2.38,2.38,0,0,1,1,1C73.45,199.25,72,200.75,73.15,202.11Z"/><path class="cls-56" d="M47.14,180.1l-4,2c-3.78,1.51-6.09-1.71-8.93-3-1.39-.61-1.41-2.79,0-3.86s.63-2,.63-3.09c1.66-3.1,4-3.72,6.18-.9s3.7,3,5.29-.33c.69-1.46,2.21-1.93,3.43-2.75,2-2.23,2.86-2.07,5.4.34,3.08,2.92,3.55,5,1.9,8.36-.58,1.34-1.5,1.62-2.67.76C50.77,175.08,48.73,176.92,47.14,180.1Z"/><path class="cls-45" d="M67.19,201.05c-.09,1,.09,2-.58,2.83a1.19,1.19,0,0,1-.79.46c-.21,0-.51-.39-.56-.64-.2-.95-.11-2-1.11-2.59-2-.29-2.73-1.51-2.29-3.42.31-1.29.11-2.22-1.31-2.61-.88-.23-1.2-.92-1.47-1.73a5.73,5.73,0,0,0-1.93-3.25c-1.21-2.25.3-2.49,1.94-2.67.29,0,.32-.16.32-.17a9.17,9.17,0,0,0-1-.31c-2.82-1.3-4.55-3.12-3.09-6.45.45-.9,1.39-1.56,1.29-2.73a10.21,10.21,0,0,1,.12-1.24c.48-1,.94-2,2.37-1.44l0,0c1.26.55,3.76.9,3,2.41-2.65,4.94,1,6,4,7.59-.21.79-.42,1.59-.64,2.38-.71,2.51-.65,5,1,7.09a4.43,4.43,0,0,1,.74,5A4.54,4.54,0,0,0,67.19,201.05Z"/><path class="cls-57" d="M37.15,217.1c0-1,0-1.95,0-2.93a4.13,4.13,0,0,0-1.46-3.38c-2.1-1.93-2-2.73.32-4.6,1-.78,1.58-2.17,3.14-2.08h0c-.28-.41-.47-1-.85-1.19-3.72-2.19-3.75-2.21-4.56-7.09.78,0,1,.7,1.4,1.21,1.67,2.18,1.68,2.18,4,0l1,1c1.12,1.26,1.44,3.1,3,4,3.17.5,3.41.83,2.6,3.68a10,10,0,0,1-.62,1.33c-.67.66-.82,1.83-2,2a3,3,0,0,0-3,2c-1.44,1-.77,2.22-.41,3.41a7.79,7.79,0,0,0,.73,1c.73.51,2.06.27,2.07,1.67,0,1.65-1.57,1.33-2.39,2h0c-1.58.19-1.93-1.44-3-2Z"/><path class="cls-58" d="M56.15,180.1c-.64,3.89-.64,3.89,3,6-2.18,2-2.74,2.2-4.39.87a16,16,0,0,1-2.61-2.89,2.89,2.89,0,0,0-2.22-2.93c-1-.27-1.85-.7-2.78-1.06-.89-2.41-.91-2.47,1.07-3.51.47-.24.8-.43.92-.93.18-.73.6-1.13,1.36-.8,1.8.77,4,.63,5.29,2.56l.36-.32c.33-.46.66-.48,1,0l0,1C57.85,179.28,56.67,179.52,56.15,180.1Z"/><path class="cls-59" d="M35.13,172.1c.51,1,1.86,1.31,2,2.68.09,1.07-.27,1.5-1.59,1.24-.49-.09-1-.33-1.2.23-.32.8-.25,2.09.39,2.21,3.11.58,5.24,3.34,8.42,3.65v1a2.13,2.13,0,0,1-1,2,2.06,2.06,0,0,0-2,1c-.74.64-2,.58-2-.14-.13-3.51-3.12-4.19-5.25-5.73-2.47-2.36-5-4.69-2.63-8.53a2.68,2.68,0,0,1,.86-.88c.4-.55,1.23,1,1.49-.3a1.42,1.42,0,0,1,.73-.79,1.9,1.9,0,0,1,1.15.21C35.14,170.54,35.63,171.18,35.13,172.1Z"/><path class="cls-60" d="M43.4,191.37a9.42,9.42,0,0,1,1.2.71c1.12.89,2,1.16,2.58-.56.28-.9.86-.84,1.47-.32a3.41,3.41,0,0,1,1.42,2.51,14.06,14.06,0,0,0,.85,4.35,1.59,1.59,0,0,1-.29,1.35c-.52.56-1.2.35-1.73-.13a2.74,2.74,0,0,0-3.16-.55c-.92.37-1-.43-.88-1.14s-.35-1.19-.59-1.78c-.39-1-2.89,0-1.8-1.81C43,193.12,42.17,192,43.4,191.37Z"/><path class="cls-61" d="M52.14,184.09c.72-.17,1.48-.78,2.07.2.25.41.42.87.7,1.25,1.34,1.88,1.6,1.9,4.23.57a8.29,8.29,0,0,1,3.5,3.42c-1.64.67-2.15-.9-3.2-1.2s-1.5,0-2.29,1.77c-.55-.34-1.09-.69-1.65-1-.73-.42-1.25-.2-1.31.62-.09,1.13,0,2.27,0,3.41-.43-.18-1.2-.32-1.23-.56-.17-1.1-.07-2.13-.91-3.15C50.07,187.05,50.17,187,52.14,184.09Z"/><path class="cls-62" d="M33.14,180.1c1.8,0,3.74-.28,4.32,2.2a1,1,0,0,0,.78.46c1.53,0,1.8.26.75,1.57s.1,1.6,1.14,1.78c0,.79,0,1.59,0,2.37,0,1-.55.68-1.19.46-1-.32-1,1-1.78,1.17.26-2.27-1.62-2.39-3-3a7.82,7.82,0,0,1-.91-.91,3.7,3.7,0,0,1-.47-1.19c0-.22,0-.43,0-.64a8.4,8.4,0,0,0,.08-3.7C33,180.48,33.05,180.29,33.14,180.1Z"/><path class="cls-54" d="M39.13,215.12c-1-.86-.45-2.14-.86-3.19s.17-1.18,1.87-.82c-.5,2.56,1.47,3.63,3,5v3l-2,1-1-1c.33-.34.65-.71,1-1s.77-.63.45-1.13c-.09-.16-.57-.17-.84-.12a1.32,1.32,0,0,1-1.61-.73.58.58,0,0,0,.24-.67C39.3,215.23,39.22,215.12,39.13,215.12Z"/><path class="cls-63" d="M43.14,209.11a3.4,3.4,0,0,1,2-2c-.27,2.72,2,4.43,2.74,6.73.1.28.53.45.64.73a1,1,0,0,1-.08.87.93.93,0,0,1-.86.2c-2-1.29-3.72-2.8-3.45-5.53a11.68,11.68,0,0,0-1-1Z"/><path class="cls-64" d="M42.13,185.1a2.06,2.06,0,0,1,1-2,4.45,4.45,0,0,1,2.4,2.92,2.07,2.07,0,0,1,.09,1.36c-.22.54-.79.42-1.27.27s-1.26-.35-1.87-.58C41.29,186.64,42,185.82,42.13,185.1Z"/><path class="cls-54" d="M43.15,202.11a9.52,9.52,0,0,1-1.08.61c-.92-1.27-2.32-2.33-2.09-4.17a2.28,2.28,0,0,1,.15-.44C42.55,198.37,42.72,200.33,43.15,202.11Z"/><path class="cls-61" d="M56,194.87c-.22.2-.48.58-.66.55-.78-.13-1.76-.19-1.54-1.37.06-.34,0-1.1.81-.89S56.1,193.87,56,194.87Z"/><path class="cls-60" d="M53.75,198c.61.18,1.29,1.86.91,2.32a.42.42,0,0,1-.37.12c-.81-.19-1.4-1.74-.88-2.28A1.07,1.07,0,0,1,53.75,198Z"/><path class="cls-28" d="M63.15,207.12v2C62.12,208.45,62.12,207.78,63.15,207.12Z"/><path class="cls-40" d="M46.14,218.12l-1-1Z"/><path class="cls-57" d="M43.14,209.11c.33.34.66.67,1,1C43.8,209.78,43.47,209.45,43.14,209.11Z"/><path class="cls-45" d="M64.14,202.1l-1,1Z"/><path class="cls-65" d="M74.16,219.12a3.36,3.36,0,0,1,2,2.41,21.8,21.8,0,0,0,1,2.6c1.11,2.2,1.29,4.67,2,7a29.88,29.88,0,0,1-3,1,2.67,2.67,0,0,0-1.95,1c-.59-.12-1.63,0-1.24-.94.51-1.14.74-1.9-.07-3.08-1.11-1.6-2.48-3.1-2.94-5.11-.19-.85-1.91-1.18-1-2.39.58-.75,1.53-.16,2.32-.17s.89-.78.92-1.43C72.21,218.33,73.2,218.77,74.16,219.12Z"/><path class="cls-1" d="M76.16,240.12v1C75.48,240.81,75.46,240.47,76.16,240.12Z"/><path class="cls-1" d="M82.15,238.12l1,0C82.76,238.76,82.45,238.66,82.15,238.12Z"/><path class="cls-1" d="M81.15,237.12l1,0c0,.33,0,.65,0,1Z"/><path class="cls-28" d="M81.14,236.14c0,.33,0,.66,0,1l-1-1Z"/><path class="cls-1" d="M79.15,236.12c.34-.68.68-.67,1,0Z"/><path class="cls-32" d="M93.52,253.44c.24.23.83.53.83.83,0,1.27-1.09.67-1.72.86s-.58,0-.43-.47S92.56,253.45,93.52,253.44Z"/><path class="cls-66" d="M54.14,46.05a2.06,2.06,0,0,0,2,1l3,2a2.25,2.25,0,0,1,.68,2A15.89,15.89,0,0,0,56,62.4c.16,3.37-4,4.79-4.34,8.11a4.06,4.06,0,0,1-1.11,1.58c-2.41,2.3-3.78-3-5.77-.92-1.6,1.71-2.75,3.7-5.53,3.11a.84.84,0,0,1-.32-.79c.06-.29.12-.43.2-.43,2-2.09,3.58-4.34,2.35-7.47-.06-.15-.12-.38,0-.48,2-2.79-.09-4.1-2-5.49a1.81,1.81,0,0,1-.67-.71,2.65,2.65,0,0,1-.14-1.41,1.38,1.38,0,0,1,1.47-1.09,24.92,24.92,0,0,0,4.8.09c2.62,0,4-.67,4.76-3.16a2.87,2.87,0,0,1,1.69-1.72c2.57-.66,3.23-2,2.12-4.38C53.36,47,53.9,46.45,54.14,46.05Z"/><path class="cls-67" d="M39.13,73.06c0,.33,0,.67,0,1-2.21,3.73-2.59,8.51-6.26,11.36-2.1,1.61-1.8,4.15-3,6.1-7.11,2.63-10.07,2.06-12.8-2.45l0-3c.61-.59.41-1.44.66-2.15.48-1.1.18-2.36.71-3.45a1.52,1.52,0,0,1,.81-.77c.18,0,.37,0,.55,0s.32.16.47.22a.86.86,0,0,0,1.27-.34c1-1.64,1.75-3.49,3.52-4.53h1a1.37,1.37,0,0,1,2,0c2.08-.94,4.36-1.62,6.21-2.91,1.69-1.19,2.7-.68,3.91.41A4.3,4.3,0,0,0,39.13,73.06Z"/><path class="cls-68" d="M28.15,75.06h-2a1.8,1.8,0,0,1,2-2Z"/><path class="cls-47" d="M29.09,59.05c.09-1.09-.15-2.29,1.05-3-.15,1.38.46,2.95-1,4-.14-.16-.28-.33-.43-.49Z"/><path class="cls-47" d="M27.11,61.05l1-1a.61.61,0,0,1,1,0l0,0a3.52,3.52,0,0,1-2,2l0,0a.59.59,0,0,1-.24-.65Q27,61.05,27.11,61.05Z"/><path class="cls-47" d="M32.13,56.05a8.15,8.15,0,0,1,1,.15.5.5,0,0,1,.31.8,1,1,0,0,1-.35.35.5.5,0,0,1-.8-.31,8.15,8.15,0,0,1-.15-1Z"/><path class="cls-47" d="M32.1,55a2,2,0,0,1,1-2A2,2,0,0,1,32.1,55Z"/><path class="cls-8" d="M30.12,56l1-1a.6.6,0,0,1,.26.67c-.09.22-.17.33-.26.33Z"/><path class="cls-47" d="M31.13,56.05v-1h1v1h-1Z"/><path class="cls-41" d="M75.16,33.05c1.86.58,1.86.58,2,3a6.08,6.08,0,0,0-4.91,4.31,11.11,11.11,0,0,0-1.11,4.27A5.43,5.43,0,0,1,69.18,49a1.93,1.93,0,0,0-.5,2.21c.44,1.71-1.91,2.85-.78,5,.69,1.3.2,3.22.24,4.87a3.44,3.44,0,0,0-2,2c-2.6,1.76-4-.12-5.17-1.92-1.67-2.64,1.27-3.62,2.24-5.31,2.09-6.56,4.29-13.09,5.92-19.78h0c1.15-1,2.71-1.26,4-2A2.17,2.17,0,0,0,75.16,33.05Z"/><path class="cls-12" d="M69.14,36a24.46,24.46,0,0,0,.32,2.43c.22.9,1.51,1.48.89,2.61-.42.77-1.35.83-2.1,1.14s-1.12,1-.57,1.56c1.31,1.38.85,2.68.08,4a3.21,3.21,0,0,1-.49.85C65.41,50.35,65,52.5,65,54.89c0,.38-.54.78-.83,1.17-3.34,0-3.8-2.87-5-5,0-.66,0-1.33,0-2A32.82,32.82,0,0,1,69.14,36Z"/><path class="cls-12" d="M73.15,34.07a5.51,5.51,0,0,1-4,2C69.91,34.23,71.43,33.94,73.15,34.07Z"/><path class="cls-37" d="M65.14,157.1c-.66-.5-1.33-1-2-1.49-1.77-1.37-2.7-1.3-3.88.77-.55,1-1,1.64-2.14,1.72a3.07,3.07,0,0,1-1.74-.91,5.53,5.53,0,0,1-.82-1.1,6.16,6.16,0,0,1-.43-1.34c-.21-2.19-.36-4.37,2-5.66h0a1.35,1.35,0,0,1,2,0c2,1,2.91,3.37,4.79,4C65.24,153.92,65.27,155.3,65.14,157.1Z"/><path class="cls-37" d="M56.14,147.09c-1.47-1.05-.85-2.62-1-4-.39-1.06.11-1.23,1-1h0c.73.6,1.09,1.58,2,2l1.66.88c.72.39,1.46.92,1.16,1.8-.49,1.43-1.57.2-2.36.35a1.89,1.89,0,0,1-.47,0A1.35,1.35,0,0,1,56.14,147.09Z"/><path class="cls-69" d="M56.14,142.09l-1,1c-1.38-.92-1.08-2.6-1.68-3.87-.11-.22.44-.75.68-1.13a1.25,1.25,0,0,0,2,.31,4.82,4.82,0,0,0,1.24-2.7,2.33,2.33,0,0,1,.34,2.93C57.18,139.77,56.08,140.65,56.14,142.09Z"/><path class="cls-69" d="M58.15,144.09c-.6.75-1.16.42-1.49-.19a8.38,8.38,0,0,1-.52-1.81A1.83,1.83,0,0,1,58.15,144.09Z"/><path class="cls-69" d="M56.14,147.09h2v2h-2Z"/><path class="cls-70" d="M34.11,186.12l0,1c-.13.1-.25.21-.37.32-1,.9-.17,3-1.65,3.33-2,.5-4.17,1.06-6-.67h0a2.09,2.09,0,0,0-2,1,1.33,1.33,0,0,1-2,0,2.06,2.06,0,0,1-2-1c2.67-2.9,4.51-5.85.5-9.09,4.13,3.25.74,6.11-.5,9.09a5.54,5.54,0,0,1-1.89.31,1.45,1.45,0,0,1-.86-1.1c-.09-3.71-1.67-7.06-2.66-10.52a4,4,0,0,1,1.4-4.68,1.56,1.56,0,0,1,1.23-.31,10.69,10.69,0,0,1,1.23.46l.61.25c2.29.51,5.64-1.22,6.18,3.15.09.67,1.76-1.43,3-.65a3.58,3.58,0,0,1,1,.76,5.06,5.06,0,0,1,.59,1.82c.07.37.14.49.09.4-.32-.59,1-.07.36-.34a2.26,2.26,0,0,1,1.15-.11l.56.24a2.26,2.26,0,0,1,.5,1.1c.63,1.35-.27,2.88.49,4.22h0C33.47,185.43,33.76,185.8,34.11,186.12Z"/><path class="cls-71" d="M22.13,191.11h2c.28,2.42,2.21,2.63,4,3,.91-.24,1.24.1,1,1-.93,1.29-2.36,1.68-3.76,2.12-.94.29-1.14,1.05-1.25,1.88a6.89,6.89,0,0,1,1,3c-.45-.14-1.2-.16-1.31-.43a11.91,11.91,0,0,0-3.28-4.47c-.08-.07.38-.73.58-1.12,1-.79.11-2.18,1-3Z"/><path class="cls-72" d="M17.13,174.1h-1l-1-1c.39-2.23.7-4.48,1.19-6.69.33-1.49,1.71-1.21,2.81-1.32,3,1,3.44,3.43,3.31,6.14-1.06,1.7-.79,4.89-4.3,3.87h0a10.22,10.22,0,0,1,.72-5.21C18,171.07,18.52,173,17.13,174.1Z"/><path class="cls-70" d="M22.13,193.11c0,1.1.18,2.28-1,3C21.16,195,21,193.82,22.13,193.11Z"/><path class="cls-71" d="M26.13,199.11c.9-.49.9-.49,1,1C26.23,200.6,26.23,200.6,26.13,199.11Z"/><path class="cls-5" d="M70.15,89.06l-3-2c0-.33,0-.66,0-1a1.83,1.83,0,0,0,2-2l1.68.91c.45.25.81.66.3,1.06C70.08,86.85,70.15,88,70.15,89.06Z"/><path class="cls-5" d="M81.16,41a6.36,6.36,0,0,1-1.33-.37c-.17-.09-.17-.5-.24-.76.26,0,.62-.11.75,0a7.12,7.12,0,0,1,.81,1.12Z"/><path class="cls-46" d="M82.15,35c1,.67,1,1.33,0,2Z"/><path class="cls-73" d="M59.15,51.05a6.27,6.27,0,0,1,3,3,4,4,0,0,0,2,2c0,1.26.22,2.64-1.92,2.36-.75-.1-1.26,1.28-.76,1.83,1.27,1.39,2.35,3.16,4.68,2.8a6.54,6.54,0,0,1-1,3c-1.61.82-3.14,1.83-5,1.89a3.21,3.21,0,0,0-3.21,1.72c-1.69,3.22-3.69,2.36-5.76.39A1.23,1.23,0,0,1,50.87,68c.83-.92,2.32-1.34,2-3.09-.1-.52.66-.55,1.15-.53.85,0,1.29-.51,1.08-1.22-.62-2,.14-3.91,0-5.85a5.18,5.18,0,0,1,3-5.24A6,6,0,0,0,59.15,51.05Z"/><path class="cls-74" d="M59.15,84.07c0,.33,0,.66,0,1a9.93,9.93,0,0,0-5.88,1.38,11.6,11.6,0,0,0-5.84-3.62,5.64,5.64,0,0,0-4-1.19c-1.9-.59-3.65-1.65-2.71-3.84,1-2.4,3-1.27,4.61-.41A9.06,9.06,0,0,0,48,78.68c2.24.31,4.88,2.63,6.34-1.49.52-1.48,2.88-1.37,4.28-2.22.41-.18.87-.25,1.31-.48-1.23,0-2.17,1-3.41.81-2-4.5,2.88-4.63,4.37-6.91,1.23-.49,2.67-1.93,3.26.66h0a1.31,1.31,0,0,0,0,2c0,.33,0,.66,0,1,1.18,1.68-1.16,3.34,0,5-.73,1-1.44,2.12-2.2,3.15-.5.67-1.1.49-1.65,0s-.87-.41-1.06.16C58.84,81.59,58.26,82.82,59.15,84.07Z"/><path class="cls-75" d="M64.14,69.05c-1-1.59-2-.26-3,0-.89-.38-1.5-.91-1-2a3.07,3.07,0,0,0,2.27-.84c.88-.93,1.78-.59,2.72-.17,0,1,0,2,0,3h-1Z"/><path class="cls-75" d="M64.14,77.06c-1.91-1.67-.69-3.34,0-5,2,1.38,2.08,1.5,1,3a4.65,4.65,0,0,1-1,1C64.14,76.39,64.14,76.73,64.14,77.06Z"/><path class="cls-75" d="M65.15,69.06a3.54,3.54,0,0,1,1.32.43,2,2,0,0,1,.5,1.23c0,.18-.46.61-.49.59a3,3,0,0,1-1-.87,4.71,4.71,0,0,1-.3-1.38Z"/><path class="cls-75" d="M64.14,71.06c-1-.67-1-1.34,0-2Z"/><path class="cls-5" d="M64.15,76.06l1-1c0,.33,0,.66,0,1Z"/><path class="cls-76" d="M66.14,185.11c-.6-.19-1.33-.72-1.81-.15-1.09,1.29-1.95.81-2.89-.1-1.69-1.64-1.34-3.93-1.87-5.94,0-.11.13-.29.24-.41.5-.56,2.37-.27,1.2-1.83a10.5,10.5,0,0,0-1.85-1.57,11.29,11.29,0,0,1,8-1v1a19.58,19.58,0,0,0-2.43.12,1.52,1.52,0,0,0-1.32,2.14C64.26,180,65.22,182.52,66.14,185.11Z"/><path class="cls-77" d="M56.14,157.09c.34.33.67.67,1,1a2.05,2.05,0,0,1-1.74,2.09c-.7.17-1.17.69-.8,1.48s.9,1.15,1.56.7c1.58-1.05,2-.4,2,1.16,0,.86.43,1.94,1.22,2,2.76.22,1.51,1.15,1,2.79-.61,2.16-.7,4.54-1.34,6.77a3.56,3.56,0,0,0-2,2h-1c.06-1,.08-2,.21-2.94s1.86-1.3,1-2.4c-.34-.44-1.59-.09-2.24-.43-1.59-.85-2.2-2.36-1.94-4.8-1.29,1.21-1.59,2.75-3.07,2.58-3.37-.19-2.37-2.94-2.74-5-2.06.5-2,3.92-4.54,3.29-1.64-.4-1.65-1.88-1.63-3.25a7.11,7.11,0,0,1,.25-1.3c.69-1.67,0-3.35,0-5a6,6,0,0,1,.54-1.8c.15-.38.34-.75.52-1.11.26-.57.49-1.15.72-1.73a3.87,3.87,0,0,1,.65-1.13,1.31,1.31,0,0,1,1.26,0,3,3,0,0,1,1,2.18c0,.32.07.65.1,1,.14-.28-.05-.6,0-.85,1.35-4.06,1.35-4.06,5.09-.31,1,1.22,2.54,1.33,3.79,2.05h0C55.46,156.44,55.82,156.74,56.14,157.09Z"/><path class="cls-78" d="M8.12,129.08a6.56,6.56,0,0,0,1.27,1.48c1.25.76,2.56.26,2.61-1a35.45,35.45,0,0,1,1-7.31c.31-1.2-.34-2.23-2.06-1.39-.44.22-.89.63-1.31.6a1.52,1.52,0,0,1-1.07-.84,3,3,0,0,1,1.13-3c.65-.38,1.24,0,1.81.35a7.22,7.22,0,0,0,1.24.45c.5-2,1-4,1.5-6,.25-1,1-1.2,1.86-1.33.59,2.48,3.16-.16,4,1.56a2.3,2.3,0,0,1,.41,1.29c-1.29,3.13.88,6.11.41,9.2-.18,1.19-.43,2.45-2,2.29a1.51,1.51,0,0,1-1.55-1.57c1.64,4,2.54,9-.3,13.85-1.1,3.09-.62,6.2-.15,9.31-.1,1.59-.56,3.29-2.43,3s-1.77-2.51-2.43-3.95c.07-2-1.91-3.06-2.21-4.92-.11-.7-.88-.81-1.61-.76s-1.17-.5-1-1.24.48-1.24.62-1.88a5.82,5.82,0,0,0-.76-4.74c-1.1-1.66-.94-1.77,1-3.47Z"/><path class="cls-79" d="M12.13,146.09a3.7,3.7,0,0,1,1.78,1.65c.32.59,0,2,1.3,1.49.81-.3.88-1.32.93-2.17a1.6,1.6,0,0,1,1.26-.39c1.83.43,3.33,1,2.82,3.47-.37,1.75,1,1.65,2.11,1.59a2,2,0,0,1,1.26.46,5.09,5.09,0,0,1,1.31,3.14c-.51,3.15-2.66,2.53-4.74,2.06a1.9,1.9,0,0,1-.64-1.21c-.4.07-.28.45-.35.69a3.89,3.89,0,0,1-2,2.54,2,2,0,0,1-1.29-.16c-1.6-1.35-.25-4.31-2.8-5.16v-1c-.6-.54-.37-1.49-1-2h0c-.32-.35-.65-.69-1-1h0a1.42,1.42,0,0,1,0-2Z"/><path class="cls-80" d="M20.13,113.08c-.73-.22-1.46-.74-2.12.22a5.83,5.83,0,0,1-1.34,1.33c-.52.38-1.3-.16-1.41-.83-.16-1.07.55-1.83.85-2.73h0a13.09,13.09,0,0,0,1-1v-1a22.49,22.49,0,0,1-3-4c.09-1.39-.48-2.93,1-4,.85,1.59,2.19.41,3.3.6,2.07,1.61,1.81,4.14,1.91,6.23C20.4,109.54,20,111.33,20.13,113.08Z"/><path class="cls-81" d="M13.12,154.09c2.73.63,2.67,2.94,3,5a1.5,1.5,0,0,1,.39,1.77c-.72,1-1.57.42-2.39.23l-2,1a1.7,1.7,0,0,1-.8-2.07,6.4,6.4,0,0,0,.21-4.64C11.22,154.36,12.35,154.25,13.12,154.09Z"/><path class="cls-82" d="M18.13,102.07l-1.26.77c-1.42.91-1.52.86-1.74-.8,0-.32,0-.66,0-1s0-.64,0-1a1.24,1.24,0,0,1-.2-1.42c.28-.6.63-1.17.92-1.76.67-1.37,1.38-2.89,3.29-2,1.7.81,1.5,2.39,1.11,3.9A5.32,5.32,0,0,1,18.13,102.07Z"/><path class="cls-78" d="M14.15,105.05c1.72.8,3.44,1.62,3,4a5.25,5.25,0,0,0-1,.11c-1.08.29-2,.35-2-1.17C14.14,107,14.14,106,14.15,105.05Z"/><path class="cls-78" d="M8.12,129.08c-.45-.47-.93-.92-1.34-1.43A.76.76,0,0,1,7,126.42c1.21-.63,2.63-.21,2.84.86.27,1.36-.71,1.64-1.76,1.8Z"/><path class="cls-10" d="M13.13,97.07c-.58.16-1.22.64-1.73.07s-.06-1.6.81-1.89a8.51,8.51,0,0,1,1.9-.19h0C14.67,96.18,14,96.68,13.13,97.07Z"/><path class="cls-80" d="M13.13,97.07c.33-.67.66-1.33,1-2h1c1.2,1.3,1,2.62,0,4l-.06,1.06-1-1c-.61-.53-.35-1.49-1-2Z"/><path class="cls-78" d="M6.74,134.81c-.12.28-.18.71-.38.79s-.54-.19-.82-.32c.12-.28.18-.71.39-.79S6.47,134.69,6.74,134.81Z"/><path class="cls-81" d="M12.12,151.1a2,2,0,0,1,1,2A2.08,2.08,0,0,1,12.12,151.1Z"/><path class="cls-81" d="M11.11,148.08c0,.67,0,1.34,0,2C10.1,149.43,10.11,148.76,11.11,148.08Z"/><path class="cls-10" d="M13.13,97.07a2.07,2.07,0,0,1,1,2A2,2,0,0,1,13.13,97.07Z"/><path class="cls-81" d="M11.12,150.09l1,1Z"/><path class="cls-78" d="M17.1,110.07l-1,1Z"/><path class="cls-83" d="M15.17,99c0-1.32,0-2.63,0-4,.72-2,.47-4.29,2-6,2.89,2.09,5.77,4,9.64,2.31,1-.44,2.24-.23,3.37-.32a2.14,2.14,0,0,1,3-1.29c2.44,2.63-.11,5.89,1.11,8.68a2.45,2.45,0,0,1,.14,1.34,12.18,12.18,0,0,1-2,2.74c-1.13,1.46-2,3-1.72,5,.49,3,2.77,0,3.92,1.08a3.21,3.21,0,0,1,1.13,1.5,3,3,0,0,1-.25,1.31c-1.28,2-4.18,2.42-5,4.93-1,2.86-.27,5.74-.08,8.62a12.5,12.5,0,0,0,.91,5.33,3.79,3.79,0,0,1-.45,4.18c-1.51,1.89-2.51-.81-4.2-.32,1.58,4.18,7.14,5.73,7.11,10.78,0,4.46,2.64,8.08,3.73,12.64,1-1.63.75-3.38,2.13-4.26a9,9,0,0,1,1.09-.87,5.68,5.68,0,0,1,1.26-.62l.69,0c.75.17,1.07.82,1.49,1.36v1c-.36.3-.64.69-1,1v1c-.38.29-.64.69-1,1,.27,1,.6,1.89.81,2.85.26,1.17.34,2.33-.82,3.15h0a8.16,8.16,0,0,0,0,1c.12.92-.34,2.28.93,2.49,1.54.25,1.6-1,1.79-2.24A2.62,2.62,0,0,1,49,162.71a1.43,1.43,0,0,1,.42,2.11c-1.23,2.16-1.19,2.19.72,4.29-1.71,1-3.25,2.1-3.7,4.25-.28,1.3-1.49,1.61-2.64,2s-2,.14-2.43-1a8.75,8.75,0,0,0-1.2-2.71c-1.17-1.39-1.9-1.5-3.77-.34l-1.27.79c-.33-.67-.67-1.33-1-2-.56-.45-.46-1.1-.5-1.71,0,.61.07,1.26-.49,1.71,0,.34,0,.67,0,1-.33.47-.66.47-1,0h-1a2.87,2.87,0,0,1-.93-.87,4.43,4.43,0,0,1-.48-1.2c0-.21,0-.42,0-.64.28-1.22,1.06-2.27,1.2-3.54a8.17,8.17,0,0,1,.6-2.43c-.21-.48,1.28-.22.42-1a3.35,3.35,0,0,1-.51-1.08c0-1.4-1.13-1.89-2.14-2.47-3.27-4.2-3.76-9.49-5.6-14.25a23.31,23.31,0,0,1-2.07-2.78c-.48-2.4-.55-4.9-2-7a4.94,4.94,0,0,1-.22-4.77c2.15-5.26,1.24-10.61.74-16h0c.1-1.11-1.37-2-1.19-2.42,1.42-3.08-.77-5.72-.81-8.59.47-1.75,1-3.48,1.39-5.25a1.18,1.18,0,0,0-1.13-1.35,1,1,0,0,0-1.09.78c-.19.63-.21,1.32-.46,1.92S15.84,99,15.17,99Z"/><path class="cls-8" d="M21.09,71a19.75,19.75,0,0,0-1,7c0,.2,0,.39,0,.59a3,3,0,0,1-1,1.41h0l-.52.37L18.1,80C16.89,76.31,18.51,73.51,21.09,71Z"/><path class="cls-8" d="M18.15,84.06a2.24,2.24,0,0,1-1,2c0-1.3,0-2.6,0-3.9a2.61,2.61,0,0,1,1-2.14l.08.07A4.16,4.16,0,0,1,18.15,84.06Z"/><path class="cls-68" d="M25.15,75.06c-.23,2.39-2.43,3.78-3,6-1.13.6-1.44-.42-2-1h0a1.38,1.38,0,0,1,0-2h0a4.08,4.08,0,0,0,2.1-2.57C22.89,73.82,23.05,73.85,25.15,75.06Z"/><path class="cls-84" d="M29.13,66.05a4.22,4.22,0,0,1-1.27-.42A.6.6,0,0,1,28,64.54a.83.83,0,0,1,.77.24,5.23,5.23,0,0,1,.4,1.27Z"/><path class="cls-8" d="M27.11,61.05v1l-1,0C26.45,61.71,26.78,61.38,27.11,61.05Z"/><path class="cls-8" d="M25.13,63.05l1-1Z"/><path class="cls-8" d="M24.14,64.06l1-1Z"/><path class="cls-8" d="M29.11,60h-.49l-.49,0,1-1C29.11,59.38,29.12,59.71,29.11,60Z"/><path class="cls-85" d="M69.15,105.07c.14.47.53,1.08.36,1.4a2.35,2.35,0,0,0-.13,2.56,4.68,4.68,0,0,1-4,6.74,2.74,2.74,0,0,1-2.13-1.12,4.55,4.55,0,0,0-4.5-1.39c-1.88.35-2.09,0-1.9-1.61.12-1,.2-2,.35-3,.26-1.77.82-2.13,2.69-1.77.65.12,1.29.31,1.94.45,1,.21,1.12-.32,1-1.11-.11-.61.21-1,.79-.87,1.46.39,2-.29,2.56-1.56.71-1.69.83-1.64,2.59,0a3,3,0,0,0,.41.28Z"/><path class="cls-15" d="M48.16,111.06c1.58.06,3,1.28,4.78.36.71-.37,1.51.43,1.86,1.24s.26,1.8-.58,2.13a2.82,2.82,0,0,0-2.12,2.91,4,4,0,0,1-.63,2.31c-1,1.35-1.24,2.43-.14,3.95a5.28,5.28,0,0,1,.13,6c-1,1.53-.38,1.92.9,2.41.49.18.51.79.39,1.29-.19.79-.41,1.58-.61,2.37a13.48,13.48,0,0,0-1,1h0c-.24.23-.33.45-.24.67s.16.34.24.34h0c.67.8.45,1.74.43,2.64-2.61.54-2.64,4.58-5.86,4.29a5.28,5.28,0,0,1-1.38-4.64c.8-2.61.61-4.85-2.12-6.32a2.38,2.38,0,0,1-1.09-3.4c2.4-3.84,2.22-8.13,2.34-12.33.08-3.21,2.09-5,4.18-6.81Z"/><path class="cls-86" d="M53.14,86.06c.79-.1,1.62-.2,1.86-1.14.33-1.33.91-1.38,2-.64a8.48,8.48,0,0,0,2.17.78c-.46,1-1.68.91-2.38,1.42.31,1.7,2,1.24,2.72,2.16-.42.86-.89,1.71-1.25,2.61a2.36,2.36,0,0,1-1.17,1.34c-2.43,1.45-2.4,1.69-.52,4.13a3.44,3.44,0,0,1,.16,3.63c-.15.19-.59.22-.88.19-.53-.05-1.22-1.16-1.54-.17-.56,1.71-1.8,2.64-3,3.78a5,5,0,0,0-1.55,3.4c.1,1.62-1.21,2.29-1.56,3.51h0c-3.31.42-5.25-1.33-5.21-5.2a62.14,62.14,0,0,1,.22-6.81,8.18,8.18,0,0,1,.34-1.38c.54-1.56,1.11-3.11,1.8-4.62,1.94-4.28,2.26-4.35,6.1-1.53-1-1.27-3.65-2.18-3.1-4.12S51.39,86.2,53.14,86.06Z"/><path class="cls-87" d="M46.14,145.09c1.37-.8,1-2.57,2.06-3.61a2.25,2.25,0,0,1,2.94-.4c.61.07.63.72,1,1v2c-1.39,1.5-.63,3,.07,4.43a5.28,5.28,0,0,1-1.07,6.58c-1.53-.67-2.45-2-3.43-3.41a3,3,0,0,0-.27,3c.4,1.22-.2,2.23-.55,3.3a1,1,0,0,1-.69.55.93.93,0,0,1-.93-.92c-.1-1.13-.12-2.28-.14-3.42a2.6,2.6,0,0,0-1-2.13c-.67-.11-1.34-.62-2,0h0l-1,1h0c-2.59.31-2.73-1.66-3.16-3.36-.34-3.93.11-7.56,3.84-9.92C43.89,141,43.64,144.19,46.14,145.09Z"/><path class="cls-69" d="M51.14,155.09a8.35,8.35,0,0,1,.32-2.43c.68-1.54.77-2.8-.68-4-.44-.37-.56-1.17-.79-1.77-.91-2.33-.87-2.38,2.15-2.83.57,1.34,1.88,2.24,2.14,3.78.16,1,1,1.12,1.87,1.23-1.4,2.19-.91,4.65-1,7C52.68,157.1,52.68,157.1,51.14,155.09Z"/><path class="cls-69" d="M52.14,142.1l-1-1v-3C52.61,139.14,52,140.71,52.14,142.1Z"/><path class="cls-69" d="M51.14,138.09c-.68-.34-.68-.67,0-1Z"/><path class="cls-69" d="M51.14,137.08l1-1Z"/><path class="cls-88" d="M31.13,170.11c0,.33,0,.65,0,1a9.9,9.9,0,0,1-.74,3.71A1.58,1.58,0,0,0,31.53,177c1.64.47,1.57,1.78,1.61,3.06l0,0c-.33.45-.65.45-1,0h0a.59.59,0,0,0-1,0h-1c-.69-.49-.34-1.49-1-2h0c-1.64-2.43-4.3-4-5.56-6.77-.9-3.05-2.81-5.56-4.47-8.21l-3-1a.65.65,0,0,1-.24-.65c.06-.23.12-.34.19-.34l.06-2,1,0c.68-.52,1.89.79,2.3-.67,2.6-1.19,3.91-.35,4.2,2.5.2,2.1.53,4.25,3.21,4.72,3.2-.82,3.57,1,3.27,3.48h0C30.47,169.43,30.77,169.8,31.13,170.11Z"/><path class="cls-89" d="M19.1,163.12l.37-.29c1.85,2.6,4.94,4.49,4.67,8.29.43.83-.13,1.07-.77,1.26a1.9,1.9,0,0,1-1.05-.66l-.21-.61c-.88-2.06-1.52-4.24-3-6C19.11,164.44,19.1,163.78,19.1,163.12Z"/><path class="cls-6" d="M16.07,161.12c0,.33,0,.66.05,1a5.2,5.2,0,0,1-1,2.74c-.26.42-.54.89-1.12.72a.8.8,0,0,1-.51-1.13,7.69,7.69,0,0,0,.59-3.34C14.79,160,15.42,161,16.07,161.12Z"/><path class="cls-14" d="M81.15,216.12c0-.33,0-.67,0-1a2,2,0,0,0,1-2l2,1c-.62.9-1.23,1.79-1.86,2.69-.25.37-.54.79-1,.22C81.16,216.8,81.2,216.42,81.15,216.12Z"/><path class="cls-90" d="M29.14,195.1c-.34-.33-.67-.66-1-1,.11-1.39.73-2.2,2.23-1.73a1.82,1.82,0,0,1,1.05.93c.3.72-.22,1.23-.85,1.5A7.57,7.57,0,0,1,29.14,195.1Z"/><path class="cls-38" d="M37.15,217.1c0,.48,0,1,0,1.44s-.15,1-.8.9a.65.65,0,0,1-.39-.27.87.87,0,0,1,.08-1.25,8.06,8.06,0,0,1,1.16-.82Z"/><path class="cls-77" d="M56.15,180.1c.33-.67.67-1.34,1-2C58.15,179.47,58.05,179.65,56.15,180.1Z"/><path class="cls-54" d="M39.13,204.12a3.07,3.07,0,0,1,.69.6c.23.34.08.63-.32.68-.07,0-.23-.23-.25-.37a7,7,0,0,1-.11-.92Z"/><path class="cls-39" d="M39.13,215.12c.4.13.56.38.4.7-.06.13-.25.2-.38.29C39.14,215.78,39.13,215.45,39.13,215.12Z"/><path class="cls-56" d="M32.13,171.1h1c.06.15.11.29.16.44.13.4.48.91-.07,1.15s-.8-.23-.95-.68A5.4,5.4,0,0,1,32.13,171.1Z"/><path class="cls-56" d="M33.14,170.1c0-.48,0-1.24.49-1.24s.46.76.5,1.24h-1Z"/><path class="cls-91" d="M32.12,180.12h1a18.74,18.74,0,0,0,1.09,1.55c1,1.1.77,2-.44,2.7a2.89,2.89,0,0,0-.6.73C31.07,183.8,31.79,181.92,32.12,180.12Z"/><path class="cls-91" d="M34.11,186.12c-.32-.35-.64-.68-1-1C33.47,185.44,33.79,185.77,34.11,186.12Z"/><path class="cls-92" d="M33.13,90.07a6.75,6.75,0,0,0-3,1c-1.35-2-1.1-3.65.71-5.24,1.49-1.32,2.84-2.79,4.21-4.23.89-.92.86-.93-.76-1.83a1.21,1.21,0,0,1-.44-.66c0-.08.14-.33.27-.38,2.21-1,3.51-2.93,5-4.66.76-.33,1.5-.72,2.28-1s1.6-.68,1.63-1.62c0-1.65,1-2.25,2.43-2.66s1.38-.51,1.93,1.24,1.68,2.19,3.22.85a3.25,3.25,0,0,0,.51-.85c1-1,1.18.64,2,.53,1.12-.15,2.74.82,2.47-1.6-.05-.44.84-.94,1.17-1.48,1-1.59,2.16-1.09,3.39-.44l1,2c-.1.8-.25,1.66-1.16,1.86-1.53.34-2.24,1.68-3.27,2.6-.53.46-.17,1.15.41,1.56a1.38,1.38,0,0,1,2,0c-.64,1.06-1.83,1.33-2.81,1.9-1.28.75-2.62,1.4-2.78,3.16,0,.24-.5.66-.51.66-1.62-1.2-3.59.8-5.14-.54-1.36-1.19-3.35-1.3-4.55-2.82a1.2,1.2,0,0,0-1.74.3,1.24,1.24,0,0,0,0,1.77,20.31,20.31,0,0,0,2.48,1.56c1.23,1.65,0,2.79-1,3.74C40.29,87.42,37.14,89.59,33.13,90.07Z"/><path class="cls-47" d="M20.13,80.06l2,1a3.28,3.28,0,0,1-.46.8c-.94.85-1.3.76-1.49-.39A10.81,10.81,0,0,1,20.13,80.06Z"/><path class="cls-47" d="M18.15,84.06l0-4c.31,0,.63,0,.95,0C19,81.44,19.59,83,18.15,84.06Z"/><path class="cls-47" d="M20.13,78.05v2h-1A2.08,2.08,0,0,1,20.13,78.05Z"/><path class="cls-69" d="M56.14,157.09l-1-1Z"/><path class="cls-93" d="M23.14,172.09l1-1c2.12,1.21,2.95,3.62,4.76,5.14.35.29.17,1.21.23,1.84-1.12-.52-2.18-.83-2.8.71-.22.57-.15,1.58-.93,1.52s-1.12-1-1.23-1.85.16-2-.69-2.86c-1.7-.53-3.76,1.64-5.35-.52a1.88,1.88,0,0,0,2-1.57,3.18,3.18,0,0,1,2-2.42h0C22.42,171.48,22.83,171.73,23.14,172.09Z"/><path class="cls-94" d="M20.13,190.1c0-1,0-2,0-3a1.38,1.38,0,0,1,.95-1.5c1.46-.55,1-1.51.29-2.27a8.66,8.66,0,0,1-2.62-4.67c1.32.85,2.66,1.65,3.93,2.55a1.84,1.84,0,0,1,.79,2.16,2.35,2.35,0,0,0,.66,2.26c.45.59.61,1.35,0,1.73-1.39.82-2.1,2.64-4,2.72Z"/><path class="cls-93" d="M17.13,174.1a5.27,5.27,0,0,1,1.23-4c1,2.17,1,2.18-.23,5Z"/><path class="cls-54" d="M26.13,190.11a6.38,6.38,0,0,1,.38-1.33c.08-.16.49-.16.75-.24,0,.26.12.62,0,.75a7,7,0,0,1-1.12.81Z"/><path class="cls-91" d="M29.13,178.1a2.06,2.06,0,0,1,1,2c-.42.4-.81.37-.92-.22A11.61,11.61,0,0,1,29.13,178.1Z"/><path class="cls-91" d="M31.13,180.1c.34-.68.67-.69,1,0Z"/><path class="cls-95" d="M42.14,140.09c-1.24.62-2.15,1.39-1.54,3,.16.41.18,1.27.06,1.31-2.68.89-1.42,3-1.52,4.69a2.36,2.36,0,0,1-3.45-1.71c-1.09-5.68-4-11.19-1.88-17.22a4.53,4.53,0,0,1,.87-.88,8.43,8.43,0,0,1,.93-.63,2.2,2.2,0,0,0,1-1,1.56,1.56,0,0,0-.3-.93,10.16,10.16,0,0,1-1.69-2.39,4.18,4.18,0,0,1-.3-1.29c1-3,2.68-5.53,5.9-6.65A8.3,8.3,0,0,0,36.75,114c-1-.68-2.09-1.37-1.61-2.89h0c1.82-2.53,3.7-1,5.77-.23-4.56-2.64-8.34-5.73-6.78-11.78h0c-1.18-3.56,1.24-6.84,3.18-8,4-2.44,6.36-6.23,9.83-9a13.73,13.73,0,0,1,3.81.77c1.9.44,2.3,1.59,2.19,3.23-.46.92-1,1.76-2.22,1.36-.61-.19-1.21-.48-1.92.17,1.52,1.84,3,3.67,4.54,5.53.3.37.51.93-.12,1.22-.23.1-.62-.08-.91-.19-1.48-.59-1.82-2.28-3-3.17-1-.73-1.76-.64-2.28.49-1,2.2-1.57,4.62-3.07,6.6a21.07,21.07,0,0,0-1.4-2c.46.66.9,1.33,1.4,2-.51,2.55,1.14,5.16-.21,7.71-.19.36,1.89,4.92,2.28,5a12.12,12.12,0,0,0,1.93.25c.8,2.4.81,2.43-1.27,3-1.34.37-2.92.54-1.35,2.48a.59.59,0,0,1,.16.45,1.78,1.78,0,0,1-.39.88,3.75,3.75,0,0,0-.81,4.59c1,2.18.26,3.92-1,5.55a7.2,7.2,0,0,0-1.65,4.52c4.56,2.46,5.09,3.69,3.28,7.54-2.09-.3-1.45-5.58-5.21-2.85-.54.39-.19-.08-.19.39,0,.73.68-.08,1.07.07a3.3,3.3,0,0,1,1.8.76C43.08,139.18,44,140.06,42.14,140.09Z"/><path class="cls-96" d="M47.14,82.06c-.59,1.37-.47,3-2.17,3.94-.75.39-1.09,1.59-1.56,2.46a2.83,2.83,0,0,1-2.29,1.62c-2.37.25-4,1.26-4.2,4-.07.84-1,1.65-1.64,2.38a4.18,4.18,0,0,0-1.15,2.66c-1.37-.15-2.29-.85-1.72-2.25.9-2.22.66-4.49.72-6.75,2-1.15,3.57-2.72,5.8-3.6s4.66-2.47,5.21-5.41C46,80.43,46,80.43,47.14,82.06Z"/><path class="cls-97" d="M59.14,75.07h-2c.42-1.1,1.8-.71,2.37-1.51.32-.45.1-1.47,1.14-1a2.24,2.24,0,0,1,.7,2.58C60.64,76,59.88,75.25,59.14,75.07Z"/><path class="cls-96" d="M42.13,152.08c.67-1,1.34-1,2,0,0,.33,0,.67,0,1Z"/><path class="cls-96" d="M42.15,157.1l1-1Z"/><path class="cls-96" d="M43.14,155.09l1-1Z"/><path class="cls-98" d="M20.13,113.07c1.32,1.19,2.2,2.48,1.38,4.36-.19.44-.4,1.1-.21,1.44,1.65,3-.63,5.83-.3,8.77a4.58,4.58,0,0,1-.83,2.31,2.56,2.56,0,0,0,.38,3.17,9.22,9.22,0,0,1,1.62,7.95l-.6.33a2.22,2.22,0,0,1-1.24-.44c-1.7-1-1-4.48-4.18-3.86a15.08,15.08,0,0,1,.91-2.78,7.09,7.09,0,0,0-.06-7.51c-1.06-1.79-1.05-3.4.55-4.88.81.55.42,1.53.84,2.19a1,1,0,0,0,.78.42c.24,0,.7-.35.68-.5-.24-1.73.58-3.72-.59-5.16s-.74-2.7,0-4C19.53,114.25,19.83,113.66,20.13,113.07Z"/><path class="cls-99" d="M16.15,137.1l2.77-2.32c0,2.45,1.28,4.31,2.19,6.3.42,2.18.61,4.32-.85,6.25a3.51,3.51,0,0,1-3.14-.22l-1,0A11.4,11.4,0,0,1,16.15,137.1Z"/><path class="cls-100" d="M10.21,134.23a5.77,5.77,0,0,1,.89-1.39,1.39,1.39,0,0,1,1.31-.2,1.73,1.73,0,0,1,.51,1.27,1.81,1.81,0,0,1-1,1.61,1.28,1.28,0,0,1-.93.15C10.5,135.53,10.27,135.08,10.21,134.23Z"/><path class="cls-101" d="M27.16,167.07c-1.36.06-2.65,0-3.28-1.54s-1.91-3-1.52-5c.36-1.87.1-1.91-2.22-1.53-.32.06-.65.07-1,.11-.66-1.14-.9-2.07,1-2a3.72,3.72,0,0,1,2.31-.39c1.39.39,1.57-.62,1.71-1.63,1.19-1.51-.27-2.12-1-3l0,0a2.46,2.46,0,0,1-1.58-2.1,9.9,9.9,0,0,1,.88-3.3c.54-1.22.54-2.7,1.72-3.62.83.14,1.67.37,1.83,1.31s.1,1.94.17,2.91c.1,1.35-.53,3,1.55,3.57.25.06.45.86.42,1.31-.13,2.26,1.16,4,2.06,5.9-.06.2-.12.4-.17.6-.6,1.14-.92,2.13,1,2a2,2,0,0,1,1.12.41h0a.62.62,0,0,1,.23.66c-.08.22-.15.33-.23.33v3C30.65,166.19,27.94,164.22,27.16,167.07Z"/><path class="cls-87" d="M22.12,150.06l1,2.05a14.81,14.81,0,0,0-1.26.79c-.66.5-1.39,1.27-2.16.63a2.77,2.77,0,0,1-1.16-3.06c.22-.71,1.47-1.19.63-2.1a6.44,6.44,0,0,0-1.74-.87c-.13-.07-.2-.26-.3-.39l3,0C22.62,146.81,21.37,149.12,22.12,150.06Z"/><path class="cls-83" d="M23.14,152.09c.32,0,.64,0,1,0,.84,0,1.67.23,1.82,1.22.19,1.31-.74,1.6-1.77,1.73A6.62,6.62,0,0,1,23.14,152.09Z"/><path class="cls-81" d="M20.13,157.09a1.94,1.94,0,0,0-1,2c-.68,1.14-1.35.11-2,0,.45-.87.86-1.76,1.34-2.61.23-.41.66-.89,1.11-.62S20,156.66,20.13,157.09Z"/><path class="cls-96" d="M35.13,130.08a2.46,2.46,0,0,0-.92,2.62c.15,1.2,1.28,2.39-.15,3.61-.33.29.41.65.8.86a1.78,1.78,0,0,1,.58.62c-1.49,1.84-.13,3.36.47,5a5.59,5.59,0,0,1,.63,2.84c-.55,2.36,1.2,2.73,2.6,3.47-.08,1.7.16,3.24,2,4-2.1,1.48-2.35,3.39-1.38,5.66.21.5-.23.92-.73,1.09a1.09,1.09,0,0,1-1.35-.31,44.79,44.79,0,0,1-3.46-7.39A9.69,9.69,0,0,0,33,149.45a2.23,2.23,0,0,1-.43-2.3c.63-1.87-.64-3.51-.76-5.3a1.68,1.68,0,0,0-.85-1.16c-2.42-1-3.54-3.41-5.45-5-1.31-1.08-.4-3.88,1.32-4.26a1.6,1.6,0,0,1,1.32.44,19.15,19.15,0,0,1,1.52,2.37c.89-.9,1.75-2,.81-3-1.62-1.86-1.35-4-1.37-6.13,1.74-1.86,3.65-2.74,6-1h0c-.41,2.4,1.51,2.49,3,3v1c-.54.57-1.47.39-2,1h0C35.8,129.41,35.44,129.72,35.13,130.08Z"/><path class="cls-102" d="M35.14,124.08c-2.11-.34-4,.71-6,1a7.82,7.82,0,0,0-.06-1.94,11.49,11.49,0,0,1,0-6.13,8.26,8.26,0,0,0,.05-1.93c2.05-.58,2.3,1.29,3.37,2.61,1-2.15,1.7-4.63,4.62-4.6,2.72.12,4,1.78,4.64,4.23.15.62.6,1.36,0,1.81s-1.09-.26-1.48-.73A2.79,2.79,0,0,0,40,118c-.56-.52-1.29-.7-1.53.13-.41,1.44-.66,2.75-2.45,3.3C35,121.76,35.18,123.11,35.14,124.08Z"/><path class="cls-96" d="M34.13,99.07c1.3.66,2.25,1.47,1.44,3.1-.22.45-.39.91-.62,1.36a1.59,1.59,0,0,0,.95,2.39,11.13,11.13,0,0,1,6.3,5.85c-1.61.64-2.8-.71-4.21-.92a4.67,4.67,0,0,0-2.85.23c-1-2.19-1-2.21-2.63-1.44-2.14,1-2.24.79-2.92-1.16-1.28-3.69,1-5.83,3.08-8.15A13.62,13.62,0,0,1,34.13,99.07Z"/><path class="cls-96" d="M37.12,113.09c0,1-.39,1.53-1.5,1.31-.5-.1-1.29.29-1.11.59,1.31,2.13-1.56,2.77-1.49,4.44,0,.37-.46,1.06-.76,1.09-.83.1-1.06-.65-1.07-1.31,0-1.72-.19-3.34-2.06-4.13a21.68,21.68,0,0,1,6-4A3.5,3.5,0,0,0,37.12,113.09Z"/><path class="cls-56" d="M27.16,167.07a3.77,3.77,0,0,1,.13-1c1.1-2.78,1.11-2.77,3.89-1.22a3.21,3.21,0,0,0,1,.2c.19,1.77-1.46,2.62-2,4-.23-.23-.61-.41-.67-.67C29,166.36,29,166.35,27.16,167.07Z"/><path class="cls-56" d="M32.13,161.1h-1l-.5-.33a4.2,4.2,0,0,1-.9-1.56,1.22,1.22,0,0,1,.32-1.09l.12,0a8.48,8.48,0,0,1,1.32-.57c1.08-.24,1.49.18,1.26,1.26C32.57,159.56,32.33,160.33,32.13,161.1Z"/><path class="cls-87" d="M24.13,143.09c-.14,1.38.46,2.94-1,4a5.72,5.72,0,0,1-1-6l.07,0A1.83,1.83,0,0,1,24.13,143.09Z"/><path class="cls-56" d="M31.13,170.11l-1-1Z"/><path class="cls-77" d="M42.14,163.09c-.14-.07-.41-.18-.4-.22.07-.33.23-.25.4.23Z"/><path class="cls-56" d="M32.13,162.09v-1Q33.17,161.6,32.13,162.09Z"/><path class="cls-96" d="M41.13,153.08l1-1Z"/><path class="cls-103" d="M41.14,138.09c-1.38.35-1.65,1.95-2.84,2.51a.59.59,0,0,1-.48-.06c-.12-.07-.28-.25-.27-.38a8.08,8.08,0,0,1,2.24-4.72c1.35-1.53,2.83-1.26,3.8.59a9.61,9.61,0,0,1,1.56,4.06c-.32,1.8.9,3.28,1,5-1.17.57-2.18.7-2.88-.73a7.77,7.77,0,0,1-1.12-4.27c.68-.34.68-.67,0-1C41.79,138.76,41.81,138.08,41.14,138.09Z"/><path class="cls-88" d="M23.14,172.09l-1-1Z"/><path class="cls-102" d="M38.13,127.09a9.71,9.71,0,0,0-4.33.58.8.8,0,0,1-1.14-.49c-.18-.61.31-.9.78-1a2.07,2.07,0,0,0,1.7-2.09Z"/><path class="cls-86" d="M44.14,98.07c-1.07-.74-2.15-1.47-3.21-2.23a1.05,1.05,0,0,1-.36-1.29,1.46,1.46,0,0,1,.59-.74c.74-.39,1.27.08,1.6.64a7.41,7.41,0,0,1,1.38,3.62Z"/><path class="cls-87" d="M41.14,138.09c.9-.49.9-.49,1,1Z"/><path class="cls-102" d="M36.14,129.08a2,2,0,0,1,2-1A2,2,0,0,1,36.14,129.08Z"/><path class="cls-102" d="M35.13,130.08l1-1Z"/><path class="cls-104" d="M22.1,141.1c1.29,1.83,1,3.94,1,6a6.81,6.81,0,0,1-1,3c-1.29-.58-.71-2.42-2-3l.06-3.88a2.57,2.57,0,0,1,1-2.12Z"/><path class="cls-104" d="M30,158.12c.05.32.09.64.11,1,.6.53.33,1.49,1,2h0a2.09,2.09,0,0,1-3,.63c-.82-.52,0-2.49,1.46-3.52C29.68,158.12,29.88,158.15,30,158.12Z"/><path class="cls-87" d="M24.88,150.12l-.28.35c-.08-.13-.21-.27-.2-.4s.17-.23.27-.35Z"/><path class="cls-101" d="M31.13,161.1a2,2,0,0,1-1-2A2.06,2.06,0,0,1,31.13,161.1Z"/></g></g></svg>