<svg xmlns="http://www.w3.org/2000/svg" viewBox="0 0 160.67 158.59"><defs><style>.cls-1{isolation:isolate;}.cls-2{fill:#c8d0d7;}.cls-3{fill:#b7c0c8;}.cls-4{fill:#848c90;}.cls-5{fill:#e5e5e5;mix-blend-mode:multiply;}.cls-6{fill:#222;}</style></defs><title>newAsset 30</title><g class="cls-1"><g id="Layer_2" data-name="Layer 2"><g id="Layer_1-2" data-name="Layer 1"><circle class="cls-2" cx="81.37" cy="79.3" r="79.3" transform="translate(-32.24 80.76) rotate(-45)"/><path class="cls-3" d="M82.71,127a3.78,3.78,0,0,1,1.89,3.27,3.8,3.8,0,0,0,2.61,3.61,3.94,3.94,0,0,0,4.43-1.48,5.06,5.06,0,0,0-.25-6.1l-.77-1a4.94,4.94,0,0,0-3.37-1.78,3.22,3.22,0,0,1,.3-6.43A3.85,3.85,0,0,1,91,119.35l1.36,2.83a3.83,3.83,0,0,0,7.26-1.32l.1-1.16a1.49,1.49,0,0,1,1.77-1.32,6,6,0,0,0,6.13-2.51,6.18,6.18,0,0,0-3.41-9.4l-2.61-.75a4,4,0,0,1-2.79-2.84,5.09,5.09,0,0,0-4.92-3.79h-.62a1.8,1.8,0,0,1-1.78-1.54,5.12,5.12,0,0,0-3.38-4.11,4.47,4.47,0,0,0-5.48,6.18l.1.19a5.31,5.31,0,0,0,2.55,2.51,3.34,3.34,0,0,1-1.4,6.37,3.81,3.81,0,0,1-3.74-3.15l-.09-.5a7.62,7.62,0,0,0-2.43-4.39,3.76,3.76,0,0,0-6,4.2l.25.65a5.49,5.49,0,0,1,.39,2.27,5.85,5.85,0,0,1-3.55,5.12l-.35.15a4.42,4.42,0,0,1-4.51-.63,4,4,0,0,1-.81-5.37,8.55,8.55,0,0,0,1.17-2.7l.53-2.16a4.43,4.43,0,0,0-5.48-5.31l-1.6.44A3.23,3.23,0,0,1,54,92.6h0a5.25,5.25,0,0,0,.24-4.77L54,87.34a6.66,6.66,0,0,1,2.71-8.47,4.93,4.93,0,0,1,4.78-.12h0a4.93,4.93,0,0,1,2.64,4.37,9.85,9.85,0,0,0,2.88,6.95l2.43,2.42a7,7,0,0,0,11.33-2l.38-.84a2.5,2.5,0,0,0-1.75-3.49A2.28,2.28,0,1,1,80.5,81.7l1.52.4a5.32,5.32,0,0,0,6.54-6.34,6.5,6.5,0,0,0-5.52-5,7.12,7.12,0,0,0-4.72,1L74.86,74A2.14,2.14,0,0,1,72,71l.41-.56A4.25,4.25,0,0,0,73,66.81a3.87,3.87,0,0,0-6.64-1.5l-.79.91a2.2,2.2,0,0,1-3.75-2.12l.61-1.93a3.32,3.32,0,0,0-5.21-3.63l-.52.41a3.7,3.7,0,0,1-4.05-.31A3.11,3.11,0,0,1,55,53.09l1.83.26a12.6,12.6,0,0,0,7.28-1.14,3.6,3.6,0,0,0,.56-6.13l-1.2-.89a5.53,5.53,0,0,1-2.21-4.89,5.49,5.49,0,0,0-1.34-4.08l-.49-.56a10.7,10.7,0,0,0-15.58-.55l-1.28,1.27a6,6,0,0,1-3.86,1.75l-.3,0a5.69,5.69,0,0,0-5.2,4.62,4.55,4.55,0,0,1-3.51,3.59,5.77,5.77,0,0,0-2.77,9.83,7.4,7.4,0,0,1,2.17,4l.54,3A7.26,7.26,0,0,1,20,71.35a9.05,9.05,0,0,1-5.65-6.07L14,64a5,5,0,0,1,3-6,5,5,0,0,0,2.79-2.76L24.6,43.33a2.89,2.89,0,0,0-4.43-3.39l-5.19,4a6.57,6.57,0,0,0-2.45,6.55h0a3.64,3.64,0,0,1-6.11,3.35l-.35-.34A79.22,79.22,0,0,0,8.73,110.1a33.28,33.28,0,0,0,11.61,5.14,7.3,7.3,0,0,1,5.15,4.34L27.72,125a6.16,6.16,0,0,0,5.06,3.79A9.08,9.08,0,0,1,40,133.72a2.76,2.76,0,0,0,3.15,1.42h0a2.77,2.77,0,0,0,2.06-2.72l-.1-4.54a1.81,1.81,0,0,1,3.33-1l2.12,3.3a2.53,2.53,0,0,0,4.64-1l.66-4.38a5.18,5.18,0,0,1,.3-1.09,6.27,6.27,0,0,1,6.74-3.79,4.43,4.43,0,0,1,3.77,4.35,4.23,4.23,0,0,1-.26,1.54L64.86,130a7.83,7.83,0,0,0,2.21,8.51,6.7,6.7,0,0,0,11.11-4.87l0-1.8a7.35,7.35,0,0,1,1.48-4.23A2.31,2.31,0,0,1,82.71,127Z"/><path class="cls-3" d="M136.83,64.81l-1.35-2.42a8.68,8.68,0,0,0-2.55-2.81,8.49,8.49,0,0,0-7.12-1.23,5.51,5.51,0,0,1-4.12-.4l-.41-.22a5.82,5.82,0,0,1-3-4.4l0-.26a6,6,0,0,1,.83-4A5.87,5.87,0,0,1,125,46.42a11,11,0,0,1,7.41,4.92,3.81,3.81,0,0,0,3.07,1.74l2.71.11A2.77,2.77,0,0,0,140.57,52,2.56,2.56,0,0,1,144,51.3a2.71,2.71,0,0,1,1.22,2.51,5.4,5.4,0,0,1-1.75,3.68l-.13.12A4,4,0,0,0,142,60.07a3.91,3.91,0,0,0,2.55,4.17h0a4.57,4.57,0,0,0,6-3.63,1.72,1.72,0,0,1,2.19-1.47l5.3,1.62a78.09,78.09,0,0,0-8-20.14,20.85,20.85,0,0,1-4.87,3.1,2.73,2.73,0,0,1-3-.35,2.64,2.64,0,0,1-.07-3.94l4.56-4.21a79,79,0,0,0-13-14.78,17.55,17.55,0,0,0,.39,6.76l.21.8a2.81,2.81,0,0,1-.85,2.81,2.34,2.34,0,0,1-3.13-.22,2.2,2.2,0,0,0-3,0,3.79,3.79,0,0,0-.9,4.29l.86,2a2.55,2.55,0,0,1-.6,2.94,2.49,2.49,0,0,1-3.53-.28,11.11,11.11,0,0,1-2.58-7.93v-.12a2.57,2.57,0,0,0-3.25-2.65,8,8,0,0,1-7.94-2.13l-1.19-1.22a1.8,1.8,0,0,0-2-.37,1.78,1.78,0,0,0-.9,2.28l1.93,4.88a3.93,3.93,0,0,1-3.76,5.38l-2.16-.05a3.93,3.93,0,0,1-3.55-2.49,5.72,5.72,0,0,0-1.87-2.45l-2.86-2.12a4.27,4.27,0,0,1-1.51-2.15,4.18,4.18,0,0,0-2.67-2.76l-.59-.2a4,4,0,0,1-2.24-5.56,2.58,2.58,0,0,0-.46-3l0,0a2.72,2.72,0,0,0-3.32-.41l-.11.06a2.8,2.8,0,0,0-1.35,2.27,2.12,2.12,0,0,1-2.62,1.95l-.22,0a10.36,10.36,0,0,1-7.72-8c0-.08,0-.15,0-.22a4.55,4.55,0,0,0-4.06-3.61l-.63-.05a3.42,3.42,0,0,0-2.59.88l-.26.24a47.16,47.16,0,0,1-10.7,7.39l-.19.1A74.44,74.44,0,0,0,35.23,28.78l-3.8,3.44a2.67,2.67,0,0,0-.65,3.08,2.77,2.77,0,0,0,2.57,1.59h.15a2.67,2.67,0,0,0,1.87-.76l5.42-5.26,1.68-1.61a7,7,0,0,1,6.38-1.78l.2,0a20.29,20.29,0,0,0,8,.17l.08,0a2.55,2.55,0,0,0,2.1-2.51V24.07a2.4,2.4,0,0,0-1-1.89,2.27,2.27,0,0,1-.37-3.27l2.75-3.31a4,4,0,0,1,1.81-1.2l0,0a3.49,3.49,0,0,1,4.35,2.28l0,.09a6.81,6.81,0,0,0,5.26,4.64l1,.18a2.55,2.55,0,0,1,2.1,2,2.47,2.47,0,0,1-2.39,3l-1.42,0a5.5,5.5,0,0,0-5.12,3.76l0,.06a3.4,3.4,0,0,0,.82,3.5h0a3.38,3.38,0,0,1,1,2.3,14.17,14.17,0,0,0,3.26,9l1.84,2.08A10.55,10.55,0,0,1,75.72,53a4.83,4.83,0,0,1-.32,2.32l-.12.3a5.68,5.68,0,0,0,1.8,6.54l.06,0a5.9,5.9,0,0,0,4.26,1.23l4-.42a5,5,0,0,0,3.91-2.71l0-.07a5.11,5.11,0,0,0-.66-5.57s-.09-.1-.13-.16a6.37,6.37,0,0,1-1.3-5.72l.13-.49a3.35,3.35,0,0,1,3.11-2.51h.07a4.08,4.08,0,0,1,3.33,1.51l.24.29a5.27,5.27,0,0,1,1.13,4v.07a5.08,5.08,0,0,0,1.35,4.2l1.87,2a9,9,0,0,0,5.88,2.77h.13a8.68,8.68,0,0,0,5.78-1.71l.74-.55a3.09,3.09,0,0,1,3.7,0l0,0a3.16,3.16,0,0,1,1.21,3l-.25,1.43a3.89,3.89,0,0,0,1.08,3.47,3.76,3.76,0,0,0,5.17,0l.18-.17a3.67,3.67,0,0,1,3.27-1,3.53,3.53,0,0,1,2.73,2.7,5.39,5.39,0,0,0,5.2,4.29h-1a5.21,5.21,0,0,0,3.09-.93A4.92,4.92,0,0,0,136.83,64.81Z"/><path class="cls-3" d="M126.75,14.29a78.56,78.56,0,0,0-14.42-8L110.8,8.37a8,8,0,0,0,4.42,12.42l.15,0a14.71,14.71,0,0,1,5.74,3,4.81,4.81,0,0,0,4.65.87,3.87,3.87,0,0,0,.64-7,1.74,1.74,0,0,1-.23-2.87Z"/><path class="cls-3" d="M26.27,82.6a14.15,14.15,0,1,1-4.08,19.58A14.14,14.14,0,0,1,26.27,82.6Z"/><path class="cls-4" d="M27.76,101.59A14.16,14.16,0,0,1,31.84,82a14.39,14.39,0,0,1,3.49-1.64,14.14,14.14,0,1,0,3,27.55A14.11,14.11,0,0,1,27.76,101.59Z"/><path class="cls-2" d="M34,109.22a14.79,14.79,0,1,1,8.09-2.42A14.74,14.74,0,0,1,34,109.22Zm0-28.29A13.5,13.5,0,1,0,45.32,87,13.42,13.42,0,0,0,34,80.93Z"/><path class="cls-3" d="M78.51,136.24a5.31,5.31,0,1,1,7.34-1.62A5.31,5.31,0,0,1,78.51,136.24Z"/><path class="cls-4" d="M85.85,134.62a5.31,5.31,0,0,0,.39-5,5.22,5.22,0,0,1-.68,1.69,5.31,5.31,0,0,1-9.35-.74,5.3,5.3,0,0,0,9.64,4Z"/><path class="cls-2" d="M81.37,137.72a5.95,5.95,0,1,1,5-2.75A5.94,5.94,0,0,1,81.37,137.72Zm0-10.62a4.67,4.67,0,1,0,2.5.73A4.68,4.68,0,0,0,81.38,127.1Z"/><path class="cls-3" d="M148.13,87.16a6.86,6.86,0,1,1,.59-9.68A6.86,6.86,0,0,1,148.13,87.16Z"/><path class="cls-4" d="M148.72,77.48a6.85,6.85,0,0,0-6.87-2.06,6.83,6.83,0,0,1-1.32,12.74,6.85,6.85,0,0,0,8.19-10.68Z"/><path class="cls-2" d="M143.59,89.53a7.5,7.5,0,1,1,5-1.89A7.49,7.49,0,0,1,143.59,89.53Zm0-13.72a6.2,6.2,0,0,0-6.2,5.84,6.21,6.21,0,1,0,6.2-5.84Z"/><circle class="cls-3" cx="98.69" cy="142.17" r="7.29"/><path class="cls-4" d="M99,146a7.27,7.27,0,0,1-7.17-6.16,7,7,0,0,0-.41,2.3,7.29,7.29,0,1,0,14.57,0,7,7,0,0,0-.11-1.13A7.27,7.27,0,0,1,99,146Z"/><path class="cls-2" d="M98.69,150.1a7.93,7.93,0,1,1,7.93-7.93A7.94,7.94,0,0,1,98.69,150.1Zm0-14.57a6.64,6.64,0,1,0,6.64,6.64A6.65,6.65,0,0,0,98.69,135.53Z"/><circle class="cls-3" cx="62.12" cy="21.04" r="5.57"/><path class="cls-4" d="M62.76,18.9a5.54,5.54,0,0,1,4.86,2.89,6.15,6.15,0,0,0,.07-.75,5.57,5.57,0,0,0-11.14,0,5.46,5.46,0,0,0,.72,2.69A5.55,5.55,0,0,1,62.76,18.9Z"/><path class="cls-2" d="M62.12,27.26A6.22,6.22,0,1,1,68.34,21,6.22,6.22,0,0,1,62.12,27.26Zm0-11.14A4.93,4.93,0,1,0,67.05,21,4.93,4.93,0,0,0,62.12,16.12Z"/><path class="cls-3" d="M29.76,64.32A8.28,8.28,0,1,1,21.48,56,8.28,8.28,0,0,1,29.76,64.32Z"/><path class="cls-4" d="M17.14,64.45a8.27,8.27,0,0,1,6.53-8.08A8,8,0,0,0,21.48,56a8.28,8.28,0,0,0,0,16.56,8.38,8.38,0,0,0,1.75-.2A8.26,8.26,0,0,1,17.14,64.45Z"/><path class="cls-2" d="M21.48,73.24a8.93,8.93,0,1,1,8.92-8.92A8.93,8.93,0,0,1,21.48,73.24Zm0-16.56a7.64,7.64,0,1,0,7.64,7.64A7.64,7.64,0,0,0,21.48,56.68Z"/><path class="cls-3" d="M120.4,129.83a5.57,5.57,0,1,1-5.57-5.58A5.57,5.57,0,0,1,120.4,129.83Z"/><path class="cls-4" d="M118,125.28a5.91,5.91,0,0,1,.11,1.12,5.56,5.56,0,0,1-8.78,4.54,5.57,5.57,0,1,0,8.67-5.66Z"/><path class="cls-2" d="M114.83,136a6.22,6.22,0,1,1,6.21-6.22A6.23,6.23,0,0,1,114.83,136Zm0-11.14a4.93,4.93,0,1,0,4.93,4.92A4.93,4.93,0,0,0,114.83,124.9Z"/><path class="cls-3" d="M147.87,52.6a5.15,5.15,0,1,1-7.13-1.43A5.14,5.14,0,0,1,147.87,52.6Z"/><path class="cls-4" d="M140.74,51.17a4.53,4.53,0,0,0-.75.61,5.14,5.14,0,0,1,5.59,8.41,5,5,0,0,0,.85-.46,5.14,5.14,0,1,0-5.69-8.56Z"/><path class="cls-2" d="M143.59,61.24a5.79,5.79,0,1,1,3.2-1A5.79,5.79,0,0,1,143.59,61.24Zm0-10.29a4.51,4.51,0,1,0,3.75,2A4.5,4.5,0,0,0,143.58,51Z"/><path class="cls-3" d="M56.8,89.24a5.15,5.15,0,1,1,6.39-3.48A5.14,5.14,0,0,1,56.8,89.24Z"/><path class="cls-4" d="M62.12,87.68a4.85,4.85,0,0,1-1.68-.18A5.12,5.12,0,0,1,58,79.19a5.13,5.13,0,1,0,4.08,8.49Z"/><path class="cls-2" d="M58.26,90.09a5.71,5.71,0,0,1-1.64-.24,5.78,5.78,0,0,1,1.64-11.33,5.71,5.71,0,0,1,1.64.24,5.78,5.78,0,0,1-1.64,11.33Zm0-10.29a4.52,4.52,0,1,0,1.28.19A4.67,4.67,0,0,0,58.26,79.8Z"/><path class="cls-3" d="M132.12,54.22a7.94,7.94,0,1,1-4.89-10.11A7.95,7.95,0,0,1,132.12,54.22Z"/><path class="cls-4" d="M127.23,44.11a7.93,7.93,0,0,0-7.37,1.15,7.93,7.93,0,0,1,4.85,14.27,7.93,7.93,0,0,0,2.52-15.42Z"/><path class="cls-2" d="M124.62,60.2a8.48,8.48,0,0,1-2.82-.48A8.59,8.59,0,0,1,124.62,43a8.48,8.48,0,0,1,2.82.48,8.59,8.59,0,0,1-2.82,16.7Zm0-15.89a7.31,7.31,0,1,0,2.4.41A7.3,7.3,0,0,0,124.62,44.31Z"/><path class="cls-5" d="M110.25,7.86A79.26,79.26,0,0,1,46.68,148.1,77.05,77.05,0,1,0,110.25,7.86Z"/><path class="cls-6" d="M79.3,0c2.06,0,4.09.15,6.11.31-26,14.13-44,44.14-44,79s18,64.85,44,79c-2,.15-4,.3-6.11.3A79.3,79.3,0,1,1,79.3,0Z"/></g></g></g></svg>