<svg xmlns="http://www.w3.org/2000/svg" viewBox="0 0 159.95 158.59"><defs><style>.cls-1{isolation:isolate;}.cls-2{fill:#c8d0d7;}.cls-3{fill:#b7c0c8;}.cls-4{fill:#848c90;}.cls-5{fill:#e5e5e5;mix-blend-mode:multiply;}.cls-6{fill:#222;}</style></defs><title>newAsset 28</title><g class="cls-1"><g id="Layer_2" data-name="Layer 2"><g id="Layer_1-2" data-name="Layer 1"><circle class="cls-2" cx="80.66" cy="79.3" r="79.3" transform="translate(-13.33 142.22) rotate(-78.31)"/><path class="cls-3" d="M79.44,127.08a1.64,1.64,0,0,1,1.63-.44,3.79,3.79,0,0,1,2.81,3.66,3.82,3.82,0,0,0,2.61,3.61,3.94,3.94,0,0,0,4.43-1.48,5.06,5.06,0,0,0-.24-6.11L89.61,125a3.55,3.55,0,0,0-2.71-1.42,3.22,3.22,0,1,1-.06-6.44,3.86,3.86,0,0,1,3.47,2.18l1.36,2.83a3.83,3.83,0,0,0,7.26-1.32l.1-1.16a1.48,1.48,0,0,1,1.76-1.32,6,6,0,0,0,6.13-2.51,6.17,6.17,0,0,0-3.4-9.4l-3.24-.93a2.81,2.81,0,0,1-2.06-2.16,5.09,5.09,0,0,0-5-4.29h-.61a1.79,1.79,0,0,1-1.78-1.54,5.13,5.13,0,0,0-3.39-4.11,4.46,4.46,0,0,0-5.47,6.18l.09.19a5.33,5.33,0,0,0,2.56,2.51,3.33,3.33,0,0,1,1.93,3.16c-.11,2.66-3.31,4.49-6,2.08a3.08,3.08,0,0,1-1-1.75l-.13-.77a7.63,7.63,0,0,0-3.15-5,2.45,2.45,0,0,0-1.3-.45,3.85,3.85,0,0,0-4,5.22l.26.65a5.33,5.33,0,0,1,.38,2.27A5.86,5.86,0,0,1,68,112.89l-.35.15a4.48,4.48,0,0,1-6.14-3.33,2.63,2.63,0,0,1,.47-2.19,8.5,8.5,0,0,0,1.52-3.18l.52-2.16a4.43,4.43,0,0,0-5.48-5.31L57,97.31a3.23,3.23,0,0,1-3.66-4.71h0a5.28,5.28,0,0,0,.23-4.77l-.21-.49A6.67,6.67,0,0,1,56,78.87a4.93,4.93,0,0,1,4.78-.12h0a4.93,4.93,0,0,1,2.64,4.71,7.25,7.25,0,0,0,2,5.71L69,92.76a4.89,4.89,0,0,0,1.24.94,7.1,7.1,0,0,0,9.82-3.23l.81-1.75a1.81,1.81,0,0,0-1.72-2.53,2.28,2.28,0,1,1,.6-4.49l1.52.4a5.33,5.33,0,0,0,6.55-6.34,6.51,6.51,0,0,0-5.53-5,7.11,7.11,0,0,0-4.71,1L74.14,74a2.13,2.13,0,0,1-2.87-3l.4-.56a4.19,4.19,0,0,0,.65-3.61,3.86,3.86,0,0,0-6.63-1.5l-.79.91A2.21,2.21,0,0,1,61.43,66a2.23,2.23,0,0,1-.29-1.93l.62-1.93a3.32,3.32,0,0,0-5.21-3.63L56,59a3.69,3.69,0,0,1-4-.31,3.1,3.1,0,0,1,2.31-5.55l1.82.26A12.56,12.56,0,0,0,63.4,52.2,3.59,3.59,0,0,0,64,46.08l-2-1.5a3.89,3.89,0,0,1-1.45-3.83,5.5,5.5,0,0,0-1.28-4.53l-.85-1a6.9,6.9,0,0,0-1.22-1.13,10.81,10.81,0,0,0-14,1l-1.77,1.77a4.25,4.25,0,0,1-2.66,1.2l-2.62.19a3.85,3.85,0,0,0-3.51,3.81A4.55,4.55,0,0,1,29,46.37a5.89,5.89,0,0,0-4.06,8.23,4.16,4.16,0,0,0,1.18,1.5,7.28,7.28,0,0,1,2.28,4.14l.64,3.6A4.84,4.84,0,0,1,29,66a7.38,7.38,0,0,1-9.66,5.4,9.07,9.07,0,0,1-5.66-6.07l-.75-2.68a3.44,3.44,0,0,1,2.48-4.36,5,5,0,0,0,3.66-3l4.83-11.89a2.9,2.9,0,0,0-4.44-3.39l-5.18,4a6.57,6.57,0,0,0-2.45,6.55h0a3.64,3.64,0,0,1-6.11,3.35l-.36-.34A79.31,79.31,0,0,0,8,110.1a33.18,33.18,0,0,0,12.65,5.36,5,5,0,0,1,3.64,3l3.13,7.63a4.31,4.31,0,0,0,3.89,2.66,9.09,9.09,0,0,1,7.92,5,2.75,2.75,0,0,0,3.14,1.42h0a2.74,2.74,0,0,0,2.06-2.72l-.09-4.54a1.78,1.78,0,0,1,.82-1.55,1.81,1.81,0,0,1,2.51.53l2.12,3.3a2.53,2.53,0,0,0,4.64-1l.66-4.38a4.21,4.21,0,0,1,.3-1.09,6.26,6.26,0,0,1,6.74-3.79,4.44,4.44,0,0,1,3.77,4.35,4.7,4.7,0,0,1-.26,1.54L64.15,130a7.79,7.79,0,0,0,2.21,8.5,6.81,6.81,0,0,0,10.32-1.71,5.05,5.05,0,0,0,.77-2.59l.06-2.36A7.43,7.43,0,0,1,79.44,127.08Z"/><path class="cls-3" d="M135.87,64.81l-1.36-2.42a8.49,8.49,0,0,0-9.66-4,5.53,5.53,0,0,1-4.13-.4l-.4-.22a5.84,5.84,0,0,1-3-4.41l0-.25a6,6,0,0,1,.84-4,5.87,5.87,0,0,1,5.93-2.64,11,11,0,0,1,7.41,4.92,3.81,3.81,0,0,0,3.07,1.74l2.7.11A2.77,2.77,0,0,0,139.61,52,2.55,2.55,0,0,1,143,51.3a2.7,2.7,0,0,1,1.23,2.51,5.41,5.41,0,0,1-1.76,3.68l-.12.12A4.08,4.08,0,0,0,141,60.07a3.92,3.92,0,0,0,2.56,4.17h0a4.57,4.57,0,0,0,6-3.63,1.72,1.72,0,0,1,2.18-1.48l5.3,1.63a78.07,78.07,0,0,0-8-20.14,21.06,21.06,0,0,1-4.87,3.1,2.75,2.75,0,0,1-3-.35,2.64,2.64,0,0,1-.06-3.94l4.56-4.21a79.42,79.42,0,0,0-13-14.79,17.4,17.4,0,0,0,.39,6.77l.21.8a2.83,2.83,0,0,1-.85,2.81,2.33,2.33,0,0,1-3.13-.23,2.22,2.22,0,0,0-3,0,3.83,3.83,0,0,0-.9,4.29l.87,2a2.56,2.56,0,0,1-.6,2.94,2.49,2.49,0,0,1-3.53-.28,11.12,11.12,0,0,1-2.59-7.93v-.12a2.57,2.57,0,0,0-3.25-2.65,8,8,0,0,1-7.94-2.13l-1.19-1.22a1.79,1.79,0,0,0-3,1.91l1.94,4.88a3.87,3.87,0,0,1,.1,2.6,3.91,3.91,0,0,1-3.86,2.78l-2.16-.05a4,4,0,0,1-3.56-2.49A5.64,5.64,0,0,0,95,32.71L92.1,30.59a4.21,4.21,0,0,1-1.51-2.15,4.2,4.2,0,0,0-2.67-2.76l-.59-.2a4,4,0,0,1-2.24-5.56,2.58,2.58,0,0,0-.46-3l0,0a2.72,2.72,0,0,0-3.32-.41l-.1.06a2.78,2.78,0,0,0-1.36,2.27,2.11,2.11,0,0,1-2.61,1.95l-.23,0a10.37,10.37,0,0,1-7.71-8,2.07,2.07,0,0,1,0-.22,4.55,4.55,0,0,0-4.06-3.61l-.63-.05a3.41,3.41,0,0,0-2.6.88l-.25.24A47.48,47.48,0,0,1,51,17.34l-.2.1A74.44,74.44,0,0,0,34.26,28.78c-2.07,1.89-3.79,3.44-3.79,3.44a2.68,2.68,0,0,0-.66,3.08,2.78,2.78,0,0,0,2.57,1.59h.16a2.67,2.67,0,0,0,1.87-.76l5.41-5.26,1.68-1.61a7,7,0,0,1,6.39-1.78l.2,0a20.24,20.24,0,0,0,8,.17l.09,0a2.55,2.55,0,0,0,2.09-2.51V24.07a2.42,2.42,0,0,0-1-1.89,2.27,2.27,0,0,1-.37-3.27l2.75-3.31a3.86,3.86,0,0,1,1.81-1.2l0,0a3.48,3.48,0,0,1,4.34,2.28l0,.09a6.82,6.82,0,0,0,5.27,4.64l1,.18a2.58,2.58,0,0,1,2.1,2,2.48,2.48,0,0,1-2.39,3l-1.43,0a5.47,5.47,0,0,0-5.11,3.75l0,.07a3.43,3.43,0,0,0,.83,3.5h0a3.37,3.37,0,0,1,1,2.3,14.18,14.18,0,0,0,3.27,9l1.83,2.09A10.4,10.4,0,0,1,74.75,53a4.82,4.82,0,0,1-.31,2.32l-.12.3a5.69,5.69,0,0,0,1.79,6.54l.07,0a5.89,5.89,0,0,0,4.25,1.23l4-.42a5,5,0,0,0,3.91-2.71l0-.07a5.09,5.09,0,0,0-.65-5.57,1,1,0,0,1-.13-.16,6.37,6.37,0,0,1-1.3-5.72l.12-.49a3.36,3.36,0,0,1,3.11-2.51h.08a4.09,4.09,0,0,1,3.33,1.51l.23.29a5.26,5.26,0,0,1,1.14,4v.08a5.08,5.08,0,0,0,1.35,4.2l1.86,2a9,9,0,0,0,5.88,2.77h.13a8.7,8.7,0,0,0,5.79-1.7l.74-.55a3.09,3.09,0,0,1,3.7,0l.05,0a3.16,3.16,0,0,1,1.21,3l-.25,1.43a3.86,3.86,0,0,0,1.07,3.47,3.77,3.77,0,0,0,5.18,0l.18-.17a3.66,3.66,0,0,1,3.27-1,3.53,3.53,0,0,1,2.73,2.7,5.39,5.39,0,0,0,5.2,4.29h-1a5.16,5.16,0,0,0,3.08-.93A4.93,4.93,0,0,0,135.87,64.81Z"/><path class="cls-3" d="M126,14.29a78.56,78.56,0,0,0-14.42-8l-1.54,2.09a8,8,0,0,0,4.43,12.42l.15,0a14.71,14.71,0,0,1,5.74,3,4.81,4.81,0,0,0,4.65.87,3.87,3.87,0,0,0,.64-7,1.73,1.73,0,0,1-.24-2.87Z"/><path class="cls-3" d="M25.56,82.6a14.15,14.15,0,1,1-4.09,19.58A14.15,14.15,0,0,1,25.56,82.6Z"/><path class="cls-4" d="M27,101.58a14.1,14.1,0,0,1,7.58-21.22,14.14,14.14,0,1,0,3,27.55A14.13,14.13,0,0,1,27,101.58Z"/><path class="cls-2" d="M33.32,109.22a14.79,14.79,0,1,1,8.09-2.42A14.74,14.74,0,0,1,33.32,109.22Zm0-28.29A13.5,13.5,0,1,0,44.6,87,13.41,13.41,0,0,0,33.29,80.93Z"/><path class="cls-3" d="M77.8,136.24a5.31,5.31,0,1,1,7.33-1.62A5.31,5.31,0,0,1,77.8,136.24Z"/><path class="cls-4" d="M85.13,134.62a5.28,5.28,0,0,0,.4-5,5.25,5.25,0,0,1-.69,1.69,5.32,5.32,0,0,1-9.35-.74,5.3,5.3,0,0,0,9.64,4Z"/><path class="cls-2" d="M80.65,137.72a6,6,0,1,1,0-11.91,6,6,0,0,1,5.81,4.67,5.95,5.95,0,0,1-5.82,7.24Zm0-10.62a4.67,4.67,0,1,0,3.93,7.17,4.67,4.67,0,0,0-3.93-7.17Z"/><path class="cls-3" d="M147.42,87.16a6.86,6.86,0,1,1,.58-9.68A6.85,6.85,0,0,1,147.42,87.16Z"/><path class="cls-4" d="M148,77.48a6.84,6.84,0,0,0-6.87-2.06A6.72,6.72,0,0,1,143.21,77a6.81,6.81,0,0,1-3.4,11.16A6.85,6.85,0,0,0,148,77.48Z"/><path class="cls-2" d="M142.87,89.53a7.5,7.5,0,1,1,5-1.89A7.49,7.49,0,0,1,142.87,89.53Zm0-13.72a6.2,6.2,0,0,0-6.2,5.84,6.21,6.21,0,1,0,6.2-5.84Z"/><circle class="cls-3" cx="97.97" cy="142.17" r="7.29"/><path class="cls-4" d="M98.26,146a7.28,7.28,0,0,1-7.17-6.16,7.27,7.27,0,1,0,14.17,2.3,7,7,0,0,0-.12-1.13A7.25,7.25,0,0,1,98.26,146Z"/><path class="cls-2" d="M98,150.1a7.93,7.93,0,1,1,7.93-7.93A7.94,7.94,0,0,1,98,150.1Zm0-14.57a6.64,6.64,0,1,0,6.65,6.64A6.65,6.65,0,0,0,98,135.53Z"/><circle class="cls-3" cx="61.41" cy="21.04" r="5.57"/><path class="cls-4" d="M62.05,18.9a5.53,5.53,0,0,1,4.85,2.89A4.65,4.65,0,0,0,67,21a5.58,5.58,0,1,0-10.43,2.69A5.57,5.57,0,0,1,62.05,18.9Z"/><path class="cls-2" d="M61.41,27.26A6.22,6.22,0,1,1,67.62,21,6.23,6.23,0,0,1,61.41,27.26Zm0-11.14A4.93,4.93,0,1,0,66.34,21,4.93,4.93,0,0,0,61.41,16.12Z"/><path class="cls-3" d="M29.05,64.32A8.28,8.28,0,1,1,20.77,56,8.28,8.28,0,0,1,29.05,64.32Z"/><path class="cls-4" d="M16.42,64.45A8.27,8.27,0,0,1,23,56.37,7.88,7.88,0,0,0,20.77,56a8.28,8.28,0,0,0,0,16.56,8.46,8.46,0,0,0,1.75-.2A8.25,8.25,0,0,1,16.42,64.45Z"/><path class="cls-2" d="M20.77,73.24a8.93,8.93,0,1,1,8.92-8.92A8.94,8.94,0,0,1,20.77,73.24Zm0-16.56a7.64,7.64,0,1,0,7.63,7.64A7.65,7.65,0,0,0,20.77,56.68Z"/><circle class="cls-3" cx="114.12" cy="129.83" r="5.57"/><path class="cls-4" d="M117.32,125.28a5.19,5.19,0,0,1,.12,1.12,5.56,5.56,0,0,1-8.78,4.54,5.57,5.57,0,1,0,8.66-5.66Z"/><path class="cls-2" d="M114.12,136a6.22,6.22,0,1,1,6.21-6.22A6.23,6.23,0,0,1,114.12,136Zm0-11.14a4.93,4.93,0,1,0,4.92,4.92A4.93,4.93,0,0,0,114.12,124.9Z"/><path class="cls-3" d="M147.15,52.6A5.14,5.14,0,1,1,140,51.17,5.14,5.14,0,0,1,147.15,52.6Z"/><path class="cls-4" d="M140,51.17a5.55,5.55,0,0,0-.75.61,5.14,5.14,0,0,1,5.59,8.41,5.14,5.14,0,1,0-4.84-9Z"/><path class="cls-2" d="M142.88,61.24a5.79,5.79,0,1,1,4.81-9,5.8,5.8,0,0,1-1.61,8A5.81,5.81,0,0,1,142.88,61.24Zm0-10.29a4.5,4.5,0,1,0,3.75,2A4.5,4.5,0,0,0,142.87,51Z"/><path class="cls-3" d="M56.09,89.24a5.15,5.15,0,1,1,6.39-3.48A5.16,5.16,0,0,1,56.09,89.24Z"/><path class="cls-4" d="M61.41,87.68a5.07,5.07,0,0,1-1.68-.18,5.14,5.14,0,0,1-3.47-6.39,4.89,4.89,0,0,1,1.07-1.92,5.13,5.13,0,1,0,4.08,8.49Z"/><path class="cls-2" d="M57.55,90.09A5.78,5.78,0,1,1,63.09,86,5.78,5.78,0,0,1,57.55,90.09Zm0-10.29a4.52,4.52,0,1,0,1.28.19A4.61,4.61,0,0,0,57.54,79.8Z"/><path class="cls-3" d="M131.41,54.22a7.94,7.94,0,1,1-4.9-10.11A8,8,0,0,1,131.41,54.22Z"/><path class="cls-4" d="M126.51,44.11a7.93,7.93,0,0,0-7.37,1.15,7.65,7.65,0,0,1,2.7.41A7.94,7.94,0,0,1,124,59.53a7.93,7.93,0,0,0,2.51-15.42Z"/><path class="cls-2" d="M123.91,60.2a8.48,8.48,0,0,1-2.82-.48A8.59,8.59,0,0,1,123.91,43a8.47,8.47,0,0,1,2.81.48,8.59,8.59,0,0,1-2.81,16.7Zm0-15.89a7.31,7.31,0,1,0,2.39.41A7.3,7.3,0,0,0,123.91,44.31Z"/><path class="cls-5" d="M109.54,7.86A79.26,79.26,0,0,1,46,148.1,77.05,77.05,0,1,0,109.54,7.86Z"/><path class="cls-6" d="M118.5,79.3c0-34.85-18.19-64.86-44.47-79C32.63,3.44,0,37.57,0,79.3s32.63,75.85,74,79C100.31,144.15,118.5,114.14,118.5,79.3Z"/></g></g></g></svg>