<svg xmlns="http://www.w3.org/2000/svg" viewBox="0 0 158.59 158.59"><defs><style>.cls-1{isolation:isolate;}.cls-2{fill:#c8d0d7;}.cls-3{fill:#b7c0c8;}.cls-4{fill:#848c90;}.cls-5{fill:#e5e5e5;mix-blend-mode:multiply;}.cls-6{fill:#222;}</style></defs><title>newAsset 28</title><g class="cls-1"><g id="Layer_2" data-name="Layer 2"><g id="Layer_1-2" data-name="Layer 1"><circle class="cls-2" cx="79.3" cy="79.3" r="79.3" transform="translate(-11.55 145.04) rotate(-80.89)"/><path class="cls-3" d="M77.67,126.38a1.62,1.62,0,0,1,1.59-.44A3.73,3.73,0,0,1,82,129.55a3.74,3.74,0,0,0,2.57,3.54A3.85,3.85,0,0,0,89,131.63a5,5,0,0,0-.23-6l-1-1.27A3.54,3.54,0,0,0,85,123a3.16,3.16,0,1,1-.06-6.32,3.79,3.79,0,0,1,3.41,2.14l1.34,2.77a3.76,3.76,0,0,0,7.13-1.29l.11-1.14a1.45,1.45,0,0,1,1.73-1.3,5.88,5.88,0,0,0,6-2.46,6.07,6.07,0,0,0-3.34-9.24l-3.18-.92a2.76,2.76,0,0,1-2-2.12,5,5,0,0,0-4.94-4.22h-.61a1.77,1.77,0,0,1-1.75-1.52,5,5,0,0,0-3.33-4,4.39,4.39,0,0,0-5.38,6.07l.09.19A5.24,5.24,0,0,0,82.73,102a3.3,3.3,0,0,1,1.9,3.11c-.11,2.62-3.25,4.41-5.95,2a2.91,2.91,0,0,1-1-1.73l-.13-.76a7.55,7.55,0,0,0-3.1-4.87,2.43,2.43,0,0,0-1.28-.44,3.78,3.78,0,0,0-3.92,5.13l.25.64a5.17,5.17,0,0,1,.38,2.23,5.75,5.75,0,0,1-3.48,5l-.35.15a4.39,4.39,0,0,1-6-3.27,2.65,2.65,0,0,1,.46-2.16A8.26,8.26,0,0,0,62,104l.52-2.13a4.36,4.36,0,0,0-5.39-5.21l-1.57.43A3.17,3.17,0,0,1,52,92.48h0a5.23,5.23,0,0,0,.23-4.7L52,87.31a6.57,6.57,0,0,1,2.37-8.15,2,2,0,0,1,1.09-.3h3.9a4.84,4.84,0,0,1,2.59,4.63,7.16,7.16,0,0,0,2,5.61l3.53,3.54a5,5,0,0,0,1.22.92,7,7,0,0,0,9.66-3.18l.79-1.72a1.78,1.78,0,0,0-1.69-2.48A2.25,2.25,0,1,1,78,81.76l1.5.39a5.23,5.23,0,0,0,6.43-6.23A6.43,6.43,0,0,0,80.5,71a7,7,0,0,0-4.64,1l-3.4,2.18a2.1,2.1,0,0,1-2.83-3l.4-.55a4.14,4.14,0,0,0,.64-3.54,3.79,3.79,0,0,0-6.52-1.48l-.78.89a2.16,2.16,0,0,1-3.69-2.08l.6-1.9A3.27,3.27,0,0,0,55.16,59l-.52.41a3.65,3.65,0,0,1-4-.31,3.06,3.06,0,0,1,2.27-5.46l1.79.26a12.36,12.36,0,0,0,7.16-1.12,3.54,3.54,0,0,0,.56-6l-2-1.47A3.82,3.82,0,0,1,59,41.5a5.37,5.37,0,0,0-1.27-4.45L57,36.1A6.65,6.65,0,0,0,55.75,35,10.62,10.62,0,0,0,42,36L40.23,37.7a4.15,4.15,0,0,1-2.62,1.18L35,39.07a3.77,3.77,0,0,0-3.45,3.74A4.48,4.48,0,0,1,28.06,47a5.8,5.8,0,0,0-4,8.09,4.17,4.17,0,0,0,1.17,1.47,7.3,7.3,0,0,1,2.24,4.07l.63,3.55a4.82,4.82,0,0,1,0,2.07,7.27,7.27,0,0,1-9.5,5.31,8.92,8.92,0,0,1-5.56-6L12.27,63A3.39,3.39,0,0,1,14.7,58.7a4.92,4.92,0,0,0,3.61-3L23.05,44a2.84,2.84,0,0,0-4.36-3.34l-5.1,3.89A6.45,6.45,0,0,0,11.19,51h0a3.59,3.59,0,0,1-6,3.3L4.83,54a77.91,77.91,0,0,0,2.62,55.7A32.47,32.47,0,0,0,19.89,115a4.88,4.88,0,0,1,3.58,3l3.08,7.5A4.22,4.22,0,0,0,30.37,128a8.91,8.91,0,0,1,7.78,4.89,2.71,2.71,0,0,0,3.09,1.39h0a2.71,2.71,0,0,0,2-2.68l-.1-4.46a1.79,1.79,0,0,1,3.28-1l2.08,3.24a2.5,2.5,0,0,0,4.57-1l.64-4.3a4.85,4.85,0,0,1,.3-1.07,6.15,6.15,0,0,1,6.62-3.74,4.39,4.39,0,0,1,3.46,5.8l-1.49,4.15a7.7,7.7,0,0,0,2.17,8.37A6.7,6.7,0,0,0,75,135.94a4.93,4.93,0,0,0,.76-2.53l.06-2.32A7.19,7.19,0,0,1,77.67,126.38Z"/><path class="cls-3" d="M133.36,64.59,132,62.19a8.33,8.33,0,0,0-2.52-2.79,8.44,8.44,0,0,0-8.4-.74,1.33,1.33,0,0,1-1.2,0L116,56.48a1.43,1.43,0,0,1-.73-1.08L114.8,52a2.4,2.4,0,0,1,0-.6,5.93,5.93,0,0,1,6.83-5,10.92,10.92,0,0,1,8,6,.91.91,0,0,0,.78.52l5.57.22a.75.75,0,0,0,.76-.52,2.59,2.59,0,0,1,4.76-.37.88.88,0,0,1,.14.36,5.39,5.39,0,0,1-1.7,4.76l-.63.58a1.35,1.35,0,0,0-.28.35A3.94,3.94,0,0,0,141,64h0a4.53,4.53,0,0,0,6-5.11c-.07-.36.18-.58.54-.47l6.92,2.12a77.64,77.64,0,0,0-7.91-20,20,20,0,0,1-5.7,3.44.91.91,0,0,1-.54,0,2.72,2.72,0,0,1-1.59-4.67l4.53-4.17a78.74,78.74,0,0,0-12.93-14.69,17.14,17.14,0,0,0,.39,6.72l.24,1a1.09,1.09,0,0,1,0,.4c-.3,3.61-3.46,3.2-4.59,1.34a.56.56,0,0,0-.56-.27,3.83,3.83,0,0,0-2.74,5.24l1.2,2.78a.77.77,0,0,1,0,.56c-.76,2.51-3.29,2.71-4.48,1.3a11.13,11.13,0,0,1-2.57-7.88v-.12a2.55,2.55,0,0,0-1-2.18,2.6,2.6,0,0,0-3.82.73,1.87,1.87,0,0,1-2.89.23l-4.91-5a.64.64,0,0,0-.3-.17,1.83,1.83,0,0,0-2.34,2.36L104,32.32a4,4,0,0,1-2.52,5.28,1.39,1.39,0,0,1-.54.09l-5-.14a1,1,0,0,1-1-.91,5.56,5.56,0,0,0-2.22-3.92l-3.81-2.85a.93.93,0,0,1-.37-.67,4.17,4.17,0,0,0-2.8-3.47l-.59-.2a3.93,3.93,0,0,1-1.62-6.4.78.78,0,0,0,0-1.08L82.45,17a2.68,2.68,0,0,0-3.29-.41l-.11.06a2.79,2.79,0,0,0-1,3.77.67.67,0,0,1-.75.94l-2.43-.58a10.26,10.26,0,0,1-7.66-7.92c0-.07,0-.15,0-.22a4.51,4.51,0,0,0-4-3.58L62.53,9A3.35,3.35,0,0,0,60,9.88l-.25.23a47,47,0,0,1-10.62,7.34l-.2.1a73.71,73.71,0,0,0-16.4,11.26l-3.77,3.41a2.8,2.8,0,0,0,.58,4.49.91.91,0,0,0,.5.15h1.72a.85.85,0,0,0,.58-.23L38,30.88l5.38-5.16a.64.64,0,0,1,1,.26c.69,2.07,1.8,1.13,2.71,2.06a1.93,1.93,0,0,0,1.7.62l5.43-.95a2.54,2.54,0,0,0,2.08-2.5V22.46a.67.67,0,0,0-.41-.63,2.3,2.3,0,0,1-1-3.64l3.26-3.91a1.13,1.13,0,0,1,.57-.39l3.1-1a1.08,1.08,0,0,1,1.36.7L64,16a6.86,6.86,0,0,0,5.31,4.67l1.79.33a.78.78,0,0,1,.47.25c1.92,2.1.48,4.57-1.56,4.6l-4.14.06a1.72,1.72,0,0,0-1.59,1.17l-.89,2.64a3.43,3.43,0,0,0,.83,3.53h0a3.46,3.46,0,0,1,.73,3.82,4.07,4.07,0,0,0,.67,4.3l4.76,5.4A10.63,10.63,0,0,1,73,53.53a1.56,1.56,0,0,1-.11.6L71.41,58A1.71,1.71,0,0,0,72,60l2.4,1.84A6,6,0,0,0,78.66,63l4-.42a5,5,0,0,0,4-2.73l0-.08A5.12,5.12,0,0,0,86,54.2c0-.06-.09-.11-.13-.16a6.42,6.42,0,0,1-1.31-5.77l.55-2.16a1,1,0,0,1,1-.78l3.23-.17a1.28,1.28,0,0,1,1,.47l1.14,1.42a5.29,5.29,0,0,1,1.15,4.05,10.69,10.69,0,0,0,0,2.3,1.84,1.84,0,0,0,.51,1.19l4.35,4.57a2.77,2.77,0,0,0,1.82.86l2.56.17a8.75,8.75,0,0,0,5.83-1.72l.75-.56a3.12,3.12,0,0,1,3.73,0l1.13.81a.93.93,0,0,1,.37.93l-.65,3.77a1.3,1.3,0,0,0,.05.62c1.14,3.25,4.53,3.72,6.42,1.93l.82-.77a1.15,1.15,0,0,1,.45-.27,3.71,3.71,0,0,1,5,2.59A5.41,5.41,0,0,0,131,71.86H128.9a5.11,5.11,0,0,0,3.06-.92A4.88,4.88,0,0,0,133.36,64.59Z"/><path class="cls-3" d="M124.68,14.29a78.56,78.56,0,0,0-14.42-8l-1.53,2.09a8,8,0,0,0,4.42,12.42l.15,0a14.71,14.71,0,0,1,5.74,3,4.81,4.81,0,0,0,4.65.87,3.87,3.87,0,0,0,.64-7,1.73,1.73,0,0,1-.24-2.87Z"/><path class="cls-3" d="M24.2,82.6a14.15,14.15,0,1,1-4.09,19.58A14.15,14.15,0,0,1,24.2,82.6Z"/><path class="cls-4" d="M25.68,101.58a14.1,14.1,0,0,1,7.58-21.22,14.14,14.14,0,1,0,3,27.55A14.13,14.13,0,0,1,25.68,101.58Z"/><path class="cls-2" d="M32,109.22a14.79,14.79,0,1,1,8.09-2.42A14.74,14.74,0,0,1,32,109.22Zm0-28.29A13.51,13.51,0,1,0,43.24,87,13.41,13.41,0,0,0,31.93,80.93Z"/><path class="cls-3" d="M76.44,136.24a5.31,5.31,0,1,1,7.33-1.62A5.31,5.31,0,0,1,76.44,136.24Z"/><path class="cls-4" d="M83.78,134.62a5.31,5.31,0,0,0,.39-5,5.25,5.25,0,0,1-.69,1.69,5.32,5.32,0,0,1-9.35-.74,5.3,5.3,0,0,0,9.65,4Z"/><path class="cls-2" d="M79.29,137.72a6,6,0,0,1,0-11.91,6,6,0,0,1,5.81,4.67,5.95,5.95,0,0,1-5.82,7.24Zm0-10.62a4.67,4.67,0,1,0,3.93,7.17,4.67,4.67,0,0,0-1.42-6.44A4.67,4.67,0,0,0,79.3,127.1Z"/><circle class="cls-3" cx="141.51" cy="82.03" r="6.86" transform="translate(-12.09 138.23) rotate(-50.2)"/><path class="cls-4" d="M146.64,77.48a6.83,6.83,0,0,0-6.86-2.06,6.84,6.84,0,0,1,1.49,11.26,6.92,6.92,0,0,1-2.82,1.48,6.85,6.85,0,0,0,8.19-10.68Z"/><path class="cls-2" d="M141.51,89.53a7.5,7.5,0,1,1,5-1.89A7.49,7.49,0,0,1,141.51,89.53Zm0-13.72a6.2,6.2,0,0,0-6.2,5.84,6.21,6.21,0,1,0,6.2-5.84Z"/><path class="cls-3" d="M103.9,142.17a7.29,7.29,0,1,1-7.29-7.29A7.29,7.29,0,0,1,103.9,142.17Z"/><path class="cls-4" d="M96.91,146a7.28,7.28,0,0,1-7.18-6.16,7.27,7.27,0,1,0,14.17,2.3,8.32,8.32,0,0,0-.11-1.13A7.27,7.27,0,0,1,96.91,146Z"/><path class="cls-2" d="M96.61,150.1a7.93,7.93,0,1,1,7.93-7.93A7.94,7.94,0,0,1,96.61,150.1Zm0-14.57a6.64,6.64,0,1,0,6.65,6.64A6.65,6.65,0,0,0,96.61,135.53Z"/><path class="cls-3" d="M65.62,21a5.57,5.57,0,1,1-5.57-5.57A5.57,5.57,0,0,1,65.62,21Z"/><path class="cls-4" d="M60.69,18.9a5.53,5.53,0,0,1,4.85,2.89,4.65,4.65,0,0,0,.08-.75,5.57,5.57,0,1,0-10.43,2.69A5.57,5.57,0,0,1,60.69,18.9Z"/><path class="cls-2" d="M60.05,27.26A6.22,6.22,0,1,1,66.26,21,6.23,6.23,0,0,1,60.05,27.26Zm0-11.14A4.93,4.93,0,1,0,65,21,4.93,4.93,0,0,0,60.05,16.12Z"/><path class="cls-3" d="M27.69,64.32A8.28,8.28,0,1,1,19.41,56,8.28,8.28,0,0,1,27.69,64.32Z"/><path class="cls-4" d="M15.06,64.45a8.27,8.27,0,0,1,6.54-8.08A8,8,0,0,0,19.41,56a8.28,8.28,0,0,0,0,16.56,8.46,8.46,0,0,0,1.75-.2A8.25,8.25,0,0,1,15.06,64.45Z"/><path class="cls-2" d="M19.41,73.24a8.93,8.93,0,1,1,8.92-8.92A8.93,8.93,0,0,1,19.41,73.24Zm0-16.56A7.64,7.64,0,1,0,27,64.32,7.65,7.65,0,0,0,19.41,56.68Z"/><path class="cls-3" d="M118.33,129.83a5.58,5.58,0,1,1-5.57-5.58A5.58,5.58,0,0,1,118.33,129.83Z"/><path class="cls-4" d="M116,125.28a5.91,5.91,0,0,1,.11,1.12,5.56,5.56,0,0,1-8.78,4.54,5.57,5.57,0,1,0,8.67-5.66Z"/><path class="cls-2" d="M112.76,136a6.22,6.22,0,1,1,6.21-6.22A6.23,6.23,0,0,1,112.76,136Zm0-11.14a4.93,4.93,0,1,0,4.92,4.92A4.93,4.93,0,0,0,112.76,124.9Z"/><path class="cls-3" d="M145.79,52.6a5.14,5.14,0,1,1-7.13-1.43A5.13,5.13,0,0,1,145.79,52.6Z"/><path class="cls-4" d="M138.66,51.17a5.55,5.55,0,0,0-.75.61,5.14,5.14,0,0,1,5.59,8.41,4.74,4.74,0,0,0,.86-.46,5.14,5.14,0,1,0-5.7-8.56Z"/><path class="cls-2" d="M141.52,61.24a5.79,5.79,0,1,1,4.81-9,5.73,5.73,0,0,1,.86,4.34,5.79,5.79,0,0,1-5.67,4.65Zm0-10.29A4.5,4.5,0,1,0,144,59.2a4.42,4.42,0,0,0,1.92-2.86A4.5,4.5,0,0,0,141.51,51Z"/><path class="cls-3" d="M54.73,89.24a5.15,5.15,0,1,1,6.39-3.48A5.16,5.16,0,0,1,54.73,89.24Z"/><path class="cls-4" d="M60.05,87.68a5.07,5.07,0,0,1-1.68-.18,5.14,5.14,0,0,1-3.47-6.39A5,5,0,0,1,56,79.19a5.13,5.13,0,1,0,4.08,8.49Z"/><path class="cls-2" d="M56.19,90.09A5.78,5.78,0,1,1,61.73,86,5.78,5.78,0,0,1,56.19,90.09Zm0-10.29a4.52,4.52,0,1,0,1.27.19A4.6,4.6,0,0,0,56.19,79.8Z"/><path class="cls-3" d="M130.05,54.22a7.94,7.94,0,1,1-4.9-10.11A8,8,0,0,1,130.05,54.22Z"/><path class="cls-4" d="M125.15,44.11a7.93,7.93,0,0,0-7.37,1.15,7.65,7.65,0,0,1,2.7.41,7.94,7.94,0,0,1,2.16,13.86,7.93,7.93,0,0,0,2.51-15.42Z"/><path class="cls-2" d="M122.55,60.2a8.48,8.48,0,0,1-2.82-.48,8.57,8.57,0,1,1,2.82.48Zm0-15.89a7.31,7.31,0,1,0,2.39.41A7.3,7.3,0,0,0,122.55,44.31Z"/><path class="cls-5" d="M108.18,7.86A79.26,79.26,0,0,1,44.61,148.1,77.05,77.05,0,1,0,108.18,7.86Z"/><circle class="cls-6" cx="79.3" cy="79.3" r="77.07" transform="translate(-32.85 79.3) rotate(-45)"/></g></g></g></svg>