<svg xmlns="http://www.w3.org/2000/svg" viewBox="0 0 160.1 158.59"><defs><style>.cls-1{isolation:isolate;}.cls-2{fill:#c8d0d7;}.cls-3{fill:#b7c0c8;}.cls-4{fill:#848c90;}.cls-5{fill:#e5e5e5;mix-blend-mode:multiply;}.cls-6{fill:#222;}</style></defs><title>newAsset 29</title><g class="cls-1"><g id="Layer_2" data-name="Layer 2"><g id="Layer_1-2" data-name="Layer 1"><circle class="cls-2" cx="80.8" cy="79.3" r="79.3" transform="matrix(0.17, -0.99, 0.99, 0.17, -11.16, 145.33)"/><path class="cls-3" d="M82.14,127A3.77,3.77,0,0,1,84,130.3a3.81,3.81,0,0,0,2.6,3.61,3.93,3.93,0,0,0,4.43-1.48,5.06,5.06,0,0,0-.24-6.11l-.77-.94a4.94,4.94,0,0,0-3.37-1.78,3.22,3.22,0,0,1,.3-6.43,3.85,3.85,0,0,1,3.47,2.18l1.36,2.83a3.83,3.83,0,0,0,7.26-1.32l.1-1.16a1.48,1.48,0,0,1,1.77-1.32,6,6,0,0,0,6.13-2.51,6.18,6.18,0,0,0-3.41-9.4l-2.61-.75a4,4,0,0,1-2.79-2.84,5.11,5.11,0,0,0-4.92-3.79h-.62a1.8,1.8,0,0,1-1.78-1.54,5.12,5.12,0,0,0-3.38-4.11,4.47,4.47,0,0,0-5.48,6.18l.09.19a5.38,5.38,0,0,0,2.56,2.51,3.34,3.34,0,0,1-1.4,6.37,3.81,3.81,0,0,1-3.74-3.15l-.09-.5a7.62,7.62,0,0,0-2.43-4.39,3.77,3.77,0,0,0-6,4.2l.26.65a5.49,5.49,0,0,1,.39,2.27,5.85,5.85,0,0,1-3.55,5.12l-.35.15a4.42,4.42,0,0,1-4.51-.63,4,4,0,0,1-.81-5.37,8.55,8.55,0,0,0,1.17-2.7l.52-2.16a4.43,4.43,0,0,0-5.48-5.31l-1.59.44a3.23,3.23,0,0,1-3.66-4.71h0a5.25,5.25,0,0,0,.24-4.77l-.22-.49a6.66,6.66,0,0,1,2.71-8.47A4.91,4.91,0,0,1,61,78.75h0a4.92,4.92,0,0,1,2.65,4.37,9.83,9.83,0,0,0,2.88,6.94l2.43,2.43a7,7,0,0,0,11.33-2l.38-.84a2.5,2.5,0,0,0-1.75-3.49,2.28,2.28,0,1,1,1.06-4.44l1.52.4A5.32,5.32,0,0,0,88,75.76a6.5,6.5,0,0,0-5.52-5,7.12,7.12,0,0,0-4.72,1L74.29,74a2.13,2.13,0,0,1-2.88-3l.41-.56a4.25,4.25,0,0,0,.65-3.61,3.87,3.87,0,0,0-6.64-1.5l-.79.91a2.2,2.2,0,0,1-3.75-2.12l.61-1.93a3.32,3.32,0,0,0-5.21-3.63l-.52.41a3.7,3.7,0,0,1-4.05-.31,3.11,3.11,0,0,1,2.31-5.55l1.83.26a12.53,12.53,0,0,0,7.28-1.15,3.59,3.59,0,0,0,.56-6.12l-1.2-.89a5.53,5.53,0,0,1-2.21-4.89,5.47,5.47,0,0,0-1.34-4.08l-.49-.56a10.7,10.7,0,0,0-15.58-.55L42,36.38a6.06,6.06,0,0,1-3.86,1.75l-.3,0a5.69,5.69,0,0,0-5.2,4.62,4.56,4.56,0,0,1-3.51,3.59,5.77,5.77,0,0,0-2.77,9.83,7.4,7.4,0,0,1,2.17,4l.53,3a7.25,7.25,0,0,1-9.59,8.09,9,9,0,0,1-5.65-6.07L13.45,64a5,5,0,0,1,3-6,5,5,0,0,0,2.79-2.76L24,43.33a2.9,2.9,0,0,0-4.44-3.39l-5.18,4A6.57,6.57,0,0,0,12,50.44h0a3.64,3.64,0,0,1-6.11,3.35l-.35-.34A79.22,79.22,0,0,0,8.16,110.1a33.28,33.28,0,0,0,11.61,5.14,7.3,7.3,0,0,1,5.15,4.34L27.15,125a6.13,6.13,0,0,0,5.06,3.78,9.13,9.13,0,0,1,7.18,4.93,2.76,2.76,0,0,0,3.15,1.42h0a2.77,2.77,0,0,0,2.06-2.72l-.1-4.54a1.81,1.81,0,0,1,3.33-1l2.12,3.3a2.53,2.53,0,0,0,4.64-1l.66-4.38a5.18,5.18,0,0,1,.3-1.09,6.27,6.27,0,0,1,6.74-3.79,4.44,4.44,0,0,1,3.77,4.35,4.23,4.23,0,0,1-.26,1.54L64.29,130a7.81,7.81,0,0,0,2.21,8.5,6.69,6.69,0,0,0,11.11-4.87l0-1.79a7.41,7.41,0,0,1,1.47-4.23A2.32,2.32,0,0,1,82.14,127Z"/><path class="cls-3" d="M136.13,64.81l-1.35-2.42a8.49,8.49,0,0,0-9.66-4A5.53,5.53,0,0,1,121,58l-.41-.22a5.85,5.85,0,0,1-3-4.41l0-.25a6,6,0,0,1,.84-4,5.87,5.87,0,0,1,5.93-2.64,11,11,0,0,1,7.4,4.92,3.84,3.84,0,0,0,3.07,1.74l2.71.11A2.78,2.78,0,0,0,139.88,52a2.55,2.55,0,0,1,3.41-.72,2.69,2.69,0,0,1,1.22,2.51,5.4,5.4,0,0,1-1.75,3.68l-.13.12a4.12,4.12,0,0,0-1.33,2.46,3.9,3.9,0,0,0,2.56,4.17h0a4.56,4.56,0,0,0,4.53-.87,4.52,4.52,0,0,0,1.5-2.76,1.73,1.73,0,0,1,2.19-1.48l5.3,1.63a78.07,78.07,0,0,0-8-20.14,21.06,21.06,0,0,1-4.87,3.1,2.75,2.75,0,0,1-3-.35,2.64,2.64,0,0,1-.06-3.94l4.56-4.21a79.78,79.78,0,0,0-13-14.79,17.4,17.4,0,0,0,.39,6.77l.21.8a2.83,2.83,0,0,1-.85,2.81,2.35,2.35,0,0,1-3.14-.23,2.21,2.21,0,0,0-3,0,3.81,3.81,0,0,0-.9,4.29l.87,2a2.55,2.55,0,0,1-.61,2.94,2.48,2.48,0,0,1-3.52-.28A11.12,11.12,0,0,1,120,31.65v-.12a2.58,2.58,0,0,0-3.26-2.65,8,8,0,0,1-7.93-2.13l-1.2-1.22a1.79,1.79,0,0,0-2.94,1.91l1.94,4.88a3.94,3.94,0,0,1-3.76,5.38l-2.16-.05a4,4,0,0,1-3.56-2.49,5.64,5.64,0,0,0-1.87-2.45l-2.85-2.12a4.21,4.21,0,0,1-1.51-2.15,4.2,4.2,0,0,0-2.67-2.76l-.59-.2a3.94,3.94,0,0,1-2.24-5.56,2.58,2.58,0,0,0-.46-3l0,0a2.72,2.72,0,0,0-3.32-.41l-.1.06a2.78,2.78,0,0,0-1.36,2.27,2.12,2.12,0,0,1-2.62,1.95l-.22,0a10.35,10.35,0,0,1-7.71-8c0-.08,0-.15,0-.22a4.53,4.53,0,0,0-4.06-3.61l-.62-.05a3.4,3.4,0,0,0-2.6.88l-.26.24a47.42,47.42,0,0,1-10.69,7.39l-.2.1A74.44,74.44,0,0,0,34.53,28.78l-3.79,3.44a2.68,2.68,0,0,0-.66,3.08,2.77,2.77,0,0,0,2.57,1.59h.16a2.66,2.66,0,0,0,1.86-.76l5.42-5.26,1.68-1.61a7,7,0,0,1,6.38-1.78l.21,0a20.24,20.24,0,0,0,8,.17l.09,0a2.55,2.55,0,0,0,2.09-2.51V24.07a2.4,2.4,0,0,0-1-1.89,2.29,2.29,0,0,1-.37-3.27l2.76-3.31a3.86,3.86,0,0,1,1.81-1.2l.05,0a3.48,3.48,0,0,1,4.34,2.28l0,.09a6.81,6.81,0,0,0,5.27,4.64l1,.18a2.58,2.58,0,0,1,2.1,2,2.48,2.48,0,0,1-2.39,3l-1.43,0a5.47,5.47,0,0,0-5.11,3.75l0,.07a3.4,3.4,0,0,0,.83,3.5h0a3.42,3.42,0,0,1,1,2.3,14.13,14.13,0,0,0,3.27,9l1.83,2.09A10.4,10.4,0,0,1,75,53a4.71,4.71,0,0,1-.32,2.32l-.11.3a5.66,5.66,0,0,0,1.79,6.54l.07,0a5.88,5.88,0,0,0,4.25,1.23l4-.42a5,5,0,0,0,3.91-2.71l0-.07A5.09,5.09,0,0,0,88,54.62l-.14-.16a6.39,6.39,0,0,1-1.3-5.72l.13-.49a3.35,3.35,0,0,1,3.11-2.51h.08a4.09,4.09,0,0,1,3.33,1.51l.23.29a5.26,5.26,0,0,1,1.14,4v.08a5.08,5.08,0,0,0,1.35,4.2l1.86,2a9,9,0,0,0,5.88,2.77h.13a8.72,8.72,0,0,0,5.79-1.7l.74-.55a3.09,3.09,0,0,1,3.7,0l0,0a3.16,3.16,0,0,1,1.21,3L115,62.83a3.86,3.86,0,0,0,1.07,3.47,3.76,3.76,0,0,0,5.17,0l.19-.17a3.65,3.65,0,0,1,3.27-1,3.53,3.53,0,0,1,2.73,2.7,5.38,5.38,0,0,0,5.2,4.29h-1a5.2,5.2,0,0,0,3.08-.93A4.92,4.92,0,0,0,136.13,64.81Z"/><path class="cls-3" d="M126.18,14.29a78.56,78.56,0,0,0-14.42-8l-1.53,2.09a8,8,0,0,0,4.42,12.42l.15,0a14.71,14.71,0,0,1,5.74,3,4.81,4.81,0,0,0,4.65.87,3.87,3.87,0,0,0,.64-7,1.73,1.73,0,0,1-.23-2.87Z"/><path class="cls-3" d="M25.7,82.6a14.15,14.15,0,1,1-4.08,19.58A14.14,14.14,0,0,1,25.7,82.6Z"/><path class="cls-4" d="M27.19,101.58a14.09,14.09,0,0,1,7.57-21.22,14.14,14.14,0,1,0,3,27.55A14.1,14.1,0,0,1,27.19,101.58Z"/><path class="cls-2" d="M33.46,109.22a14.79,14.79,0,1,1,8.09-2.42A14.74,14.74,0,0,1,33.46,109.22Zm0-28.29A13.5,13.5,0,1,0,44.75,87,13.42,13.42,0,0,0,33.44,80.93Z"/><path class="cls-3" d="M77.94,136.24a5.31,5.31,0,1,1,7.34-1.62A5.31,5.31,0,0,1,77.94,136.24Z"/><path class="cls-4" d="M85.28,134.62a5.31,5.31,0,0,0,.39-5,5.22,5.22,0,0,1-.68,1.69A5.32,5.32,0,0,1,77.65,133a5.26,5.26,0,0,1-2-2.36,5.3,5.3,0,0,0,9.64,4Z"/><path class="cls-2" d="M80.79,137.72a6,6,0,1,1,0-11.91,6,6,0,0,1,5.8,4.67,5.95,5.95,0,0,1-5.82,7.24Zm0-10.62a4.67,4.67,0,1,0,3.92,7.17,4.57,4.57,0,0,0,.63-3.51,4.67,4.67,0,0,0-4.55-3.66Z"/><path class="cls-3" d="M147.56,87.16a6.86,6.86,0,1,1,.59-9.68A6.85,6.85,0,0,1,147.56,87.16Z"/><path class="cls-4" d="M148.15,77.48a6.85,6.85,0,0,0-6.87-2.06A6.83,6.83,0,0,1,140,88.16a6.85,6.85,0,0,0,8.19-10.68Z"/><path class="cls-2" d="M143,89.53a7.5,7.5,0,1,1,5-1.89A7.49,7.49,0,0,1,143,89.53Zm0-13.72a6.2,6.2,0,0,0-6.2,5.84,6.21,6.21,0,1,0,6.2-5.84Z"/><circle class="cls-3" cx="98.11" cy="142.17" r="7.29"/><path class="cls-4" d="M98.41,146a7.28,7.28,0,0,1-7.18-6.16,7.27,7.27,0,1,0,14.17,2.3,7,7,0,0,0-.11-1.13A7.27,7.27,0,0,1,98.41,146Z"/><path class="cls-2" d="M98.12,150.1a7.93,7.93,0,1,1,7.92-7.93A7.94,7.94,0,0,1,98.12,150.1Zm0-14.57a6.64,6.64,0,1,0,6.64,6.64A6.65,6.65,0,0,0,98.12,135.53Z"/><circle class="cls-3" cx="61.55" cy="21.04" r="5.57"/><path class="cls-4" d="M62.19,18.9a5.54,5.54,0,0,1,4.86,2.89,6.15,6.15,0,0,0,.07-.75A5.57,5.57,0,0,0,56,21a5.46,5.46,0,0,0,.72,2.69A5.55,5.55,0,0,1,62.19,18.9Z"/><path class="cls-2" d="M61.55,27.26A6.22,6.22,0,1,1,67.77,21,6.23,6.23,0,0,1,61.55,27.26Zm0-11.14A4.93,4.93,0,1,0,66.48,21,4.93,4.93,0,0,0,61.55,16.12Z"/><path class="cls-3" d="M29.19,64.32A8.28,8.28,0,1,1,20.91,56,8.28,8.28,0,0,1,29.19,64.32Z"/><path class="cls-4" d="M16.57,64.45a8.27,8.27,0,0,1,6.53-8.08A8,8,0,0,0,20.91,56a8.28,8.28,0,0,0,0,16.56,8.38,8.38,0,0,0,1.75-.2A8.26,8.26,0,0,1,16.57,64.45Z"/><path class="cls-2" d="M20.91,73.24a8.93,8.93,0,1,1,8.92-8.92A8.93,8.93,0,0,1,20.91,73.24Zm0-16.56a7.64,7.64,0,1,0,7.64,7.64A7.65,7.65,0,0,0,20.91,56.68Z"/><circle class="cls-3" cx="114.26" cy="129.83" r="5.57"/><path class="cls-4" d="M117.47,125.28a5.91,5.91,0,0,1,.11,1.12,5.56,5.56,0,0,1-8.78,4.54,5.57,5.57,0,1,0,8.67-5.66Z"/><path class="cls-2" d="M114.26,136a6.22,6.22,0,1,1,6.21-6.22A6.23,6.23,0,0,1,114.26,136Zm0-11.14a4.93,4.93,0,1,0,4.93,4.92A4.93,4.93,0,0,0,114.26,124.9Z"/><path class="cls-3" d="M147.3,52.6a5.15,5.15,0,1,1-7.14-1.43A5.14,5.14,0,0,1,147.3,52.6Z"/><path class="cls-4" d="M140.16,51.17a4.9,4.9,0,0,0-.74.61A5.14,5.14,0,0,1,145,60.19a5,5,0,0,0,.85-.46,5.14,5.14,0,1,0-5.7-8.56Z"/><path class="cls-2" d="M143,61.24a5.79,5.79,0,1,1,3.2-1A5.79,5.79,0,0,1,143,61.24ZM143,51a4.51,4.51,0,1,0,3.75,2A4.5,4.5,0,0,0,143,51Z"/><path class="cls-3" d="M56.23,89.24a5.15,5.15,0,1,1,6.39-3.48A5.15,5.15,0,0,1,56.23,89.24Z"/><path class="cls-4" d="M61.55,87.68a5.07,5.07,0,0,1-5.15-6.57,5.16,5.16,0,0,1,1.07-1.92,5.13,5.13,0,1,0,4.08,8.49Z"/><path class="cls-2" d="M57.69,90.09a5.71,5.71,0,0,1-1.64-.24,5.78,5.78,0,0,1,1.64-11.33,5.71,5.71,0,0,1,1.64.24,5.78,5.78,0,0,1-1.64,11.33Zm0-10.29A4.52,4.52,0,1,0,59,80,4.67,4.67,0,0,0,57.69,79.8Z"/><path class="cls-3" d="M131.55,54.22a7.94,7.94,0,1,1-4.89-10.11A8,8,0,0,1,131.55,54.22Z"/><path class="cls-4" d="M126.66,44.11a7.93,7.93,0,0,0-7.37,1.15,7.63,7.63,0,0,1,2.69.41,7.94,7.94,0,0,1,2.16,13.86,7.93,7.93,0,0,0,2.52-15.42Z"/><path class="cls-2" d="M124.05,60.2a8.48,8.48,0,0,1-2.82-.48A8.59,8.59,0,0,1,124.05,43a8.48,8.48,0,0,1,2.82.48,8.59,8.59,0,0,1-2.82,16.7Zm0-15.89a7.31,7.31,0,1,0,2.4.41A7.3,7.3,0,0,0,124.05,44.31Z"/><path class="cls-5" d="M109.68,7.86A79.26,79.26,0,0,1,46.11,148.1,77.05,77.05,0,1,0,109.68,7.86Z"/><path class="cls-6" d="M79.3,158.59A79.3,79.3,0,1,1,79.3,0Z"/></g></g></g></svg>